
<svg xmlns="http://www.w3.org/2000/svg" xmlns:xlink="http://www.w3.org/1999/xlink" fill="none" viewBox="0 0 229 77">
  <defs>
    <path id="c" fill="#fff" d="M20.2 33.9h-4.3v21.8h4.3V33.9Z"/>
    <path id="f" fill="#fff" d="M58.8 33.9h-4.2v21.8h4.2V33.9Z"/>
    <path id="i" fill="#fff" d="M37.3 15.5a1.1 1.1 0 1 0 0-2.3 1.1 1.1 0 0 0 0 2.3Z"/>
    <path id="m" fill="#fff" d="M37.4 54.6a6.5 6.5 0 1 1-13 0v-9h13v9Z"/>
  </defs>
  <path stroke="#211915" stroke-miterlimit="3.9" d="M228.2 1H1v75h227.2V1Z"/>
  <path fill="#211915" d="M150.3 30h.8v6h-.9v-4.6l-1.8 2.3h-.2l-1.8-2.3V36h-.9v-6h.8l2 2.5 2-2.4Zm2.1 0h.9v6h-.9v-6Zm7 0h.8v6h-.7l-4-4.5V36h-.9v-6h.7l4.1 4.7V30Zm2.1 0h.9v6h-.9v-6Zm3.7 3.5-.7-.4a3 3 0 0 1-.8-.7c-.2-.2-.3-.5-.3-.8 0-.5.2-.9.5-1.2a2.5 2.5 0 0 1 2.7 0v1a2 2 0 0 0-1.4-.6c-.3 0-.6 0-.7.2-.2 0-.3.3-.3.5 0 .1 0 .3.2.5l.6.4.7.4c.7.5 1.1 1 1.1 1.7 0 .5-.2.8-.5 1.1-.3.3-.7.5-1.2.5-.6 0-1.2-.2-1.7-.6v-1c.5.5 1 .8 1.6.8.3 0 .5 0 .7-.2.2-.1.3-.3.3-.5 0-.4-.3-.7-.8-1Zm2-3.5h5v.8h-2V36h-1v-5.2h-2v-.7Zm5.8 0h3.5v.8h-2.6v1.9h2.5v.7h-2.5v1.9h2.7v.7H173v-6Zm4.5 6v-6h1.5c.6 0 1.1.2 1.5.5.3.3.5.7.5 1.2 0 .4 0 .7-.3 1-.1.2-.4.4-.7.5l.5.5.8 1.1.5.8.3.4h-1l-.2-.4-.3-.3-.2-.4-.3-.5-.5-.6-.4-.3h-.8V36h-.9Zm1.1-5.2h-.2v1.9h.3l.9-.1.4-.4.1-.5-.1-.5a.8.8 0 0 0-.5-.3h-.9Zm4.2-.8h.9v6h-.9v-6Zm5.2 0c.9 0 1.7.3 2.3.9a3 3 0 0 1 1 2.2c0 .8-.4 1.6-1 2.1-.6.6-1.4.9-2.4.9a3 3 0 0 1-2.2-.9c-.7-.5-1-1.3-1-2.1 0-1 .4-1.6 1-2.2a3 3 0 0 1 2.3-.9Zm0 .8c-.7 0-1.3.2-1.7.6-.4.5-.7 1-.7 1.7 0 .6.3 1.1.7 1.6.4.4 1 .6 1.7.6.6 0 1.2-.2 1.7-.6.4-.5.6-1 .6-1.7a2 2 0 0 0-.6-1.5c-.5-.5-1-.7-1.7-.7ZM145.5 45v-6h2a5 5 0 0 1 2 .4c.5.3.9.6 1.1 1.1a3 3 0 0 1-1.5 4.3 3 3 0 0 1-.6.1h-3Zm2-5.2h-1.1v4.4h2.1l.6-.3c.2 0 .3-.2.4-.3.5-.4.7-1 .7-1.6a2 2 0 0 0-1.2-2l-.6-.1h-1Zm4.6-.8h3.4v.8H153v1.8h2.5v.8H153v1.8h2.6v.8h-3.5v-6Zm12.1 4.6v1a5 5 0 0 1-2.2.5c-.7 0-1.2-.2-1.7-.4a3 3 0 0 1-1.1-1.1 3 3 0 0 1-.4-1.5c0-1 .3-1.6.9-2.2.6-.6 1.4-1 2.3-1 .6 0 1.3.3 2.1.6v.9c-.7-.4-1.4-.6-2-.6-.7 0-1.3.2-1.8.6-.4.5-.6 1-.6 1.7 0 .6.2 1.1.6 1.6.5.4 1 .6 1.7.6a4 4 0 0 0 2.2-.7Zm5.2-4.6h.9v3.4l-.1 1c0 .3-.2.5-.3.6 0 .2-.2.3-.3.5-.5.4-1.1.6-1.9.6-.8 0-1.4-.2-1.9-.6a2 2 0 0 1-.6-1V39h.8v3.3c0 .6 0 1 .2 1.2.1.2.3.4.6.5.2.2.5.2.9.2.5 0 1-.1 1.3-.4l.3-.5.1-1V39Zm2.1 0h.8v5.2h2.8v.8h-3.6v-6Zm3 0h5v.8h-2V45h-.9v-5.2h-2v-.7Zm10.1 0h.8v4.4l-.3.6-.4.5c-.5.4-1 .6-1.9.6-.7 0-1.4-.2-1.8-.6a2 2 0 0 1-.6-1l-.1-1V39h.8v3.3c0 .6 0 1 .2 1.2.1.2.3.4.6.5.3.2.6.2 1 .2s.9-.1 1.2-.4l.4-.5V39Zm2.1 6v-6h1.5c.6 0 1 .2 1.4.5.4.3.5.7.5 1.2 0 .4 0 .7-.2 1-.2.2-.4.4-.8.5l.6.5.8 1.1.5.8.3.4h-1l-.3-.4-.2-.3-.3-.4-.3-.5-.5-.6-.4-.3h-.8V45h-.8Zm1-5.2h-.2v1.9h.3l1-.1.3-.4.2-.5-.2-.5a.8.8 0 0 0-.4-.3l-1-.1Z"/>
  <path fill="#211915" d="M193.9 39h.6l2.7 6h-1l-.7-1.8h-2.6l-.7 1.8h-1l2.7-6Zm1.2 3.5-1-2.2-.8 2.2h1.8ZM76.5 33.3h2.2v2.6a6 6 0 0 1-2.4.5c-1 0-2-.3-2.5-.9a3 3 0 0 1-1-2.2 3 3 0 0 1 1-2.4c.7-.6 1.5-1 2.5-1l1 .2 1.2.4v1c-.7-.5-1.5-.7-2.3-.7a2.4 2.4 0 0 0-2.4 2.4c0 .7.2 1.3.7 1.8.5.4 1 .7 1.8.7l1.3-.3h.1V34h-1.2v-.8Zm6.6-3.3c1 0 1.9.3 2.5.9a3 3 0 0 1 1 2.3 3 3 0 0 1-1 2.3c-.7.6-1.5 1-2.5 1s-1.8-.4-2.4-1a3 3 0 0 1-1-2.3c0-1 .3-1.7 1-2.3.6-.6 1.4-1 2.4-1Zm0 .8c-.7 0-1.3.2-1.7.7-.5.5-.7 1-.7 1.7s.2 1.3.7 1.7c.4.5 1 .7 1.7.7.8 0 1.4-.2 1.8-.7.5-.4.8-1 .8-1.7s-.3-1.2-.8-1.7c-.4-.4-1-.7-1.7-.7Zm6.8 5.6h-2.2V30h1.7c.5 0 1 0 1.3.2l.6.5.3.9c0 .6-.4 1-1 1.3.5.1.8.3 1.1.6.3.3.4.6.4 1s0 .7-.2 1c-.2.2-.4.4-.8.5-.3.2-.7.3-1.2.3Zm-.5-5.5h-.7v1.9h.6c.4 0 .8-.1 1-.3.2-.2.3-.4.3-.7 0-.6-.4-1-1.2-1Zm.1 2.7h-.8v2h.9l1-.1a1 1 0 0 0 .6-1c0-.1 0-.3-.2-.5a1 1 0 0 0-.5-.3l-1-.1ZM93 30h1v6.4h-1V30Zm2.4 0H99v.9h-2.7v1.9h2.6v.8h-2.6v2H99v.8h-3.7V30Zm4.7 6.4V30h1.6c.7 0 1.2.1 1.6.4.3.3.5.8.5 1.3 0 .4 0 .7-.3 1-.1.2-.4.4-.8.6l.6.5.9 1.2.5.8.3.5h-1l-.3-.4v-.1l-.3-.3-.2-.4-.4-.5a1 1 0 0 0-.5-.6 2 2 0 0 0-.4-.4h-.9v2.7h-.9Zm1.2-5.6h-.3v2h.4l1-.1.3-.4.2-.5c0-.2 0-.4-.2-.5a.9.9 0 0 0-.4-.4h-1Zm9.5-.8h1v6.4h-.9l-4.3-4.9v4.9h-.8V30h.7l4.3 4.9v-5Zm5.4 0c1 0 1.9.3 2.5.9a3 3 0 0 1 1 2.3 3 3 0 0 1-1 2.3c-.7.6-1.5 1-2.5 1s-1.8-.4-2.4-1a3 3 0 0 1-1-2.3c0-1 .3-1.7 1-2.3.6-.6 1.4-1 2.4-1Zm0 .8c-.7 0-1.3.2-1.7.7-.5.5-.7 1-.7 1.7s.2 1.3.7 1.7c.4.5 1 .7 1.7.7.8 0 1.4-.2 1.8-.7.5-.4.8-1 .8-1.7s-.3-1.2-.8-1.7c-.4-.4-1-.7-1.7-.7ZM73 46v-6.4h2.2c.9 0 1.6.1 2 .4.6.3 1 .6 1.3 1.1a3.1 3.1 0 0 1-1.6 4.6l-.7.2h-3.1Zm2.1-5.6H74v4.7h2.2l.6-.3.5-.4c.5-.4.7-1 .7-1.7a2.2 2.2 0 0 0-1.3-2l-.6-.2h-1Zm4.9-.8h3.7v.8H81v2h2.6v.8H81v2h2.8v.7h-3.7v-6.3Zm7.4 0H91v.8h-2.7v2H91v.8h-2.6v2h2.8v.7h-3.7v-6.3Zm6.3 3.7-.7-.4-1-.8-.2-.9c0-.5.2-.9.5-1.2a2 2 0 0 1 1.4-.5c.5 0 1 .2 1.4.5v1c-.4-.4-1-.7-1.5-.7l-.7.2-.3.6c0 .2 0 .3.2.5l.7.5.7.4c.8.5 1.2 1 1.2 1.8 0 .5-.2 1-.5 1.2-.4.3-.8.5-1.4.5-.6 0-1.2-.2-1.7-.6v-1.1c.5.6 1 .9 1.7.9.3 0 .6 0 .7-.2l.3-.6c0-.4-.3-.8-.8-1.1Zm2.7 2.7v-6.4h2c.6 0 1 .2 1.4.5.4.3.6.7.6 1.3 0 .4-.1.7-.3 1-.2.3-.4.5-.8.6a4 4 0 0 1-1.3.2h-.7v2.7h-1Zm1.8-5.6h-1v2h1c.5 0 .7-.1 1-.3l.2-.7c0-.7-.4-1-1.2-1Zm4.4-.8h.6l3 6.3h-1l-.9-1.8h-2.7l-.8 1.8h-1l2.8-6.3Zm1.4 3.6-1-2.2-1 2.2h2Zm8-3.6h.8V46h-.8l-4.3-4.8V46h-.8v-6.3h.7l4.3 5v-5Zm-.7-1.7c0 .4-.1.6-.3.8-.1.2-.3.3-.5.3-.1 0-.4 0-.6-.2l-.7-.2-.2.1v.3h-.5c0-.4.2-.7.3-.9l.5-.2.8.3h.7l.1-.3h.4Zm4.9 1.7h.7l2.8 6.3h-1l-.8-1.8h-2.7l-.8 1.8h-1l2.8-6.3Zm1.4 3.6-1-2.2-1 2.2h2Z"/>
  <path fill="#211915" fill-rule="evenodd" stroke="#211915" stroke-miterlimit="3.9" stroke-width=".1" d="m56.7 28.9-.3.2-.3-.1-.3.2-.4-.2-.3.3-.2-.1-.2.2h-.1l-.2-.2-.2-.2h-.1l-.1-.3v-.2c0-.1.2-.4.6-.4h.5c.1-.2.5-.3.8-.3l.8.2.8-.2c.4 0 .7.1.8.3h.6c.3 0 .6.3.6.4v.2l-.1.3h-.2l-.2.2-.1.1h-.2l-.1-.1h-.3c-.2 0-.3-.2-.3-.2l-.4.2-.2-.2s-.2.2-.4.1l-.3-.2Z" clip-rule="evenodd"/>
  <path fill="none" stroke="#211915" stroke-miterlimit="3.9" stroke-width=".2" d="M56.7 28.3c.2 0 .3-.3.3-.6s-.1-.5-.3-.5c-.2 0-.4.2-.4.5s.2.6.4.6Z"/>
  <path fill="none" stroke="#211915" stroke-miterlimit="3.9" stroke-width=".2" d="M56.7 28.2s.2-.2.2-.5l-.2-.5-.2.5c0 .3.1.5.2.5Z"/>
  <path fill="none" fill-rule="evenodd" stroke="#211915" stroke-miterlimit="3.9" stroke-width=".2" d="m54.9 30-.2-.4a7 7 0 0 1 2-.2 7 7 0 0 1 2 .2l-.1.3-.1.2-1.8-.2c-.7 0-1.4 0-1.8.2V30Z" clip-rule="evenodd"/>
  <path fill="none" fill-rule="evenodd" stroke="#211915" stroke-miterlimit="3.9" stroke-width=".2" d="m56.7 30.6 1.6-.2c.2 0 .3-.1.2-.2v-.1l-1.8-.2c-.7 0-1.3 0-1.7.2l-.1.1c0 .1 0 .2.2.2l1.6.2Z" clip-rule="evenodd"/>
  <path stroke="#211915" stroke-miterlimit="3.9" stroke-width=".2" d="M59.4 28.8v-.3c0-.5-.3-.8-.7-.8h-.3m-.3.5V28c0-.3-.2-.6-.6-.6l-.4.1"/>
  <path fill="#211915" fill-rule="evenodd" stroke="#211915" stroke-miterlimit="3.9" stroke-width=".1" d="m58.7 29.3-.1-.1h-.3c-.2 0-.3-.2-.3-.2l-.4.2-.2-.2-.4.1-.3-.2-.3.2-.3-.1-.3.2-.4-.2s0 .2-.2.3l-.4-.1v.3a7 7 0 0 1 2-.3 7 7 0 0 1 1.9.3v-.2Z" clip-rule="evenodd"/>
  <path fill="#211915" stroke="#211915" stroke-miterlimit="3.9" stroke-width=".1" d="M55 28a.1.1 0 1 0 0-.2.1.1 0 0 0 0 .3Zm.1-.3a.1.1 0 1 0 0-.3.1.1 0 0 0 0 .3Zm.3-.3a.1.1 0 1 0 0-.2.1.1 0 0 0 0 .2Zm.4-.1a.1.1 0 1 0 0-.2.1.1 0 0 0 0 .2Zm.4 0a.1.1 0 1 0 0-.2.1.1 0 0 0 0 .2Z"/>
  <path stroke="#211915" stroke-miterlimit="3.9" stroke-width=".2" d="M54 28.8v-.3c0-.5.3-.8.7-.8h.3m.3.5V28c0-.3.3-.6.6-.6l.5.1"/>
  <path fill="#211915" stroke="#211915" stroke-miterlimit="3.9" stroke-width=".1" d="M53.8 28.5a.1.1 0 1 0 0-.2.1.1 0 0 0 0 .2Zm0-.5a.1.1 0 1 0 0-.1.1.1 0 0 0 0 .2Zm.3-.2a.1.1 0 1 0 0-.3.1.1 0 0 0 0 .3Zm.4-.2a.1.1 0 1 0 0-.3.1.1 0 0 0 0 .3Zm.3 0a.1.1 0 1 0 0-.2.1.1 0 0 0 0 .2Z"/>
  <path fill="none" fill-rule="evenodd" stroke="#211915" stroke-miterlimit="3.9" stroke-width=".1" d="M56.7 28.6v.1a.3.3 0 0 0 .6.1c.1.2.2.3.4.3.1 0 .3-.1.3-.3v-.1h.1v.2a.3.3 0 0 0 .5.2V29c0 .2 0 .3.2.3l.2-.1.2-.2-.2.4h-.3l-.2-.1h-.2c-.1 0-.3 0-.3-.2l-.3.1-.4-.1-.2.1c-.2 0-.3 0-.4-.2a.4.4 0 0 1-.6 0c0 .2-.2.2-.3.2h-.3l-.4.1h-.2l-.2.2-.2-.1c-.2 0-.3-.3-.3-.3V29l.2.2h.3V29h.2a.3.3 0 0 0 .5 0v-.4c0 .3.2.4.4.4.1 0 .2-.1.2-.3a.3.3 0 0 0 .7 0v-.2Z" clip-rule="evenodd"/>
  <path fill="none" fill-rule="evenodd" stroke="#211915" stroke-miterlimit="3.9" stroke-width=".1" d="M56.7 29.4a7 7 0 0 0-2 .2v-.1a7 7 0 0 1 2-.3 7 7 0 0 1 2 .3s.1 0 0 0v.1a7 7 0 0 0-2-.2Z" clip-rule="evenodd"/>
  <path fill="none" stroke="#211915" stroke-miterlimit="3.9" stroke-width=".1" d="M56 29.8a.1.1 0 1 0 0-.2.1.1 0 0 0 0 .2Z"/>
  <path fill="#211915" fill-rule="evenodd" stroke="#211915" stroke-miterlimit="3.9" stroke-width=".1" d="M56.7 29.7h-.3v-.2h.6v.2h-.3Zm-1.2.1h-.3v-.1h.5l-.2.1Zm-.8.2.1-.2h.2l-.1.2h-.2Z" clip-rule="evenodd"/>
  <path fill="none" stroke="#211915" stroke-miterlimit="3.9" stroke-width=".1" d="M57.4 29.8a.1.1 0 1 0 0-.2.1.1 0 0 0 0 .2Z"/>
  <path fill="#211915" fill-rule="evenodd" stroke="#211915" stroke-miterlimit="3.9" stroke-width=".1" d="M58 29.8h.2v-.1h-.4l.2.1Zm.7.2v-.2h-.3l.1.2h.2Z" clip-rule="evenodd"/>
  <path fill="#211915" fill-rule="evenodd" d="m56.7 30.5-1.6-.2 1.6-.2c.6 0 1.2 0 1.7.2l-1.7.2Z" clip-rule="evenodd"/>
  <path fill="none" stroke="none" stroke-miterlimit="3.9" stroke-width=".1" d="M58.6 29h.1-.1v.2Zm-1.2-.2v-.2.2Zm-1.4-.2v.2h.1v-.2Zm-1.2.3v.1-.1Z"/>
  <path fill="none" fill-rule="evenodd" stroke="#211915" stroke-miterlimit="3.9" stroke-width=".1" d="m55.3 28.2-.2.1.2.3h.1l.1-.4h-.2Zm-.4.6.1.1.3-.2-.3-.1-.1.2Zm1-.2-.1.1h-.4l.3-.3.2.2Z" clip-rule="evenodd"/>
  <path fill="none" d="M56.7 27.4a.2.2 0 1 0 0-.5.2.2 0 0 0 0 .5Z"/>
  <path fill="none" fill-rule="evenodd" stroke="#211915" stroke-miterlimit="3.9" stroke-width=".2" d="M56.9 27v.2h-.4V27h.1v-.3h-.1v-.2h.1v-.1h.2v.1h.2v.2h-.2v.3Z" clip-rule="evenodd"/>
  <mask id="a" width="1" height="2" x="56" y="26" maskUnits="userSpaceOnUse" style="mask-type:luminance">
    <path fill="#fff" d="M56.7 27.3a.2.2 0 1 0 0-.4.2.2 0 0 0 0 .4Z"/>
  </mask>
  <g mask="url(#a)">
    <path fill="none" fill-rule="evenodd" stroke="#211915" stroke-miterlimit="3.9" stroke-width=".2" d="M57 27v.2h-.6V27h.2v-.3h-.1v-.2h.1v-.1h.2v.1h.2v.2h-.2v.3h.3Z" clip-rule="evenodd"/>
  </g>
  <path stroke="#211915" stroke-miterlimit="3.9" stroke-width=".2" d="m56.8 26.9.2.2a.2.2 0 1 1-.3-.2"/>
  <path fill="none" fill-rule="evenodd" stroke="#211915" stroke-miterlimit="3.9" stroke-width=".1" d="m56.7 28-.2.1.2.4.2-.4-.2-.1Zm-.5.6.1.1.4-.1v-.1l-.4-.1v.2Zm1 0-.1.1-.3-.1v-.1l.3-.1.1.2Zm-2.6.2v.2H54l.3-.3.2.1Zm3.6-.6.1.1-.2.3-.2-.4h.3Zm.3.6-.1.1-.3-.2.4-.1v.2Zm-.9-.2v.1h.4l-.3-.3-.1.2Zm1.2.2v.2h.4l-.2-.3-.2.1Z" clip-rule="evenodd"/>
  <path fill="none" stroke="#211915" stroke-miterlimit="3.9" stroke-width=".1" d="M56.7 28.7a.1.1 0 1 0 0-.3.1.1 0 0 0 0 .3ZM54 29l-.1-.2h-.2l.2-.1h.2v.3Zm5.3 0 .2-.2h.2l-.2-.1h-.2v.3Z"/>
  <path fill="#211915" stroke="#211915" stroke-miterlimit="3.9" stroke-width=".1" d="M58.4 28a.1.1 0 1 0 0-.2.1.1 0 0 0 0 .3Zm-.1-.3a.1.1 0 1 0 0-.3.1.1 0 0 0 0 .3Zm-.3-.3a.1.1 0 1 0 0-.2.1.1 0 0 0 0 .2Zm-.4-.1a.1.1 0 1 0 0-.2.1.1 0 0 0 0 .2Zm-.3 0a.1.1 0 1 0 0-.2.1.1 0 0 0 0 .2Zm2.3 1.2a.1.1 0 1 0 0-.2.1.1 0 0 0 0 .2Zm0-.5a.1.1 0 1 0 0-.1.1.1 0 0 0 0 .2Zm-.3-.2a.1.1 0 1 0 0-.3.1.1 0 0 0 0 .3Zm-.3-.2a.1.1 0 1 0 0-.3.1.1 0 0 0 0 .3Zm-.4 0a.1.1 0 1 0 0-.2.1.1 0 0 0 0 .2Z"/>
  <path fill="none" stroke="#211915" stroke-miterlimit="3.9" stroke-width=".1" d="M58 28.8a.1.1 0 1 0 0-.3.1.1 0 0 0 0 .3Zm-2.6 0a.1.1 0 1 0 0-.3.1.1 0 0 0 0 .3Zm-1.2.2h-.1v.1h.1V29Zm5.1.1V29h-.1v.1h.1Z"/>
  <path fill="#211915" fill-rule="evenodd" stroke="#211915" stroke-miterlimit="3.9" stroke-width=".2" d="m16 29.4-.3-.3-.2-.2-.2-.2s-.2-.3 0-.6c0-.2.2-.3.3-.4l.4-.2h.3l.3-.1.2-.1h.2l.3-.1H19l.4.1.8.2c.2 0 .2.1.3.2.2 0 .3.2.4.3v.8l-.2.3-.2.1-.3.2c-.1 0-1.3-.3-2-.3-.8 0-2 .3-2 .3Z" clip-rule="evenodd"/>
  <path fill="none" stroke="#211915" stroke-miterlimit="3.9" stroke-width=".2" d="M18 28.3c.2 0 .4-.3.4-.7 0-.4-.2-.7-.4-.7s-.3.3-.3.7c0 .4.1.7.3.7Z"/>
  <path fill="none" stroke="#211915" stroke-miterlimit="3.9" stroke-width=".2" d="m18 28.2.2-.6c0-.4 0-.6-.2-.6l-.1.6.1.6Z"/>
  <path fill="none" d="M18 27.1a.2.2 0 1 0 0-.5.2.2 0 0 0 0 .5Z"/>
  <path fill="none" fill-rule="evenodd" stroke="#211915" stroke-miterlimit="3.9" stroke-width=".2" d="M18.2 26.8v.1H18v-.8h.2v.2h.2v.1H18v.4h.1Z" clip-rule="evenodd"/>
  <mask id="b" width="2" height="2" x="17" y="26" maskUnits="userSpaceOnUse" style="mask-type:luminance">
    <path fill="#fff" d="M18 27.1a.2.2 0 1 0 0-.5.2.2 0 0 0 0 .5Z"/>
  </mask>
  <g mask="url(#b)">
    <path fill="none" fill-rule="evenodd" stroke="#211915" stroke-miterlimit="3.9" stroke-width=".2" d="M18.4 26.8v.1h-.7v-.1h.3v-.4h-.2v-.1h.2V26h.1v.2h.2v.1H18v.4h.3Z" clip-rule="evenodd"/>
  </g>
  <path stroke="#211915" stroke-miterlimit="3.9" stroke-width=".2" d="M18.1 26.6a.2.2 0 0 1 0 .5.2.2 0 0 1-.1-.5"/>
  <path fill="none" fill-rule="evenodd" stroke="#211915" stroke-miterlimit="3.9" stroke-width=".2" d="M18 29.3h-1.2v-.6l-.1-.4-.8-.8.1-.2c.3-.2 1 .3 1.4 1l.1.3h1.1v-.2c.6-.8 1.2-1.3 1.5-1l.1.1s-.4.3-.7.8l-.1.4v.6H18Z" clip-rule="evenodd"/>
  <path stroke="#211915" stroke-miterlimit="3.9" stroke-width=".1" d="M16 27.5c.2-.1.7.3 1.2 1m3-1c-.3-.1-.8.3-1.3 1"/>
  <path fill="none" fill-rule="evenodd" stroke="#211915" stroke-miterlimit="3.9" stroke-width=".2" d="m16.2 30-.1-.4a7 7 0 0 1 2-.2 7 7 0 0 1 2 .2l-.2.3v.2L18 30c-.7 0-1.4 0-1.7.2V30Z" clip-rule="evenodd"/>
  <path fill="none" fill-rule="evenodd" stroke="#211915" stroke-miterlimit="3.9" stroke-width=".2" d="m18 30.6 1.6-.2c.2 0 .3-.1.3-.2l-.1-.1-1.7-.2c-.7 0-1.4 0-1.8.2v.1c-.1.1 0 .2.2.2l1.6.2Z" clip-rule="evenodd"/>
  <path fill="#211915" fill-rule="evenodd" d="M20 29.3v-.1h-.4c-.2 0-.2-.2-.2-.2l-.4.2c-.2 0-.3-.2-.3-.2l-.3.1-.4-.2s-.1.2-.3.2l-.3-.1-.3.2c-.2 0-.3-.2-.3-.2l-.3.3-.3-.1v.1H16v.2a7 7 0 0 1 2-.3 7 7 0 0 1 2 .3v-.2Z" clip-rule="evenodd"/>
  <path fill="none" fill-rule="evenodd" stroke="#211915" stroke-miterlimit="3.9" stroke-width=".1" d="M18 28.6h.1v.1a.3.3 0 0 0 .6.1c0 .2.2.3.3.3a.3.3 0 0 0 .3-.3v-.1h.1v.2a.3.3 0 0 0 .5.2V29c0 .2.1.3.2.3l.2-.1.2-.2s0 .3-.2.4h-.2l-.2-.1h-.2c-.2 0-.3 0-.4-.2l-.3.1-.3-.1-.3.1c-.1 0-.3 0-.3-.2a.4.4 0 0 1-.7 0c0 .2-.2.2-.3.2h-.3l-.4.1h-.2l-.2.2-.2-.1-.3-.3V29l.3.2h.2l.1-.1V29a.3.3 0 0 0 .6 0v-.4h.1c0 .3.1.4.3.4.1 0 .3-.1.3-.3a.3.3 0 0 0 .6 0v-.2Z" clip-rule="evenodd"/>
  <path fill="none" fill-rule="evenodd" stroke="#211915" stroke-miterlimit="3.9" stroke-width=".1" d="M18 29.4a7 7 0 0 0-2 .2v-.1a7 7 0 0 1 2-.3 7 7 0 0 1 2 .3h.1v.1a7 7 0 0 0-2-.2Z" clip-rule="evenodd"/>
  <path fill="none" stroke="#211915" stroke-miterlimit="3.9" stroke-width=".1" d="M17.4 29.8a.1.1 0 1 0 0-.2.1.1 0 0 0 0 .2Z"/>
  <path fill="#211915" fill-rule="evenodd" stroke="#211915" stroke-miterlimit="3.9" stroke-width=".1" d="M18 29.7h-.2v-.2h.5l.1.1v.1H18Zm-1.2.1h-.2v-.1h.4l-.2.1Zm-.8.2.2-.2h.1v.2H16Z" clip-rule="evenodd"/>
  <path fill="none" stroke="#211915" stroke-miterlimit="3.9" stroke-width=".1" d="M18.7 29.8a.1.1 0 1 0 0-.2.1.1 0 0 0 0 .2Z"/>
  <path fill="#211915" fill-rule="evenodd" stroke="#211915" stroke-miterlimit="3.9" stroke-width=".1" d="M19.3 29.8h.2v-.1h-.4l.2.1Zm.7.2v-.2h-.2v.2h.2Z" clip-rule="evenodd"/>
  <path fill="#211915" fill-rule="evenodd" d="m18 30.5-1.6-.2 1.7-.2c.6 0 1.2 0 1.6.2l-1.6.2Z" clip-rule="evenodd"/>
  <path fill="none" d="M20 29c-.1.1 0 .2 0 .2Z"/>
  <path fill="none" stroke="#211915" stroke-miterlimit="3.9" stroke-width=".1" d="M18.7 28.8v-.2.2Zm-1.3-.2v.2-.2Z"/>
  <path fill="none" d="M16.1 28.9v.1h.1l-.1-.1Z"/>
  <path fill="none" fill-rule="evenodd" stroke="#211915" stroke-miterlimit="3.9" stroke-width=".1" d="m18 28-.2.1.2.4h.1l.2-.4-.2-.1Zm-.4.6v.1l.4-.1v-.1l-.3-.1-.1.2Zm.9 0v.1l-.4-.1v-.1l.3-.1.1.2Zm-1.9-.4-.2.1.3.3.1-.4h-.2Zm-.4.6.2.1.3-.2-.4-.1v.2Zm1-.2v.1h-.4l.3-.3v.2Zm-1.3.2v.2h-.4l.2-.3.2.1Z" clip-rule="evenodd"/>
  <path fill="none" stroke="#211915" stroke-miterlimit="3.9" stroke-width=".1" d="M16.7 28.8a.1.1 0 1 0 0-.3.1.1 0 0 0 0 .3Z"/>
  <path fill="none" fill-rule="evenodd" stroke="#211915" stroke-miterlimit="3.9" stroke-width=".1" d="m19.5 28.2.2.1-.2.3h-.1l-.1-.4h.2Zm.4.6-.2.1-.3-.2.4-.1v.2Zm-.9-.2v.1h.3l-.3-.3v.2Zm1.2.2v.2h.4l-.3-.3-.1.1Z" clip-rule="evenodd"/>
  <path fill="none" stroke="#211915" stroke-miterlimit="3.9" stroke-width=".1" d="M18 28.7a.1.1 0 1 0 0-.3.1.1 0 0 0 0 .3Zm1.4.1a.1.1 0 1 0 0-.3.1.1 0 0 0 0 .3Zm-4 .2-.2-.2h-.1l.1-.1h.2v.3Zm.1 0h-.1v.1h.2V29Zm5.2 0 .1-.2h.2l-.1-.1h-.2v.3Zm-.1.1V29l-.1.1h.1Z"/>
  <path fill="#211915" fill-rule="evenodd" stroke="none" stroke-miterlimit="3.9" stroke-width=".5" d="M54.7 43.1c-.7.1-1.4.3-1.6.5-.2.4.5 1 1.6 1.7V43Zm4.1 1.7c1.2-.1 2-.5 2.1-1 0-.4-.3-.8-1-1.2h-1v2.2Zm-38.6-1.7c.7.1 1.2.3 1.5.5.2.4-.5 1-1.5 1.6v-2.1ZM16 44.8c-1.2-.1-2-.5-2.1-1 0-.4.3-.8 1-1.2h1v2.2Z" clip-rule="evenodd"/>
  <path fill="none" fill-rule="evenodd" stroke="#211915" stroke-miterlimit="3.9" stroke-width=".5" d="M15.8 33.2h4.5a.4.4 0 0 1-.2-.3l.2-.4h-4.5l.2.4c0 .1 0 .3-.2.3Z" clip-rule="evenodd"/>
  <path fill="none" fill-rule="evenodd" stroke="#211915" stroke-miterlimit="3.9" stroke-width=".5" d="M15.6 33.4c0-.1.1-.2.3-.2h4.3l.3.2-.3.2h-4.3c-.2 0-.3 0-.3-.2Zm0-1.1.3-.1h4.3l.3.1-.3.2h-4.3c-.2 0-.3 0-.3-.2Z" clip-rule="evenodd"/>
  <path fill="#211915" fill-rule="evenodd" stroke="#211915" stroke-miterlimit="3.9" stroke-width=".2" d="M22.1 59c-.4 0-.8 0-1-.2l-1-.2c-.4 0-.8 0-1 .2a2 2 0 0 1-1 .3c-.5 0-.8-.1-1-.3l-1-.2c-.4 0-.8 0-1 .2a2 2 0 0 1-1 .3v.6c.3 0 .7 0 1-.2.2-.2.6-.3 1-.3.3 0 .7.1 1 .3l1 .2c.3 0 .7 0 1-.2.2-.2.6-.3 1-.3s.7.1 1 .3l1 .2v-.6Z" clip-rule="evenodd"/>
  <path fill="none" fill-rule="evenodd" stroke="#211915" stroke-miterlimit="3.9" stroke-width=".2" d="M22.1 59.7c-.4 0-.8 0-1-.2-.3-.2-.6-.3-1-.3s-.8.1-1 .3l-1 .2c-.5 0-.8 0-1-.2a2 2 0 0 0-1-.3c-.4 0-.8.1-1 .3l-1 .2v.7a2 2 0 0 0 1-.3l1-.2c.3 0 .7 0 1 .2.2.2.5.3 1 .3a2 2 0 0 0 1-.3l1-.2c.4 0 .7 0 1 .2.2.2.6.3 1 .3v-.7Z" clip-rule="evenodd"/>
  <path fill="#211915" fill-rule="evenodd" stroke="#211915" stroke-miterlimit="3.9" stroke-width=".2" d="M22.1 60.4c-.4 0-.8-.1-1-.3l-1-.2c-.4 0-.8 0-1 .2a2 2 0 0 1-1 .3c-.5 0-.8-.1-1-.3l-1-.2c-.4 0-.8 0-1 .2a2 2 0 0 1-1 .3v.6c.3 0 .7 0 1-.2.2-.2.6-.2 1-.2.3 0 .7 0 1 .2l1 .2c.3 0 .7 0 1-.2l1-.2c.4 0 .7 0 1 .2l1 .2v-.6Z" clip-rule="evenodd"/>
  <path fill="none" fill-rule="evenodd" stroke="#211915" stroke-miterlimit="3.9" stroke-width=".2" d="M22 61.7a2 2 0 0 1-1-.2c-.2-.2-.5-.3-1-.3a2 2 0 0 0-1 .3l-1 .2c-.4 0-.7-.1-1-.3l-1-.2-1 .2c-.2.2-.6.3-1 .3V61c.4 0 .8 0 1-.2.3-.2.7-.2 1-.2.4 0 .8 0 1 .2l1 .2c.4 0 .8 0 1-.2l1-.2c.5 0 .8 0 1 .2l1.1.2v.7Z" clip-rule="evenodd"/>
  <path fill="#211915" fill-rule="evenodd" stroke="#211915" stroke-miterlimit="3.9" stroke-width=".2" d="M22 62.3a2 2 0 0 1-1-.2l-1-.2c-.3 0-.7 0-1 .2-.2.2-.6.2-1 .2s-.7 0-1-.2l-1-.2c-.3 0-.7 0-1 .2-.2.2-.6.2-1 .2v-.6c.4 0 .8-.1 1-.3l1-.2 1 .2c.3.2.6.3 1 .3l1-.2a2 2 0 0 1 1-.3c.5 0 .8.1 1 .3l1.1.2v.6Z" clip-rule="evenodd"/>
  <path fill="none" fill-rule="evenodd" stroke="#211915" stroke-miterlimit="3.9" stroke-width=".5" d="M15.8 56.3v.2c0 .4-.3.7-.7.7h6a.7.7 0 0 1-.8-.7v-.2h-4.5Z" clip-rule="evenodd"/>
  <path fill="#211915" fill-rule="evenodd" stroke="#211915" stroke-miterlimit="3.9" stroke-width=".2" d="M15.6 56.1s.1-.2.3-.2h4.3c.2 0 .3.1.3.2 0 .2-.1.3-.3.3H16c-.2 0-.3-.1-.3-.3Z" clip-rule="evenodd"/>
  <path fill="none" stroke="#211915" stroke-miterlimit="3.9" stroke-width=".5" d="M21 57.2h-5.9v1.6h6v-1.6Z"/>
  <path fill="#211915" fill-rule="evenodd" stroke="none" stroke-miterlimit="3.9" stroke-width=".5" d="M14.6 50.3c-.6.3-1 .7-.9.9 0 .2.2.3.5.5.4.3.7.8.5 1 .3-.2.5-.7.5-1.2s-.2-1-.6-1.2Z" clip-rule="evenodd"/>
  <path fill="none" d="M20.2 33.9h-4.3v21.8h4.3V33.9Z"/>
  <mask id="d" width="6" height="23" x="15" y="33" maskUnits="userSpaceOnUse" style="mask-type:luminance">
    <use xlink:href="#c"/>
  </mask>
  <g mask="url(#d)">
    <path stroke="#211915" stroke-miterlimit="3.9" stroke-width=".2" d="M19 33.3v23"/>
  </g>
  <mask id="e" width="6" height="23" x="15" y="33" maskUnits="userSpaceOnUse" style="mask-type:luminance">
    <use xlink:href="#c"/>
  </mask>
  <g mask="url(#e)">
    <path stroke="#211915" stroke-miterlimit="3.9" stroke-width=".2" d="M19.5 33.3v23"/>
  </g>
  <path stroke="#211915" stroke-miterlimit="3.9" stroke-width=".5" d="M20.2 33.9h-4.3v21.8h4.3V33.9Z"/>
  <path fill="#211915" fill-rule="evenodd" stroke="none" stroke-miterlimit="3.9" stroke-width=".2" d="M24.5 42a12.8 12.8 0 0 0-6.3-.5c-2.6.4-4.5 1.5-4.3 2.3v.1l-1-2.3c-.1-1 2-2.2 4.8-2.7l2.5-.2c1.8 0 3.3.3 4.2.6V42Z" clip-rule="evenodd"/>
  <path fill="#211915" fill-rule="evenodd" stroke="none" stroke-miterlimit="3.9" stroke-width=".5" d="M13.3 49c0-.4 1-1 2.7-1.7l2-1c2.3-1 4-2.2 3.7-2.6l.3 2.2c.2.4-1.3 1.6-3.3 2.6-.7.4-2 .9-2.8 1.1-1.1.5-2.3 1.3-2.2 1.6l-.4-2.2Z" clip-rule="evenodd"/>
  <path fill="none" fill-rule="evenodd" d="M15.7 41c.5-.2.8-.5.6-.9 0-.3-.3-.3-.7-.2l-.7.3.6 1.7.2-.1.2-.1-.2-.7Zm-.3-.8h.1c.2-.1.4 0 .4.1l-.1.5h-.2l-.2-.6Zm1.9-.7H17l.3 1.8 1.2-.2v-.3l-.8.2-.3-1.5Zm2.3 1.5.7-1.9a1.3 1.3 0 0 1-.3 0l-.5 1.4-.6-1.3h-.5l1 1.8h.2Zm2.4-1.4v-.2l-.4-.2c-.4 0-.7.2-.7.5-.1.6.8.6.8 1l-.4.2c-.2 0-.4-.1-.4-.3l-.2.3.5.1c.5 0 .8-.1.9-.4 0-.6-1-.7-.9-1 0-.1.1-.2.4-.2.2 0 .3.1.3.2Z" clip-rule="evenodd"/>
  <path fill="none" fill-rule="evenodd" stroke="#211915" stroke-miterlimit="3.9" stroke-width=".5" d="M59 33.2h-4.6c.2 0 .3-.2.3-.3 0-.2-.1-.4-.3-.4H59c-.2 0-.3.2-.3.4 0 .1.1.3.3.3Z" clip-rule="evenodd"/>
  <path fill="none" fill-rule="evenodd" stroke="#211915" stroke-miterlimit="3.9" stroke-width=".5" d="m54.3 33.4.2-.2H59l.2.2c0 .1 0 .2-.2.2h-4.4c-.1 0-.2 0-.2-.2Zm0-1.1.2-.1H59l.2.1c0 .1 0 .2-.2.2h-4.4c-.1 0-.2 0-.2-.2Z" clip-rule="evenodd"/>
  <path fill="none" stroke="#211915" stroke-miterlimit="3.9" stroke-width=".5" d="M59.6 30.6h-5.8v1.6h5.8v-1.6Z"/>
  <path fill="#211915" fill-rule="evenodd" stroke="#211915" stroke-miterlimit="3.9" stroke-width=".2" d="M52.7 59c.4 0 .7 0 1-.2l1-.2c.4 0 .8 0 1 .2.3.2.6.3 1 .3s.8-.1 1-.3l1-.2c.4 0 .8 0 1 .2.3.2.7.3 1 .3v.6c-.3 0-.7 0-1-.2-.2-.2-.6-.3-1-.3a2 2 0 0 0-1 .3l-1 .2c-.4 0-.7 0-1-.2-.2-.2-.6-.3-1-.3s-.7.1-1 .3a2 2 0 0 1-1 .2v-.6Z" clip-rule="evenodd"/>
  <path fill="none" fill-rule="evenodd" stroke="#211915" stroke-miterlimit="3.9" stroke-width=".2" d="M52.7 59.7c.4 0 .7 0 1-.2.3-.2.6-.3 1-.3s.8.1 1 .3l1 .2c.4 0 .8 0 1-.2a2 2 0 0 1 1-.3c.4 0 .8.1 1 .3l1 .2v.7a2 2 0 0 1-1-.3l-1-.2c-.3 0-.7 0-1 .2-.2.2-.6.3-1 .3s-.7-.1-1-.3l-1-.2c-.4 0-.7 0-1 .2a2 2 0 0 1-1 .3v-.7Z" clip-rule="evenodd"/>
  <path fill="#211915" fill-rule="evenodd" stroke="#211915" stroke-miterlimit="3.9" stroke-width=".2" d="M52.7 60.4c.4 0 .7-.1 1-.3l1-.2c.4 0 .8 0 1 .2.3.2.6.3 1 .3s.8-.1 1-.3l1-.2c.4 0 .8 0 1 .2.3.2.7.3 1 .3v.6c-.3 0-.7 0-1-.2-.2-.2-.6-.2-1-.2-.3 0-.7 0-1 .2l-1 .2c-.4 0-.7 0-1-.2l-1-.2c-.4 0-.7 0-1 .2a2 2 0 0 1-1 .2v-.6Z" clip-rule="evenodd"/>
  <path fill="none" fill-rule="evenodd" stroke="#211915" stroke-miterlimit="3.9" stroke-width=".2" d="m52.7 61.7 1-.2c.3-.2.6-.3 1-.3s.8.1 1 .3l1 .2c.4 0 .8-.1 1-.3l1-.2 1 .2c.3.2.7.3 1 .3V61c-.3 0-.7 0-1-.2-.2-.2-.6-.2-1-.2-.3 0-.7 0-1 .2l-1 .2c-.4 0-.7 0-1-.2l-1-.2c-.4 0-.7 0-1 .2l-1 .2v.7Z" clip-rule="evenodd"/>
  <path fill="#211915" fill-rule="evenodd" stroke="#211915" stroke-miterlimit="3.9" stroke-width=".2" d="M52.7 62.3c.4 0 .7 0 1-.2l1-.2c.4 0 .8 0 1 .2.3.2.6.2 1 .2s.8 0 1-.2l1-.2c.4 0 .8 0 1 .2.3.2.7.2 1 .2v-.6a2 2 0 0 1-1-.3l-1-.2-1 .2c-.2.2-.6.3-1 .3l-1-.2c-.2-.2-.6-.3-1-.3s-.7.1-1 .3l-1 .2v.6Z" clip-rule="evenodd"/>
  <path fill="none" fill-rule="evenodd" stroke="#211915" stroke-miterlimit="3.9" stroke-width=".5" d="M59 56.3v.2c0 .4.3.7.7.7h-6c.4 0 .8-.3.8-.7v-.2H59Z" clip-rule="evenodd"/>
  <path fill="#211915" fill-rule="evenodd" stroke="#211915" stroke-miterlimit="3.9" stroke-width=".2" d="M54.3 56.1s.1-.2.3-.2h4.3l.3.2c0 .2-.2.3-.3.3h-4.3c-.2 0-.3-.1-.3-.3Z" clip-rule="evenodd"/>
  <path fill="none" stroke="#211915" stroke-miterlimit="3.9" stroke-width=".5" d="M59.7 57.2h-6v1.6h6v-1.6Z"/>
  <path fill="#211915" fill-rule="evenodd" stroke="none" stroke-miterlimit="3.9" stroke-width=".2" d="M60.1 50.3c.6.3 1 .7 1 .9 0 .2-.3.3-.5.5-.4.3-.7.8-.5 1-.3-.2-.6-.7-.6-1.2s.3-1 .6-1.2Z" clip-rule="evenodd"/>
  <path fill="none" d="M58.8 33.9h-4.2v21.8h4.2V33.9Z"/>
  <mask id="g" width="5" height="23" x="54" y="33" maskUnits="userSpaceOnUse" style="mask-type:luminance">
    <use xlink:href="#f"/>
  </mask>
  <g mask="url(#g)">
    <path stroke="#211915" stroke-miterlimit="3.9" stroke-width=".2" d="M57.7 33.3v23"/>
  </g>
  <mask id="h" width="5" height="23" x="54" y="33" maskUnits="userSpaceOnUse" style="mask-type:luminance">
    <use xlink:href="#f"/>
  </mask>
  <g mask="url(#h)">
    <path stroke="#211915" stroke-miterlimit="3.9" stroke-width=".2" d="M58.1 33.3v23"/>
  </g>
  <path stroke="#211915" stroke-miterlimit="3.9" stroke-width=".5" d="M58.8 33.9h-4.2v21.8h4.2V33.9Z"/>
  <path fill="#211915" fill-rule="evenodd" stroke="none" stroke-miterlimit="3.9" stroke-width=".2" d="M50.3 42a12.8 12.8 0 0 1 6.3-.5c2.5.4 4.4 1.5 4.3 2.3v.1l1-2.3c.1-1-2-2.2-4.8-2.7l-2.5-.2c-1.8 0-3.3.3-4.3.6V42Z" clip-rule="evenodd"/>
  <path fill="#211915" fill-rule="evenodd" stroke="none" stroke-miterlimit="3.9" stroke-width=".5" d="M61.5 49c0-.4-1-1-2.7-1.7l-2-1c-2.3-1-4-2.2-3.8-2.6l-.2 2.2c-.2.4 1.3 1.6 3.3 2.6.7.4 2 .9 2.7 1.1 1.2.5 2.4 1.3 2.3 1.6l.4-2.2Z" clip-rule="evenodd"/>
  <path fill="none" fill-rule="evenodd" d="m53 41 .5-1.8a1.5 1.5 0 0 1-.2 0l-.4 1.4-.8-1.2h-.5l1.1 1.7h.3Zm1.6-1.8H54v1.7h1.1v-.2h-.7v-1.5Zm1.8.3h.5v-.1l-1.5-.2v.2h.5l-.1 1.6h.5v-1.5Zm.6 1.7h.3l.2.1.2-.8.1.3.2.7h.6v-.1l-.5-.8c.3 0 .6-.1.6-.4 0-.1 0-.3-.2-.4l-.4-.2-.7-.1-.4 1.7Zm.8-1.5c.2 0 .5.1.5.3v.2c-.1.2-.3.3-.6.2l.1-.7Zm2.2 2v.6l.2.1.2.2.2-2a.9.9 0 0 1-.2-.1l-1.7 1.1h.1l.2.1.4-.3.6.3Zm-.4-.4.5-.4v.7l-.5-.3Z" clip-rule="evenodd"/>
  <path d="M31.4 24a.6.6 0 1 0 0-1.1.6.6 0 0 0 0 1Z"/>
  <path fill="none" fill-rule="evenodd" stroke="#211915" stroke-miterlimit="3.9" stroke-width=".5" d="M37.2 18.6c1.7 0 3.3.2 4.3.7a9 9 0 0 0 2.2.5c.6.1 1.2.2 1.7.1.7 0 1.8.2 2.8.7.8.4 1.5.9 2 1.3l-.4.4-.1 1.1-1.1 1.3-.6.5-1.3 1.2H46l-.2.6-8.5-1-8.6 1-.2-.6h-.7l-1.3-1.2-.5-.5-1.1-1.3-.2-1-.4-.5c.5-.4 1.2-1 2-1.3 1-.5 2.1-.7 2.8-.7a8.3 8.3 0 0 0 4-.6c1-.5 2.4-.7 4.1-.7Z" clip-rule="evenodd"/>
  <path fill="none" fill-rule="evenodd" stroke="#211915" stroke-miterlimit="3.9" stroke-width=".5" d="M37.3 27.7c-3.2 0-6 .4-8.1 1 .2 0 .1-.2 0-.8-.3-.7-.7-.6-.7-.6a32.1 32.1 0 0 1 17.8 0s-.5 0-.7.6c-.2.6-.3.8 0 .9-2.1-.7-5-1.1-8.3-1.1Z" clip-rule="evenodd"/>
  <path fill="none" fill-rule="evenodd" stroke="#211915" stroke-miterlimit="3.9" stroke-width=".5" d="M37.3 26.1c-3.4 0-6.6.5-8.8 1.2-.2 0-.3 0-.4-.2 0-.2 0-.3.2-.4 2.3-.7 5.5-1.2 9-1.2 3.6 0 6.8.5 9 1.2.2 0 .3.2.3.4l-.4.2c-2.2-.7-5.4-1.2-8.9-1.2Zm.1 4.4c-3.2 0-6-.4-8.1-1-.2-.1-.2-.3-.2-.4 0-.2 0-.3.2-.4 2-.6 4.9-1 8-1 3.2 0 6 .4 8.1 1 .2 0 .2.2.2.4 0 .1 0 .3-.2.3-2 .7-4.9 1-8 1Z" clip-rule="evenodd"/>
  <path fill="none" fill-rule="evenodd" stroke="#211915" stroke-miterlimit="3.9" stroke-width=".5" d="M37.3 30c-2.8 0-5.4-.3-7.4-.9a29.5 29.5 0 0 1 14.9 0c-2 .6-4.6 1-7.5 1Z" clip-rule="evenodd"/>
  <path fill="none" stroke="#211915" stroke-miterlimit="3.9" stroke-width=".5" d="M35.1 27.2a.3.3 0 1 0 0-.5.3.3 0 0 0 0 .5Z"/>
  <path fill="none" fill-rule="evenodd" stroke="#211915" stroke-miterlimit="3.9" stroke-width=".5" d="M37.4 27.2h-.9a.3.3 0 0 1-.3-.3c0-.2.1-.3.3-.3h1.7a.3.3 0 1 1 0 .6h-.8Zm-4.4.2h-.5c-.2.1-.3 0-.4-.2 0-.1.1-.3.3-.3h.6l.6-.1c.2 0 .3 0 .3.2s0 .3-.2.3l-.6.1Z" clip-rule="evenodd"/>
  <path fill="none" stroke="#211915" stroke-miterlimit="3.9" stroke-width=".5" d="M30.9 27.8a.3.3 0 1 0 0-.6.3.3 0 0 0 0 .6Z"/>
  <path fill="none" fill-rule="evenodd" stroke="#211915" stroke-miterlimit="3.9" stroke-width=".5" d="m28.7 28 .3-.4h.9l-.7.6-.5-.2Zm12.9-.6h.6c.2.1.3 0 .4-.2 0-.1-.1-.3-.3-.3h-.6l-.6-.1a.3.3 0 1 0 0 .5l.5.1Z" clip-rule="evenodd"/>
  <path fill="none" stroke="#211915" stroke-miterlimit="3.9" stroke-width=".5" d="M39.6 27.2a.3.3 0 1 0 0-.5.3.3 0 0 0 0 .5Zm4.2.6a.3.3 0 1 0 0-.6.3.3 0 0 0 0 .6Z"/>
  <path fill="none" fill-rule="evenodd" stroke="#211915" stroke-miterlimit="3.9" stroke-width=".5" d="m46 28-.3-.4h-.9l.7.6.5-.2Z" clip-rule="evenodd"/>
  <path stroke="#211915" stroke-miterlimit="3.9" stroke-width=".5" d="M29.6 29.2c2-.6 4.7-1 7.7-1s5.8.4 7.8 1"/>
  <path fill="none" fill-rule="evenodd" stroke="#211915" stroke-miterlimit="3.9" stroke-width=".5" d="m31 21 .3.2.5-.9a2.1 2.1 0 0 1-1-2C31 17 32.3 16 34 16a4 4 0 0 1 2.3.7v-.5c-.6-.4-1.4-.6-2.3-.6-2 0-3.5 1.2-3.6 2.6a2.6 2.6 0 0 0 .8 2.1l-.3.5Z" clip-rule="evenodd"/>
  <path fill="none" fill-rule="evenodd" stroke="#211915" stroke-miterlimit="3.9" stroke-width=".5" d="M31 21a2.7 2.7 0 0 1-1.2-2.1c0-1 .6-1.8 1.5-2.3a2.5 2.5 0 0 0-1 2c0 .7.4 1.4 1 1.8l-.4.6Z" clip-rule="evenodd"/>
  <path fill="none" fill-rule="evenodd" stroke="#211915" stroke-miterlimit="3.9" stroke-width=".5" d="M25 21.9a2.6 2.6 0 0 1-.5-2.8c.6-1.2 2.3-2 4.4-2l1.6.1-.3.5-1.3-.2c-1.9 0-3.5.8-4 1.8a2.1 2.1 0 0 0 .6 2.5l-.7 1.2-.3-.3.4-.8Z" clip-rule="evenodd"/>
  <path fill="none" fill-rule="evenodd" stroke="#211915" stroke-miterlimit="3.9" stroke-width=".5" d="M25.6 18a3 3 0 0 0-1 1.1 2.6 2.6 0 0 0 .3 2.8l-.4.7a3 3 0 0 1-.6-1.8c0-1.2.7-2.2 1.7-2.8Zm11.7-2.6c.5 0 .9.3 1 .8v1.6c.1 1 .2 1.8.4 2.3l-1.4 1.4L36 20a8 8 0 0 0 .3-2.3v-.4l.2-1.2c0-.5.5-.8 1-.8Z" clip-rule="evenodd"/>
  <path fill="none" fill-rule="evenodd" stroke="#211915" stroke-miterlimit="3.9" stroke-width=".5" d="M37.3 15.9c.3 0 .5.1.5.4l.1 1.2v.3c0 .9.2 1.7.3 2.2l-.9.9-.9-1c.2-.4.3-1.2.3-2.1v-.3l.1-1.2c0-.3.3-.4.5-.4Zm6.4 5.1-.3.2-.6-.9a2.1 2.1 0 0 0 1-2c0-1.2-1.4-2.2-3.2-2.2a4 4 0 0 0-2.3.7v-.5c.6-.4 1.4-.6 2.3-.6 2 0 3.6 1.2 3.7 2.6a2.6 2.6 0 0 1-.9 2.1l.3.5Z" clip-rule="evenodd"/>
  <path fill="none" fill-rule="evenodd" stroke="#211915" stroke-miterlimit="3.9" stroke-width=".5" d="M43.7 21c.7-.6 1.1-1.3 1.1-2.1 0-1-.6-1.8-1.4-2.3a2.5 2.5 0 0 1 .9 2c0 .7-.4 1.4-.9 1.8l.3.6Z" clip-rule="evenodd"/>
  <path fill="none" fill-rule="evenodd" stroke="#211915" stroke-miterlimit="3.9" stroke-width=".5" d="M49.7 21.9a2.6 2.6 0 0 0 .4-2.8c-.6-1.2-2.3-2-4.4-2l-1.5.1.2.5 1.3-.2c2 0 3.5.8 4 1.8a2.1 2.1 0 0 1-.6 2.5l.7 1.2.4-.3-.5-.8Z" clip-rule="evenodd"/>
  <path fill="none" fill-rule="evenodd" stroke="#211915" stroke-miterlimit="3.9" stroke-width=".5" d="M49 18c.5.3.9.7 1 1.1a2.6 2.6 0 0 1-.3 2.8l.4.7a3 3 0 0 0 .7-1.8c0-1.2-.7-2.2-1.8-2.8Z" clip-rule="evenodd"/>
  <path fill="none" stroke="#211915" stroke-miterlimit="3.9" stroke-width=".5" d="M50.6 23.2a.3.3 0 1 0 0-.6.3.3 0 0 0 0 .6Zm.4-.7a.3.3 0 1 0 0-.6.3.3 0 0 0 0 .6Zm.2-.9a.3.3 0 1 0 0-.5.3.3 0 0 0 0 .5Zm0-.9a.3.3 0 1 0 0-.5.3.3 0 0 0 0 .5Zm-.2-.8a.3.3 0 1 0 0-.6.3.3 0 0 0 0 .6Zm-.4-.9a.3.3 0 1 0 0-.5.3.3 0 0 0 0 .5Zm-.6-.6a.3.3 0 1 0 0-.6.3.3 0 0 0 0 .6Zm-.7-.6a.3.3 0 1 0 0-.5.3.3 0 0 0 0 .5Zm-.8-.4a.3.3 0 1 0 0-.6.3.3 0 0 0 0 .6Zm-.8-.4a.3.3 0 1 0 0-.5.3.3 0 0 0 0 .6Zm-1-.1a.3.3 0 1 0 0-.6.3.3 0 0 0 0 .6Zm-.8-.1a.3.3 0 1 0 0-.5.3.3 0 0 0 0 .5Zm-.9.1a.3.3 0 1 0 0-.6.3.3 0 0 0 0 .6Zm-.9 0a.3.3 0 1 0 0-.6.3.3 0 0 0 0 .6Zm.4.8a.3.3 0 1 0 0-.6.3.3 0 0 0 0 .6Zm.2.8a.3.3 0 1 0 0-.5.3.3 0 0 0 0 .5Zm0 .9a.3.3 0 1 0 0-.6.3.3 0 0 0 0 .6Zm-.2.8a.3.3 0 1 0 0-.6.3.3 0 0 0 0 .6Zm-.5.8a.3.3 0 1 0 0-.6.3.3 0 0 0 0 .5Zm-.6-4.7a.3.3 0 1 0 0-.6.3.3 0 0 0 0 .6Zm-.7-.4a.3.3 0 1 0 0-.6.3.3 0 0 0 0 .6Zm-.9-.3a.3.3 0 1 0 0-.6.3.3 0 0 0 0 .6Zm-.8-.2a.3.3 0 1 0 0-.5.3.3 0 0 0 0 .5Zm-1 0a.3.3 0 1 0 0-.5.3.3 0 0 0 0 .5Zm-.9.2a.3.3 0 1 0 0-.6.3.3 0 0 0 0 .6Zm-.8.4a.3.3 0 1 0 0-.7.3.3 0 0 0 0 .6Zm-1 4.8a.5.5 0 1 0 0-1 .5.5 0 0 0 0 1Zm0-1a.5.5 0 1 0 0-1 .5.5 0 0 0 0 1Zm0-1.1a.4.4 0 1 0 0-.8.4.4 0 0 0 0 .8Zm0-1.1a.3.3 0 1 0 0-.6.3.3 0 0 0 0 .6Zm0-.9a.2.2 0 1 0 0-.4.2.2 0 0 0 0 .4ZM24 23.2a.3.3 0 1 0 0-.6.3.3 0 0 0 0 .6Zm-.3-.7a.3.3 0 1 0 0-.6.3.3 0 0 0 0 .6Zm-.3-.9a.3.3 0 1 0 0-.5.3.3 0 0 0 0 .5Zm0-.9a.3.3 0 1 0 0-.5.3.3 0 0 0 0 .5Zm.2-.8a.3.3 0 1 0 0-.6.3.3 0 0 0 0 .6Zm.4-.9a.3.3 0 1 0 0-.5.3.3 0 0 0 0 .5Zm.6-.6a.3.3 0 1 0 0-.6.3.3 0 0 0 0 .6Zm.7-.6a.3.3 0 1 0 0-.5.3.3 0 0 0 0 .5Zm.8-.4a.3.3 0 1 0 0-.6.3.3 0 0 0 0 .6Zm.9-.4a.3.3 0 1 0 0-.5.3.3 0 0 0 0 .6Zm.9-.1a.3.3 0 1 0 0-.6.3.3 0 0 0 0 .6Zm.9-.1a.3.3 0 1 0 0-.5.3.3 0 0 0 0 .5Zm.9.1a.3.3 0 1 0 0-.6.3.3 0 0 0 0 .6Zm.8 0a.3.3 0 1 0 0-.6.3.3 0 0 0 0 .6Zm-.4.8a.3.3 0 1 0 0-.6.3.3 0 0 0 0 .6Zm-.1.8a.3.3 0 1 0 0-.5.3.3 0 0 0 0 .5Zm-.1.9a.3.3 0 1 0 0-.6.3.3 0 0 0 0 .6Zm.2.8a.3.3 0 1 0 0-.6.3.3 0 0 0 0 .6Zm.5.8a.3.3 0 1 0 0-.6.3.3 0 0 0 0 .5Zm.6-4.7a.3.3 0 1 0 0-.6.3.3 0 0 0 0 .6Zm.8-.4a.3.3 0 1 0 0-.6.3.3 0 0 0 0 .6Zm.8-.3a.3.3 0 1 0 0-.6.3.3 0 0 0 0 .6Zm.9-.2a.3.3 0 1 0 0-.5.3.3 0 0 0 0 .5Zm.9 0a.3.3 0 1 0 0-.5.3.3 0 0 0 0 .5Zm.9.2a.3.3 0 1 0 0-.6.3.3 0 0 0 0 .6Zm.8.4a.3.3 0 1 0 0-.7.3.3 0 0 0 0 .6Z"/>
  <path fill="none" fill-rule="evenodd" stroke="#211915" stroke-miterlimit="3.9" stroke-width=".5" d="M37.4 23.2h.3v.5a1.3 1.3 0 0 0 2.4.4l.2-.4v.5c.1.6.7 1 1.3 1a1.3 1.3 0 0 0 1.3-1.4l.4-.4.2.5-.1.6a1.2 1.2 0 0 0 2.2.7l.2-.4v.4c0 .5.2.8.6.9 0 0 .5 0 1-.5l1-.9v.5s-.5.8-1 1.2l-1.1.3c-.4 0-.6-.4-.8-.8-.3.2-.6.3-1 .3-.6 0-1.3-.4-1.5-1-.4.3-.8.5-1.4.5-.6 0-1.1-.2-1.4-.7-.4.4-.8.6-1.3.6-.6 0-1.2-.4-1.5-.9a1.8 1.8 0 0 1-2.8.3c-.4.5-1 .7-1.5.7s-1-.2-1.3-.6c-.3.7-1 1-1.7 1-.3 0-.6 0-.9-.2a1 1 0 0 1-.8.8l-1-.3c-.6-.4-1.1-1.2-1.1-1.2v-.5l1 1c.6.4 1 .4 1 .4.4 0 .6-.4.6-.9v-.4l.2.4a1.2 1.2 0 0 0 2.3-.7c0-.2 0-.4-.2-.6l.3-.5.4.4a1.3 1.3 0 0 0 2.5.4v-.5l.2.4a1.3 1.3 0 0 0 2.5-.4v-.4h.3Z" clip-rule="evenodd"/>
  <path fill="none" stroke="#211915" stroke-miterlimit="3.9" stroke-width=".5" d="M45.7 25.2c.2 0 .3 0 .4-.3l-.1-.5c-.2 0-.4.1-.5.3 0 .3 0 .5.2.5Zm-5.5-1c.2 0 .3-.2.4-.4 0-.3-.1-.5-.3-.5-.1 0-.3.2-.3.4s0 .5.2.5Zm-5.8-.9c-.2 0-.3.2-.3.5 0 .2.2.4.4.4s.3-.3.2-.5c0-.2-.2-.4-.3-.4Zm-5.6 1.1c-.2 0-.3.3-.2.5 0 .2.3.4.4.3.2 0 .2-.2.2-.5-.1-.2-.3-.3-.4-.3Z"/>
  <path fill="none" fill-rule="evenodd" stroke="#211915" stroke-miterlimit="3.9" stroke-width=".5" d="M31 21c.3.2.5.5.6.8l.2-.1.3-.1v.3l-.2.7-.1.4a.5.5 0 0 0-.8.2l-.3-.4-.3-.6-.2-.3h.5l.3-.9Z" clip-rule="evenodd"/>
  <path fill="none" stroke="#211915" stroke-miterlimit="3.9" stroke-width=".5" d="m31.1 23.8-.1-.3v-.3s-.2-.2-.5-.2h-.9.1l.1.3c-.3 0-.6.3-.8.5.3.2.6.3 1 .3v.4l.2-.1s.4-.1.5-.3l.4-.3Zm.8-.1a.5.5 0 0 0-.1-.7l.3-.3.6-.3h.3l-.1.3c.3 0 .7.1 1 .3-.2.3-.5.5-.8.6a1.8 1.8 0 0 0 .2.3h-1l-.4-.2Z"/>
  <path fill="none" stroke="#211915" stroke-miterlimit="3.9" stroke-width=".5" d="M31.4 24a.6.6 0 1 0 0-1.1.6.6 0 0 0 0 1Z"/>
  <path fill="none" fill-rule="evenodd" stroke="#211915" stroke-miterlimit="3.9" stroke-width=".5" d="M37.3 20.1c.3.3.5.7.5 1h.3c.2-.2.3-.1.3-.1l-.1.4-.2.6-.3.5a.6.6 0 0 0-.9 0l-.3-.5-.2-.6-.1-.4h.3c.2 0 .3.2.3.2 0-.4.2-.8.4-1Z" clip-rule="evenodd"/>
  <path fill="none" stroke="#211915" stroke-miterlimit="3.9" stroke-width=".5" d="M37 23.2a.6.6 0 0 1 0-.7l-.6-.3-.6-.2h-.4v.1l.2.3c-.4 0-.8.2-1 .5l1 .5-.1.2v.2h.3l.6-.2.5-.4Zm.8 0a.6.6 0 0 0 0-.7l.5-.3.6-.2h.4v.1l-.2.3c.4 0 .8.2 1 .5l-1 .5a2 2 0 0 0 .2.4h-.4l-.6-.2-.5-.4Z"/>
  <path fill="none" fill-rule="evenodd" stroke="#211915" stroke-miterlimit="3.9" stroke-width=".5" d="M43.7 21c-.3.2-.5.5-.6.8l-.2-.1-.3-.1.1.3v.7l.3.4a.5.5 0 0 1 .7.2l.3-.4.3-.6.2-.3H44l-.3-.9Z" clip-rule="evenodd"/>
  <path fill="none" stroke="#211915" stroke-miterlimit="3.9" stroke-width=".5" d="m43.6 23.8.2-.3v-.3s.1-.2.4-.2h.8l-.2.3c.3 0 .6.3.8.5-.3.2-.6.3-1 .3v.2l.1.2-.3-.1s-.4-.1-.5-.3l-.4-.3Zm-.7-.1a.5.5 0 0 1 0-.7l-.3-.3-.6-.3h-.3l.1.3a2 2 0 0 0-1 .3c.3.3.5.5.9.6l-.2.2v.1h.9l.5-.2Z"/>
  <path fill="none" stroke="#211915" stroke-miterlimit="3.9" stroke-width=".5" d="M43.3 24a.6.6 0 1 0 0-1.1.6.6 0 0 0 0 1Zm5.6 1.3c.2-.2.2-.5 0-.6 0-.2-.3-.2-.5 0s-.3.5-.2.6c.2.2.4.1.7 0Z"/>
  <path fill="none" stroke="#211915" stroke-miterlimit="3.9" stroke-width=".5" d="M48.2 25s0-.2.2-.3c.2-.2.5-.2.6 0 0 0 .3-.5.7-.7.3-.2.9-.2.9-.2 0-.4-.4-.8-.8-.8a1 1 0 0 0-.7.3V23s-.4.1-.5.5c-.2.5 0 1 0 1l-.2-.4-.7-.4a3 3 0 0 1-.3-.2v.4a2 2 0 0 0-1 .1c0 .3.3.5.6.6l-.2.2v.2h1.4Zm-21.9-.3c-.2-.2-.4-.2-.6 0-.1.1 0 .4.2.6.2.1.4.2.6 0 .1-.1 0-.4-.2-.6Z"/>
  <path fill="none" stroke="#211915" stroke-miterlimit="3.9" stroke-width=".5" d="M26.5 25s0-.2-.2-.3c-.2-.2-.4-.2-.6 0L25 24c-.4-.2-1-.2-1-.2 0-.4.4-.8.8-.8.3 0 .5.1.7.3V23s.4.1.5.5c.2.5 0 1 0 1l.2-.4.7-.4.3-.2v.4l1 .1c0 .3-.3.5-.6.6l.2.2.1.2h-1.5Zm10.8-1.6a.6.6 0 1 0 0-1 .6.6 0 0 0 0 1Z"/>
  <path fill="none" d="M37.3 15.5a1.1 1.1 0 1 0 0-2.3 1.1 1.1 0 0 0 0 2.3Z"/>
  <mask id="k" width="3" height="3" x="36" y="13" maskUnits="userSpaceOnUse" style="mask-type:luminance">
    <mask id="j" width="3" height="3" x="36" y="13" maskUnits="userSpaceOnUse" style="mask-type:luminance">
      <use xlink:href="#i"/>
    </mask>
    <g mask="url(#j)">
      <use xlink:href="#i"/>
    </g>
  </mask>
  <g mask="url(#k)">
    <path fill="#A07E00" fill-rule="evenodd" stroke="#211915" stroke-miterlimit="3.9" stroke-width=".1" d="M38.7 14.2v.6H36v-.6h1v-1.8h-.7v-.7h.6v-.6h.7v.6h.6v.7h-.6v1.8h1Z" clip-rule="evenodd"/>
  </g>
  <path fill="none" fill-rule="evenodd" stroke="#211915" stroke-miterlimit="3.9" stroke-width=".5" d="M38.1 14.2v.6h-1.5v-.6h.4v-1.8h-.6v-.7h.6v-.6h.7v.6h.6v.7h-.6v1.8h.4Z" clip-rule="evenodd"/>
  <mask id="l" width="3" height="3" x="36" y="13" maskUnits="userSpaceOnUse" style="mask-type:luminance">
    <use xlink:href="#i"/>
  </mask>
  <g mask="url(#l)">
    <path fill="none" fill-rule="evenodd" stroke="#211915" stroke-miterlimit="3.9" stroke-width=".5" d="M38.7 14.2v.6H36v-.6h1v-1.8h-.7v-.7h.6v-.6h.7v.6h.6v.7h-.6v1.8h1Z" clip-rule="evenodd"/>
  </g>
  <path stroke="#211915" stroke-miterlimit="3.9" stroke-width=".5" d="M37.7 13.2a1.1 1.1 0 1 1-.7 0"/>
  <path fill="none" fill-rule="evenodd" stroke="#211915" stroke-miterlimit="3.9" stroke-width=".7" d="M37.4 62.8c-3.3 0-6.7-.9-9.5-2.3a6.5 6.5 0 0 1-3.5-5.8v-9.2h26v9.2c0 2.5-1.4 4.7-3.4 5.8a21 21 0 0 1-9.6 2.3Z" clip-rule="evenodd"/>
  <path fill="none" stroke="#211915" stroke-miterlimit="3.9" stroke-width=".7" d="M50.4 30.3h-13v15.2h13V30.3Zm-13 0h-13v15.2h13V30.3Z"/>
  <path d="M31 61.2a6.5 6.5 0 1 0 0-13 6.5 6.5 0 0 0 0 13Z"/>
  <path d="M44 61.2a6.5 6.5 0 1 0 0-13 6.5 6.5 0 0 0 0 13Z"/>
  <path fill="#211915" d="M37.4 54.6a6.5 6.5 0 1 1-13 0v-9h13v9Z"/>
  <mask id="n" width="14" height="17" x="24" y="45" maskUnits="userSpaceOnUse" style="mask-type:luminance">
    <use xlink:href="#m"/>
  </mask>
  <g mask="url(#n)">
    <path fill="none" stroke="#211915" stroke-miterlimit="3.9" stroke-width=".2" d="M28.8 45.2h-1.6V62h1.6V45Z"/>
  </g>
  <mask id="o" width="14" height="17" x="24" y="45" maskUnits="userSpaceOnUse" style="mask-type:luminance">
    <use xlink:href="#m"/>
  </mask>
  <g mask="url(#o)">
    <path fill="none" stroke="#211915" stroke-miterlimit="3.9" stroke-width=".2" d="M25.9 45.2h-1.6V62H26V45Z"/>
  </g>
  <mask id="p" width="14" height="17" x="24" y="45" maskUnits="userSpaceOnUse" style="mask-type:luminance">
    <use xlink:href="#m"/>
  </mask>
  <g mask="url(#p)">
    <path fill="none" stroke="#211915" stroke-miterlimit="3.9" stroke-width=".2" d="M31.7 45.2H30V62h1.6V45Z"/>
  </g>
  <mask id="q" width="14" height="17" x="24" y="45" maskUnits="userSpaceOnUse" style="mask-type:luminance">
    <use xlink:href="#m"/>
  </mask>
  <g mask="url(#q)">
    <path fill="none" stroke="#211915" stroke-miterlimit="3.9" stroke-width=".2" d="M34.6 45.2H33V62h1.6V45Z"/>
  </g>
  <mask id="r" width="14" height="17" x="24" y="45" maskUnits="userSpaceOnUse" style="mask-type:luminance">
    <use xlink:href="#m"/>
  </mask>
  <g mask="url(#r)">
    <path fill="none" stroke="#211915" stroke-miterlimit="3.9" stroke-width=".2" d="M37.5 45.2h-1.6V62h1.6V45Z"/>
  </g>
  <path stroke="#211915" stroke-miterlimit="3.9" stroke-width=".7" d="M37.4 54.6a6.5 6.5 0 1 1-13 0v-9h13v9Z"/>
  <path fill="none" fill-rule="evenodd" stroke="#211915" stroke-miterlimit="3.9" stroke-width=".7" d="M50.4 45.5v9.1a6.5 6.5 0 0 1-13 0v-9h13Z" clip-rule="evenodd"/>
  <path fill="#211915" fill-rule="evenodd" stroke="#211915" stroke-miterlimit="3.9" stroke-width=".1" d="M44.5 58.7a4 4 0 0 0 1-.3l.2.4-1.1.4a.7.7 0 0 1-1.4 0l-1.2-.4.2-.4c.3.2.7.3 1 .3l.4-.4v-1.9h.5v2c.2 0 .4.1.4.3ZM43.3 53v-.1H42v-.5h1.1L42 50.5l.3-.3 1.4 1.6v-2.1h.5v2l1.4-1.5.3.3-1.3 1.6v.1h1.1v.5h-1l-.1.1 1.2 1.5-.3.3-1.2-1.5H44v2.5h-.5v-2.5l-1.3 1.5-.3-.3 1.3-1.5Zm-3.5-4.7 1.6 1.9.4-.3-1.7-2h1.3v-.5h-1.2a.7.7 0 0 0-1.4.2c0 .3.2.6.5.7v1.5h.4v-1.5Zm1.8 9.9-.3.4-1-1c-.2.2-.4.1-.6 0a.7.7 0 0 1-.1-1v-.1c-.1-.4-.3-.9-.3-1.4h.4l.3 1.2h.4l1.1-1.2.3.2-1 1.3v.8c.2.3.4.6.8.8Zm-2.3-3.8v-1a.7.7 0 0 1 0-1.4v-1.5h.4V52c.2 0 .4.2.5.4h1.2v.5h-1.2l-.5.4v1.1h-.4Zm.6 2.4a.3.3 0 1 1 .5.4.3.3 0 0 1-.5-.4Zm-.5-1.3h-.5V54l.4-.2v1.5Zm.3-1.5.5.1a21 21 0 0 0 0 1.2l-.4.2V54Zm1.5 4 1.3.6.1-.4a2 2 0 0 1-1-.6l-.4.3Zm-.2.3c.4.3.8.6 1.3.7l-.3.4a5 5 0 0 1-1.1-.6l.1-.5Zm.6-2.7.4.2.8-.9-.2-.4-1 1.1Zm-.3-.3-.3-.4.8-.9.4.2-1 1.1Zm-2.1-2.7a.3.3 0 1 1 .6 0 .3.3 0 0 1-.6 0Zm7 5.6.2.4 1-1c.2.2.4.1.6 0 .3-.3.3-.8 0-1v-.1c.2-.4.4-.9.4-1.4H48l-.3 1.2h-.4L46.2 55l-.3.2 1 1.3v.8c-.2.3-.4.6-.8.8Zm2.2-3.8v-1a.7.7 0 0 0 0-1.4v-1.5H48V52c-.2 0-.4.2-.5.4h-1.2v.5h1.2l.5.4v1.1h.4Zm-.6 2.4a.3.3 0 1 0-.5.4.3.3 0 0 0 .5-.4Zm.5-1.3h.5V54l-.4-.2v1.5ZM48 54l-.5.1v1.2l.4.2V54Zm.4-5.7v1.5H48v-1.5h-.1L46.2 50l-.3-.3 1.7-2h-1.3v-.5h1.2a.7.7 0 0 1 1.4.2c0 .3-.2.6-.5.7Zm-4.3 0v.9h-.5v-1a.7.7 0 0 1-.4-.4H42v-.4h1a.7.7 0 0 1 1.4 0h1.1v.4h-1l-.5.5Zm2.4 9.6c-.4.3-.9.6-1.3.7l-.1-.4a2 2 0 0 0 1-.6l.4.3Zm.2.4c-.4.3-.8.6-1.3.7l.3.4a5 5 0 0 0 1-.6v-.5Zm-7.4-9-.5.2v1.2l.5.2v-1.5Zm.4 0 .5.2v1.2l-.5.2v-1.5Zm8.3 0-.5.2v1.2l.5.2v-1.5Zm.4 0 .5.2v1.2l-.5.2v-1.5Zm-2.3 6.3-.4.2-.8-.9.2-.4 1 1.1Zm.3-.3.3-.4-.8-.9-.4.2 1 1.1Zm-4.9-5.7.4-.2.8 1-.2.3-1-1Zm-.3.3-.3.4.8 1 .4-.3-1-1.1Zm5-.3-.5-.2-.8 1 .3.3 1-1.1Zm.3.3.3.4-.8.9-.5-.2 1-1.1ZM41 52.3l.1-.4h1.3v.4H41Zm0 .5.1.4h1.3v-.4H41Zm-1.8-5.3a.3.3 0 1 1 .6 0 .3.3 0 0 1-.6 0Zm3.3.2-.2.5h-1.2l-.1-.5h1.5Zm0-.4-.2-.5h-1.2l-.1.5h1.5Zm5.4 5.2a.3.3 0 1 1 .6 0 .3.3 0 0 1-.6 0Zm-1.2-.2-.1-.4h-1.2l-.2.4h1.5Zm0 .5-.1.4h-1.2l-.2-.4h1.5ZM43.6 59a.3.3 0 1 1 .6 0 .3.3 0 0 1-.6 0Zm.5-2.2.4-.1v-1.3h-.4v1.4Zm-.5 0-.4-.1v-1.3h.4v1.4Zm4.3-9.3a.3.3 0 1 1 .6 0 .3.3 0 0 1-.6 0Zm-4.4 0a.3.3 0 1 1 .7 0 .3.3 0 0 1-.7 0Zm1.7.2.2.5h1.2l.1-.5h-1.5Zm0-.4.2-.5h1.2l.1.5h-1.5Zm-1.6 1.4-.4.1v1.3h.4v-1.4Zm.5 0 .4.1v1.3h-.4v-1.4Z" clip-rule="evenodd"/>
  <path fill="none" stroke="#211915" stroke-miterlimit="3.9" stroke-width=".9" d="M43.9 53.3a.7.7 0 1 0 0-1.5.7.7 0 0 0 0 1.5Z"/>
  <path fill="#211915" fill-rule="evenodd" stroke="#211915" stroke-miterlimit="3.9" stroke-width=".2" d="M44 34v-.2h-.6l-.6-.4-.4-.3h-.6l.4.4.5.5H44Z" clip-rule="evenodd"/>
  <path fill="#211915" fill-rule="evenodd" stroke="#211915" stroke-miterlimit="3.9" stroke-width=".2" d="M46 33.4v1.1l.1.3-.2-.2-.1-.1a19.9 19.9 0 0 0 .1.6l.3.4v.4s0-.2-.2-.3l-.3-.1.2.4-.1.4s0-.2-.2-.3l-.3-.2.1.5v.7l-.2-.3-.3-.2.2.3c0 .2 0 .7.5 1.3.2.4.6 1 1.4.8.8-.2.5-1.3.3-1.9l-.2-1.3.1-1V34l.3-.7.1-.4v-.3l.2.4v.4s0-.3.3-.5l.6-.4v-.1l-.1.7-.5.6.3-.1h.3l-.4.4-.3.7-.4.4c-.3.2-.2 1.2-.1 1.3L48 38c0 .3 0 1-.4 1.3-.3.3-.8.3-1 .3l-.2.8c0 .5.1.6.3.7 0 .2.3 0 .3.2l.1.2s.1.1 0 .2l-.2.5-.3.7v.4l.2.3h-.5l-.1-.1v-.2l-.2.1v.2l-.3-.1-.2-.1c0-.1 0-.3.2-.3.1 0 .2 0 .1-.1 0-.1-.1-.1-.2 0l-.2-.1v-.5c.2 0 .3.1.4 0l.3-.1v-.4l-.3-.2v-.3.6s-.2 0-.3-.2l-.1-.4v.6l-.2-.2-.3-.3-.1-.4v-.7h-.7v.9l.2.6-.2.2h-.9l-.3-.2-.2.2-.1.2h-.3s-.2 0-.2-.2l.1-.2v-.1h-.1l-.2.1c-.1 0-.2 0-.2-.3v-.3c.2 0 .4.1.4 0V41c-.1 0-.2 0-.1-.2l.2-.1s0-.2.2-.2l.1.4c.2.2.3.2.6.2l.3-.1v-.6l-.2.2v.2-.6L43 40v.2l-.1.3s-.2-.1-.2-.4v-.5c.1-.1.3-.5.6-.5h1.4l-1-.6-.5-.6-.2-.5-.2.1-.4.3-.2.3v-.6s0 .4-.2.5l-.4.3v-.5s0 .2-.2.2-.5 0-.5.2v.4l-.2.1h-.2c0-.1-.2 0-.2 0v-.2c0-.1.2-.2.1-.3h-.2c0 .1-.2.2-.2 0v-.4h.4c0-.1 0-.2-.2-.2s-.3-.2-.2-.2l.1-.2.2-.2c.2.1.1.3.3.3h.6l.3-.3.5-.3-.3-.2-.3-.3-.5-.2-.4-.1.2-.1.2-.2h-.3l-.3-.2H40h.4l.3-.1s-.3 0-.3-.2l-.2-.2-.1-.2h-.3l-.2-.1v-.1c0-.1-.2-.3 0-.3h.3l-.2-.3s-.2 0-.2-.2l.2-.1c0-.1.1-.3.2-.2l.3.3.1-.3v-.2h.3l.3.1c0 .1 0 .2-.2.3v.4c0 .2.2.4.3.4l.4.3c.2 0 .5.3.6.4h1.2c.2-.1.4-.2.3-.3 0-.2-.4-.3-.3-.4l.3-.1c.2 0 .5 0 .5-.3s0-.5-.2-.5c-.3 0-.5-.1-.5-.3v-.3l.3-.1.5-.1s0-.2.2-.3h.4l.7.4.6.6Z" clip-rule="evenodd"/>
  <path fill="#211915" fill-rule="evenodd" stroke="#211915" stroke-miterlimit="3.9" stroke-width=".1" d="M43.3 33.2V33h.1v.1l-.1.1Z" clip-rule="evenodd"/>
  <path fill="none" fill-rule="evenodd" d="M44.3 32.8h.3c.2 0 .2.3.2.3l-.2-.1h-.1c-.1-.1 0-.2 0-.2h-.2Z" clip-rule="evenodd"/>
  <path stroke="#211915" stroke-miterlimit="3.9" stroke-width=".1" d="m45.8 34.5-.2-.2v-.1"/>
  <path fill="#211915" fill-rule="evenodd" stroke="#211915" stroke-miterlimit="3.9" stroke-width=".2" d="M40.4 33.2h.4V33c0-.3-.3-.4-.3-.4v.3l-.1.3Zm-.6.3s-.1-.3-.3-.2c-.3 0-.4.2-.4.2h.3l.1.3.2-.2.1-.1Zm-.3.8s-.2 0-.3.2c-.1.1 0 .4 0 .4s0-.2.2-.2h.3l-.1-.2v-.2Z" clip-rule="evenodd"/>
  <path fill="#211915" fill-rule="evenodd" stroke="#211915" stroke-miterlimit="3.9" stroke-width=".1" d="M43.3 34.3V34l.2.2h-.2Zm.2 0 .1-.2.1.2h-.2Zm-.1-.9h.2l-.2.2v-.2Zm.3 0h.2l-.2.2v-.2Z" clip-rule="evenodd"/>
  <path stroke="#211915" stroke-miterlimit="3.9" stroke-width=".2" d="m42.2 35.2-.2.1-.1.3s.1-.1.4 0h.6l-.1.3v.3l-.1.5.2-.1.5-.2.2-.3v.8l.3-.1.2-.2.1-.3.1.4.2.4s0-.2.2-.3l.1-.3v-.2l.1.2"/>
  <path stroke="#211915" stroke-miterlimit="3.9" stroke-width=".2" d="M42 36.7s0-.3.2-.3l.3-.2.3-.2m.2 1.4.4-.2c.2 0 .3-.3.3-.3"/>
  <path fill="#211915" fill-rule="evenodd" stroke="#211915" stroke-miterlimit="3.9" stroke-width=".2" d="M40.2 37h-.3c-.2 0-.3.3-.3.3h.5V37Zm-.2.9h-.3l-.2.4h.5v-.4Zm.3.7.1.4.3.1v-.4h-.4Z" clip-rule="evenodd"/>
  <path stroke="#211915" stroke-miterlimit="3.9" stroke-width=".2" d="M44.7 39s.5.3.5.6-.3.7-.3.7"/>
  <path fill="#211915" fill-rule="evenodd" stroke="#211915" stroke-miterlimit="3.9" stroke-width=".2" d="M42.2 40.6s0-.2-.3-.2c-.2 0-.3.2-.3.2h.2l.2.2h.1l.1-.2Zm-.5.7-.4.1c-.1.2 0 .4 0 .4s0-.2.2-.2l.3.1v-.2l-.1-.2Zm.5.8s-.1.2 0 .4l.2.2v-.3l.2-.2h-.4Zm3.2.4h-.3l-.2.4.3-.2.2.1v-.3Zm.1.8v.6l.1-.3h.3l-.2-.2-.2-.1Zm.8.3v.3l.4.2-.1-.4.1-.2h-.4Z" clip-rule="evenodd"/>
  <path fill="none" fill-rule="evenodd" stroke="#211915" stroke-miterlimit="3.9" stroke-width=".5" d="M38 58.7c.6.2.9.6.9 1.1 0 .7-.6 1.2-1.4 1.2-.8 0-1.4-.5-1.4-1.2 0-.5.3-1 .8-1v-.2l-.2-.2h.3l.2.2.1-.2.2-.2.2.2v.2l.2-.2h.3l-.1.1v.2Z" clip-rule="evenodd"/>
  <path fill="#211915" fill-rule="evenodd" stroke="#211915" stroke-miterlimit="3.9" stroke-width=".2" d="M37.4 61.7s-1-.7-1.5-.8c-.6-.2-1.2 0-1.5 0l.5.3c.1.2.6.5.9.5.8.3 1.6 0 1.6 0Z" clip-rule="evenodd"/>
  <path fill="#211915" fill-rule="evenodd" stroke="#211915" stroke-miterlimit="3.9" stroke-width=".2" d="m37.2 62.3.2-.7V61h.1l.2.6v.6h-.3l-.2.1Z" clip-rule="evenodd"/>
  <path fill="#211915" fill-rule="evenodd" stroke="#211915" stroke-miterlimit="3.9" stroke-width=".2" d="M37.7 61.8s.7-.8 1.3-.9c.9 0 1.4.1 1.7.2l-.4.2c-.1.1-.5.5-1 .5h-1.7Zm-.2-.9c-.3-.3-.4-.7-.4-1 0-.5.1-.8.4-1 .3.2.4.5.4 1 0 .3-.1.7-.4 1Z" clip-rule="evenodd"/>
  <path fill="none" stroke="#211915" stroke-miterlimit="3.9" stroke-width=".5" d="M21 30.6h-5.8V32H21v-1.5Z"/>
  <path stroke="#211915" stroke-miterlimit="3.9" stroke-width=".4" d="M27.8 37.5H34"/>
  <path stroke="#211915" stroke-miterlimit="3.9" stroke-width=".2" d="M28.2 34.4H30m1.8 0h1.7M30 33h2"/>
  <path fill="#211915" fill-rule="evenodd" stroke="#211915" stroke-miterlimit="3.9" stroke-width=".4" d="M34.6 43.4h-7.4v-2h1v-4h-.4v-1.7h.8v-1.3h-.4v-.9h.4v.3h.3v-.3h.4v.3h.4v-.3h.3v1h-.4v1.2h.8V33h-.5v-1h.3v.2h.5V32h.5v.2h.4V32h.3v1h-.5v2.7h.7v-1.3h-.3v-.9h.3v.3h.4v-.3h.4v.3h.3v-.3h.3v1h-.3v1.2h.9v1.8h-.6v4h1v2Z" clip-rule="evenodd"/>
  <path fill="#211915" fill-rule="evenodd" stroke="#211915" stroke-miterlimit="3.9" stroke-width=".4" d="M28.7 38.8c0-.4.3-.7.6-.7.4 0 .7.3.7.7v1h-1.3v-1Z" clip-rule="evenodd"/>
  <path fill="none" fill-rule="evenodd" d="M29 38.8c0-.2.1-.3.3-.3.2 0 .3.1.3.3v.8H29v-.8Z" clip-rule="evenodd"/>
  <path fill="#211915" fill-rule="evenodd" stroke="#211915" stroke-miterlimit="3.9" stroke-width=".4" d="M31.8 38.8c0-.4.3-.7.7-.7.3 0 .6.3.6.7v1h-1.3v-1Z" clip-rule="evenodd"/>
  <path fill="none" fill-rule="evenodd" d="M32.2 38.8c0-.2.1-.3.3-.3.2 0 .3.1.3.3v.8h-.6v-.8Z" clip-rule="evenodd"/>
  <path fill="none" fill-rule="evenodd" stroke="#211915" stroke-miterlimit="3.9" stroke-width=".4" d="M30.2 42.2c0-.4.3-.7.7-.7.4 0 .7.3.7.7v1.2h-1.4v-1.2Z" clip-rule="evenodd"/>
  <path stroke="#211915" stroke-miterlimit="3.9" stroke-width=".2" d="M28.3 34.4H30m1.8 0h1.8M30 33h2"/>
  <path fill="none" stroke="#211915" stroke-miterlimit="3.9" stroke-width=".7" d="M37.4 50.5c2.4 0 4.2-2.3 4.2-5 0-2.8-1.8-5-4.2-5-2.3 0-4.2 2.2-4.2 5 0 2.7 1.9 5 4.2 5Z"/>
  <path fill="none" stroke="#211915" stroke-miterlimit="3.9" stroke-width=".5" d="M37.4 49.1c1.7 0 3-1.6 3-3.6s-1.3-3.7-3-3.7c-1.6 0-3 1.6-3 3.7 0 2 1.4 3.6 3 3.6Z"/>
  <path fill="#211915" fill-rule="evenodd" stroke="#211915" stroke-miterlimit="3.9" stroke-width=".1" d="M36 43s-.3.3-.3.7l.1.7a.4.4 0 0 0-.7.1v.2l.2.3.2-.1a.3.3 0 0 1 .3.3h-.3v.3h.2l-.2.4h.3l.2.2.2-.3.3.1-.2-.4h.3v-.3h-.3c0-.2 0-.3.2-.3l.3.1.1-.3v-.2a.4.4 0 0 0-.7-.1s.2-.3.2-.7c0-.4-.4-.8-.4-.8Z" clip-rule="evenodd"/>
  <path fill="#211915" stroke="#211915" stroke-miterlimit="3.9" stroke-width=".1" d="M36.6 45.2h-1.1v.3h1v-.3Z"/>
  <path fill="#211915" fill-rule="evenodd" stroke="#211915" stroke-miterlimit="3.9" stroke-width=".1" d="M38.8 43s-.4.3-.4.7c0 .4.2.7.2.7a.4.4 0 0 0-.8.1v.2l.2.3.3-.1a.3.3 0 0 1 .2.3h-.3v.3h.3l-.2.4h.3l.2.2.2-.3.3.1-.2-.4h.2v-.3H39c0-.2.1-.3.3-.3l.3.1v-.3l.1-.2a.4.4 0 0 0-.7-.1l.1-.7c0-.4-.3-.8-.3-.8Z" clip-rule="evenodd"/>
  <path fill="#211915" stroke="#211915" stroke-miterlimit="3.9" stroke-width=".1" d="M39.3 45.2h-1v.3h1v-.3Z"/>
  <path fill="#211915" fill-rule="evenodd" stroke="#211915" stroke-miterlimit="3.9" stroke-width=".1" d="M37.4 45.4s-.3.4-.3.8l.1.7a.4.4 0 0 0-.8.1l.1.2.1.3.3-.1a.3.3 0 0 1 .3.3h-.4v.3h.3l-.2.4h.3l.2.2.2-.3.3.1-.2-.4h.3v-.3h-.3a.3.3 0 0 1 .2-.3l.3.1.1-.3V47a.4.4 0 0 0-.7-.1s.2-.3.2-.7c0-.4-.4-.8-.4-.8Z" clip-rule="evenodd"/>
  <path fill="#211915" stroke="#211915" stroke-miterlimit="3.9" stroke-width=".1" d="M38 47.7h-1.2v.3H38v-.3Z"/>
  <path fill="#211915" fill-rule="evenodd" stroke="#211915" stroke-miterlimit="3.9" stroke-width=".1" d="m45.8 32.2-.1.1c0 .1-.2.1-.2 0h-.2v-.4h-.1l-.2.1c-.2 0-.3-.3-.3-.4v.8l.7.4.6.7.3-.2h.4s-.4 0-.4-.2v-.3h-.4v-.2h-.1v-.4Z" clip-rule="evenodd"/>
  <path fill="none" d="M45.3 32.4c0 .1 0 .1 0 0Z"/>
  <path fill="none" fill-rule="evenodd" d="M45.5 32.6h-.1.2v.1h-.1Zm-.5-.3h.1Z" clip-rule="evenodd"/>
  <path fill="none" d="M44.8 32.1c0 .1 0 .1 0 0Zm.9.7Z"/>
  <path fill="none" fill-rule="evenodd" d="M46 33c0 .1 0 .1 0 0h-.1Z" clip-rule="evenodd"/>
  <path fill="none" d="M46.1 33.2Z"/>
  <path fill="#211915" fill-rule="evenodd" stroke="#211915" stroke-miterlimit="3.9" stroke-width=".1" d="M45.5 31.6h-.2v.2h.2v-.2Zm-.5.1v.2h.3l-.1-.2H45Zm.5.3-.1.1-.1-.2h.2v.1Z" clip-rule="evenodd"/>
  <path fill="#211915" stroke="#211915" stroke-miterlimit="3.9" stroke-width=".1" d="M45.3 32v-.2.2Zm-.6-.4-.1-.2-.1-.1h.2c.1.1 0 .2 0 .2v.1Z"/>
  <path fill="#211915" fill-rule="evenodd" stroke="#211915" stroke-miterlimit="3.9" stroke-width=".1" d="M45 31.7h-.4v-.1h.3Z" clip-rule="evenodd"/>
  <path fill="#211915" stroke="#211915" stroke-miterlimit="3.9" stroke-width=".1" d="M44.7 31.5v.2-.2Z"/>
  <path fill="#211915" fill-rule="evenodd" stroke="#211915" stroke-miterlimit="3.9" stroke-width=".1" d="M46 32v.2h.2V32Zm-.4 0v.2h.2V32h-.2Zm.4.4-.2-.1h.3v.1Z" clip-rule="evenodd"/>
  <path fill="#211915" stroke="#211915" stroke-miterlimit="3.9" stroke-width=".1" d="M45.8 32.3v-.1.1Z"/>
  <path fill="#211915" fill-rule="evenodd" stroke="#211915" stroke-miterlimit="3.9" stroke-width=".1" d="M46.6 32.5v.1l-.2.1v-.2h.2Zm-.1.5h-.1l-.1-.3h.3v.2Zm-.4-.5v.1l.2.1v-.2H46Z" clip-rule="evenodd"/>
  <path fill="#211915" stroke="#211915" stroke-miterlimit="3.9" stroke-width=".1" d="M46.3 32.8v-.2.2Zm.4.5h.4l-.1-.2-.2.1Z"/>
  <path fill="#211915" fill-rule="evenodd" stroke="#211915" stroke-miterlimit="3.9" stroke-width=".1" d="m46.6 33-.1.1.2.2V33h-.1Z" clip-rule="evenodd"/>
  <path fill="#211915" stroke="#211915" stroke-miterlimit="3.9" stroke-width=".1" d="M46.6 33.3h.1v-.1Z"/>
  <path stroke="#211915" stroke-miterlimit="3.9" stroke-width="2" d="M132.6 1v75"/>
</svg>