<?xml version="1.0" encoding="UTF-8" standalone="no"?>
<!-- Created with Inkscape (http://www.inkscape.org/) -->

<svg
   width="58.307724mm"
   height="25.439682mm"
   viewBox="0 0 58.307724 25.439682"
   version="1.1"
   id="svg1"
   xmlns="http://www.w3.org/2000/svg"
   xmlns:svg="http://www.w3.org/2000/svg">
  <defs
     id="defs1">
    <clipPath
       clipPathUnits="userSpaceOnUse"
       id="clipPath219">
      <path
         d="M 0.16,0.64 V 1122.5601 H 793.76001 V 0.64 Z"
         transform="translate(-547.88,-795.91999)"
         clip-rule="evenodd"
         id="path219" />
    </clipPath>
    <clipPath
       clipPathUnits="userSpaceOnUse"
       id="clipPath221">
      <path
         d="M 0.16,0.64 V 1122.5601 H 793.76001 V 0.64 Z"
         transform="translate(-555.57001,-803.45002)"
         clip-rule="evenodd"
         id="path221" />
    </clipPath>
    <clipPath
       clipPathUnits="userSpaceOnUse"
       id="clipPath223">
      <path
         d="M 0.16,0.64 V 1122.5601 H 793.76001 V 0.64 Z"
         transform="translate(-568.22998,-799.45002)"
         clip-rule="evenodd"
         id="path223" />
    </clipPath>
    <clipPath
       clipPathUnits="userSpaceOnUse"
       id="clipPath225">
      <path
         d="M 0.16,0.64 V 1122.5601 H 793.76001 V 0.64 Z"
         transform="translate(-574.15002,-800.40998)"
         clip-rule="evenodd"
         id="path225" />
    </clipPath>
    <clipPath
       clipPathUnits="userSpaceOnUse"
       id="clipPath227">
      <path
         d="M 0.16,0.64 V 1122.5601 H 793.76001 V 0.64 Z"
         transform="translate(-583.28003,-792.71998)"
         clip-rule="evenodd"
         id="path227" />
    </clipPath>
    <clipPath
       clipPathUnits="userSpaceOnUse"
       id="clipPath229">
      <path
         d="M 0.16,0.64 V 1122.5601 H 793.76001 V 0.64 Z"
         transform="translate(-590.48999,-797.20002)"
         clip-rule="evenodd"
         id="path229" />
    </clipPath>
    <clipPath
       clipPathUnits="userSpaceOnUse"
       id="clipPath231">
      <path
         d="M 0.16,0.64 V 1122.5601 H 793.76001 V 0.64 Z"
         transform="translate(-594.34003,-800.40998)"
         clip-rule="evenodd"
         id="path231" />
    </clipPath>
    <clipPath
       clipPathUnits="userSpaceOnUse"
       id="clipPath233">
      <path
         d="M 0.16,0.64 V 1122.5601 H 793.76001 V 0.64 Z"
         transform="translate(-607.64001,-792.71998)"
         clip-rule="evenodd"
         id="path233" />
    </clipPath>
    <clipPath
       clipPathUnits="userSpaceOnUse"
       id="clipPath235">
      <path
         d="M 0.16,0.64 V 1122.5601 H 793.76001 V 0.64 Z"
         transform="translate(-616.45001,-795.59998)"
         clip-rule="evenodd"
         id="path235" />
    </clipPath>
    <clipPath
       clipPathUnits="userSpaceOnUse"
       id="clipPath237">
      <path
         d="M 0.16,0.64 V 1122.5601 H 793.76001 V 0.64 Z"
         transform="translate(-621.89001,-800.40998)"
         clip-rule="evenodd"
         id="path237" />
    </clipPath>
    <clipPath
       clipPathUnits="userSpaceOnUse"
       id="clipPath239">
      <path
         d="M 0.16,0.64 V 1122.5601 H 793.76001 V 0.64 Z"
         transform="translate(-631.03003,-792.71998)"
         clip-rule="evenodd"
         id="path239" />
    </clipPath>
    <clipPath
       clipPathUnits="userSpaceOnUse"
       id="clipPath241">
      <path
         d="M 0.16,0.64 V 1122.5601 H 793.76001 V 0.64 Z"
         transform="translate(-639.20001,-796.56)"
         clip-rule="evenodd"
         id="path241" />
    </clipPath>
    <clipPath
       clipPathUnits="userSpaceOnUse"
       id="clipPath243">
      <path
         d="M 0.16,0.64 V 1122.5601 H 793.76001 V 0.64 Z"
         transform="translate(-548.20001,-818.83002)"
         clip-rule="evenodd"
         id="path243" />
    </clipPath>
    <clipPath
       clipPathUnits="userSpaceOnUse"
       id="clipPath245">
      <path
         d="M 0.16,0.64 V 1122.5601 H 793.76001 V 0.64 Z"
         transform="translate(-558.92999,-815.78998)"
         clip-rule="evenodd"
         id="path245" />
    </clipPath>
    <clipPath
       clipPathUnits="userSpaceOnUse"
       id="clipPath247">
      <path
         d="M 0.16,0.64 V 1122.5601 H 793.76001 V 0.64 Z"
         transform="translate(-575.91998,-820.43)"
         clip-rule="evenodd"
         id="path247" />
    </clipPath>
    <clipPath
       clipPathUnits="userSpaceOnUse"
       id="clipPath249">
      <path
         d="M 0.16,0.64 V 1122.5601 H 793.76001 V 0.64 Z"
         transform="translate(-584.89001,-819.63001)"
         clip-rule="evenodd"
         id="path249" />
    </clipPath>
    <clipPath
       clipPathUnits="userSpaceOnUse"
       id="clipPath251">
      <path
         d="M 0.16,0.64 V 1122.5601 H 793.76001 V 0.64 Z"
         transform="translate(-593.38,-814.82001)"
         clip-rule="evenodd"
         id="path251" />
    </clipPath>
    <clipPath
       clipPathUnits="userSpaceOnUse"
       id="clipPath253">
      <path
         d="M 0.16,0.64 V 1122.5601 H 793.76001 V 0.64 Z"
         transform="translate(-596.09998,-816.59003)"
         clip-rule="evenodd"
         id="path253" />
    </clipPath>
    <clipPath
       clipPathUnits="userSpaceOnUse"
       id="clipPath255">
      <path
         d="M 0.16,0.64 V 1122.5601 H 793.76001 V 0.64 Z"
         transform="translate(-602.83002,-812.73999)"
         clip-rule="evenodd"
         id="path255" />
    </clipPath>
    <clipPath
       clipPathUnits="userSpaceOnUse"
       id="clipPath257">
      <path
         d="M 0.16,0.64 V 1122.5601 H 793.76001 V 0.64 Z"
         transform="translate(-611,-817.39002)"
         clip-rule="evenodd"
         id="path257" />
    </clipPath>
    <clipPath
       clipPathUnits="userSpaceOnUse"
       id="clipPath260">
      <path
         d="M 0.16,0.64 V 1122.5601 H 793.76001 V 0.64 Z"
         transform="translate(-491.48999,-753.95002)"
         clip-rule="evenodd"
         id="path260" />
    </clipPath>
    <clipPath
       clipPathUnits="userSpaceOnUse"
       id="clipPath262">
      <path
         d="M 0.16,0.64 V 1122.5601 H 793.76001 V 0.64 Z"
         transform="translate(-489.07999,-745.78003)"
         clip-rule="evenodd"
         id="path262" />
    </clipPath>
    <clipPath
       clipPathUnits="userSpaceOnUse"
       id="clipPath264">
      <path
         d="M 0.16,0.64 V 1122.5601 H 793.76001 V 0.64 Z"
         transform="translate(-493.25,-744.02002)"
         clip-rule="evenodd"
         id="path264" />
    </clipPath>
    <clipPath
       clipPathUnits="userSpaceOnUse"
       id="clipPath266">
      <path
         d="M 0.16,0.64 V 1122.5601 H 793.76001 V 0.64 Z"
         transform="translate(-494.04999,-738.41999)"
         clip-rule="evenodd"
         id="path266" />
    </clipPath>
    <clipPath
       clipPathUnits="userSpaceOnUse"
       id="clipPath268">
      <path
         d="M 0.16,0.64 V 1122.5601 H 793.76001 V 0.64 Z"
         transform="translate(-499.34,-737.29999)"
         clip-rule="evenodd"
         id="path268" />
    </clipPath>
    <clipPath
       clipPathUnits="userSpaceOnUse"
       id="clipPath270">
      <path
         d="M 0.16,0.64 V 1122.5601 H 793.76001 V 0.64 Z"
         transform="translate(-512.95001,-742.26001)"
         clip-rule="evenodd"
         id="path270" />
    </clipPath>
    <clipPath
       clipPathUnits="userSpaceOnUse"
       id="clipPath272">
      <path
         d="M 0.16,0.64 V 1122.5601 H 793.76001 V 0.64 Z"
         transform="translate(-517.76001,-743.38001)"
         clip-rule="evenodd"
         id="path272" />
    </clipPath>
    <clipPath
       clipPathUnits="userSpaceOnUse"
       id="clipPath274">
      <path
         d="M 0.16,0.64 V 1122.5601 H 793.76001 V 0.64 Z"
         transform="translate(-522.09003,-744.82001)"
         clip-rule="evenodd"
         id="path274" />
    </clipPath>
    <clipPath
       clipPathUnits="userSpaceOnUse"
       id="clipPath276">
      <path
         d="M 0.16,0.64 V 1122.5601 H 793.76001 V 0.64 Z"
         transform="translate(-525.92999,-746.75)"
         clip-rule="evenodd"
         id="path276" />
    </clipPath>
    <clipPath
       clipPathUnits="userSpaceOnUse"
       id="clipPath278">
      <path
         d="M 0.16,0.64 V 1122.5601 H 793.76001 V 0.64 Z"
         transform="translate(-505.57999,-741.78003)"
         clip-rule="evenodd"
         id="path278" />
    </clipPath>
    <clipPath
       clipPathUnits="userSpaceOnUse"
       id="clipPath280">
      <path
         d="M 0.16,0.64 V 1122.5601 H 793.76001 V 0.64 Z"
         transform="translate(-491.01001,-789.35999)"
         clip-rule="evenodd"
         id="path280" />
    </clipPath>
    <clipPath
       clipPathUnits="userSpaceOnUse"
       id="clipPath282">
      <path
         d="M 0.16,0.64 V 1122.5601 H 793.76001 V 0.64 Z"
         transform="translate(-487.95999,-776.85999)"
         clip-rule="evenodd"
         id="path282" />
    </clipPath>
  </defs>
  <g
     id="layer1"
     transform="translate(-84.402085,-138.18937)">
    <g
       id="g1"
       transform="matrix(0.60874731,0,0,0.60874731,41.299996,60.374183)">
      <path
         id="path218"
         d="M 0,0 H 2.88 L 1.44,-4.32 Z M 3.52,1.93 H -0.8 L -1.6,4.49 H -3.85 L 0.32,-6.56 h 2.4 L 6.73,4.49 H 4.48 Z"
         style="fill:#1d1d1b;fill-opacity:1;fill-rule:nonzero;stroke:none"
         transform="matrix(0.62755097,0,0,0.62755097,107.97444,143.14455)"
         clip-path="url(#clipPath219)" />
      <path
         id="path220"
         d="m 0,0 1.76,-4 -3.2,-6.73 H 0.8 l 2.08,4.48 1.76,-4.48 H 6.73 L 2.08,0 Z"
         style="fill:#1d1d1b;fill-opacity:1;fill-rule:nonzero;stroke:none"
         transform="matrix(0.62755097,0,0,0.62755097,112.80031,147.87003)"
         clip-path="url(#clipPath221)" />
      <path
         id="path222"
         d="m 0,0 c -0.49,0.8 -1.29,1.12 -2.09,1.12 -1.76,0 -2.88,-1.44 -2.88,-3.05 v -4.8 h 2.08 v 4.32 c 0,0.97 0.32,1.61 1.28,1.61 0.96,0 1.45,-0.64 1.45,-1.45 v -4.48 h 2.08 v 6.25 c 0,0.64 0,1.12 0,1.44 L 0,0.96 C 0,0.8 0,0.32 0,0 Z"
         style="fill:#1d1d1b;fill-opacity:1;fill-rule:nonzero;stroke:none"
         transform="matrix(0.62755097,0,0,0.62755097,120.74507,145.35983)"
         clip-path="url(#clipPath223)" />
      <path
         id="path224"
         d="m 0,0 h -2.08 v -7.69 h 1.92 v 0.96 c 0.48,-0.8 1.44,-1.28 2.25,-1.28 1.76,0 2.56,1.44 2.56,3.04 V 0 H 2.73 v -4.49 c 0,-0.96 -0.48,-1.6 -1.45,-1.6 -0.8,0 -1.28,0.8 -1.28,1.6 z"
         style="fill:#1d1d1b;fill-opacity:1;fill-rule:nonzero;stroke:none"
         transform="matrix(0.62755097,0,0,0.62755097,124.46021,145.96226)"
         clip-path="url(#clipPath225)" />
      <path
         id="path226"
         d="M 0,0 H 1.45 V 1.76 H 0 v 3.2 c 0,0.64 0.33,0.96 0.81,0.96 0.32,0 0.48,0 0.64,-0.16 V 7.53 C 1.29,7.69 0.97,7.69 0.33,7.69 -1.12,7.69 -2.08,6.89 -2.08,5.44 V 1.76 H -3.36 V 0 h 0.32 c 0.8,0 1.12,-0.64 1.12,-1.28 V -2.41 H 0 Z"
         style="fill:#1d1d1b;fill-opacity:1;fill-rule:nonzero;stroke:none"
         transform="matrix(0.62755097,0,0,0.62755097,130.18977,141.13639)"
         clip-path="url(#clipPath227)" />
      <path
         id="path228"
         d="M 0,0 V -0.32 L -1.6,0 c -0.64,0 -0.96,0.32 -0.96,0.97 0,0.48 0.32,0.8 0.96,0.8 C -0.8,1.77 0,1.45 0,0 Z m -2.4,-1.28 1.92,-0.32 c 0.32,0 0.48,-0.16 0.48,-0.48 0,-0.64 -0.32,-0.96 -1.28,-0.96 -0.8,0 -1.28,0.48 -1.44,1.12 l -1.76,-0.32 c 0.16,-1.12 1.28,-2.56 3.2,-2.56 2.41,0 3.21,1.44 3.21,2.88 v 3.85 c 0,0.48 0.16,0.96 0.16,1.28 H 0.16 c 0,-0.32 0,-0.64 0,-0.96 -0.32,0.64 -1.12,1.12 -2.24,1.12 -1.6,0 -2.56,-1.12 -2.56,-2.24 0,-1.45 0.96,-2.25 2.24,-2.41 z"
         style="fill:#1d1d1b;fill-opacity:1;fill-rule:nonzero;stroke:none"
         transform="matrix(0.62755097,0,0,0.62755097,134.71437,143.94785)"
         clip-path="url(#clipPath229)" />
      <path
         id="path230"
         d="m 0,0 v -7.69 h 1.92 v 0.96 c 0.48,-0.8 1.44,-1.28 2.24,-1.28 0.97,0 1.77,0.48 2.25,1.28 0.48,-0.96 1.28,-1.28 2.24,-1.28 1.44,0 2.72,0.96 2.72,3.04 V 0 H 9.45 v -4.65 c 0,-0.8 -0.48,-1.44 -1.28,-1.44 -0.96,0 -1.44,0.64 -1.44,1.6 V 0 H 4.81 v -4.65 c 0,-0.8 -0.49,-1.44 -1.45,-1.44 -0.8,0 -1.28,0.64 -1.28,1.6 V 0 Z"
         style="fill:#1d1d1b;fill-opacity:1;fill-rule:nonzero;stroke:none"
         transform="matrix(0.62755097,0,0,0.62755097,137.13047,145.96226)"
         clip-path="url(#clipPath231)" />
      <path
         id="path232"
         d="M 0,0 H 1.92 V 7.69 H 0 Z m 0.96,-3.85 c 0.64,0 1.28,0.64 1.28,1.28 0,0.65 -0.64,1.29 -1.28,1.29 -0.64,0 -1.28,-0.64 -1.28,-1.29 0,-0.64 0.64,-1.28 1.28,-1.28 z"
         style="fill:#1d1d1b;fill-opacity:1;fill-rule:nonzero;stroke:none"
         transform="matrix(0.62755097,0,0,0.62755097,145.47688,141.13639)"
         clip-path="url(#clipPath233)" />
      <path
         id="path234"
         d="m 0,0 c 0,-0.8 -0.48,-1.44 -1.76,-1.44 -0.97,0 -1.61,0.8 -1.61,1.44 z m 1.92,2.57 c -0.48,1.28 -1.6,2.4 -3.52,2.4 -1.93,0 -3.85,-1.44 -3.85,-4.17 0,-2.4 1.76,-4 3.69,-4 2.4,0 3.68,1.6 3.68,4 0,0.32 0,0.64 0,0.64 h -5.29 c 0,0.97 0.8,1.77 1.77,1.77 0.96,0 1.6,-0.48 1.76,-1.12 z"
         style="fill:#1d1d1b;fill-opacity:1;fill-rule:nonzero;stroke:none"
         transform="matrix(0.62755097,0,0,0.62755097,151.0056,142.94372)"
         clip-path="url(#clipPath235)" />
      <path
         id="path236"
         d="m 0,0 h -2.08 v -7.69 h 1.92 v 0.96 c 0.49,-0.8 1.45,-1.28 2.25,-1.28 1.76,0 2.72,1.44 2.72,3.04 V 0 H 2.73 v -4.49 c 0,-0.96 -0.48,-1.6 -1.44,-1.6 -0.8,0 -1.29,0.8 -1.29,1.6 z"
         style="fill:#1d1d1b;fill-opacity:1;fill-rule:nonzero;stroke:none"
         transform="matrix(0.62755097,0,0,0.62755097,154.41947,145.96226)"
         clip-path="url(#clipPath237)" />
      <path
         id="path238"
         d="M 0,0 H 1.45 V 1.76 H 0 v 3.2 c 0,0.64 0.33,0.96 0.81,0.96 0.32,0 0.48,0 0.64,-0.16 V 7.53 C 1.29,7.69 0.97,7.69 0.33,7.69 -1.12,7.69 -2.08,6.89 -2.08,5.44 V 1.76 H -3.36 V 0 h 0.32 c 0.8,0 1.12,-0.64 1.12,-1.28 V -2.41 H 0 Z"
         style="fill:#1d1d1b;fill-opacity:1;fill-rule:nonzero;stroke:none"
         transform="matrix(0.62755097,0,0,0.62755097,160.15531,141.13639)"
         clip-path="url(#clipPath239)" />
      <path
         id="path240"
         d="m 0,0 c 0,-1.44 -0.8,-2.24 -1.93,-2.24 -0.96,0 -1.76,0.8 -1.76,2.24 0,1.44 0.8,2.08 1.76,2.08 C -0.8,2.08 0,1.44 0,0 Z m 2.08,0 c 0,2.24 -1.76,4.01 -4.01,4.01 -2.24,0 -3.84,-1.77 -3.84,-4.01 0,-2.4 1.6,-4.16 3.84,-4.16 2.25,0 4.01,1.76 4.01,4.16 z"
         style="fill:#1d1d1b;fill-opacity:1;fill-rule:nonzero;stroke:none"
         transform="matrix(0.62755097,0,0,0.62755097,165.28239,143.5462)"
         clip-path="url(#clipPath241)" />
      <path
         id="path242"
         d="m 0,0 c 1.12,0 1.92,-0.8 1.92,-2.24 0,-1.44 -0.8,-2.09 -1.92,-2.09 -0.96,0 -1.76,0.65 -1.76,2.09 C -1.76,-0.8 -0.96,0 0,0 Z m 3.84,0.16 c 0,0.64 0,1.12 0,1.44 H 1.92 c 0,-0.16 0,-0.48 0,-0.8 -0.32,0.48 -1.12,0.96 -2.08,0.96 -2.08,0 -3.69,-1.6 -3.69,-4 0,-2.25 1.45,-4.01 3.53,-4.01 1.28,0 1.92,0.48 2.24,0.96 v -4.32 h 1.92 z"
         style="fill:#1d1d1b;fill-opacity:1;fill-rule:nonzero;stroke:none"
         transform="matrix(0.62755097,0,0,0.62755097,108.17526,157.52176)"
         clip-path="url(#clipPath243)" />
      <path
         id="path244"
         d="m 0,0 c -0.16,-0.8 -0.64,-1.61 -1.76,-1.61 -0.96,0 -1.6,0.81 -1.6,1.61 z M 1.77,2.4 C 1.45,3.84 0.32,4.96 -1.6,4.96 c -2.08,0 -3.84,-1.6 -3.84,-4.16 0,-2.41 1.76,-4.01 3.68,-4.01 2.24,0 3.69,1.44 3.69,4.01 0,0.16 0,0.48 0,0.64 h -5.29 c 0,0.96 0.8,1.6 1.76,1.6 0.96,0 1.44,-0.48 1.76,-1.12 z"
         style="fill:#1d1d1b;fill-opacity:1;fill-rule:nonzero;stroke:none"
         transform="matrix(0.62755097,0,0,0.62755097,114.90886,155.61399)"
         clip-path="url(#clipPath245)" />
      <path
         id="path246"
         d="M 0,0 V -7.69 L -3.05,0 H -4.81 L -7.85,-7.69 V 0 h -2.09 v -11.05 h 2.73 l 3.36,8.01 3.04,-8.01 H 2.08 V 0 Z"
         style="fill:#1d1d1b;fill-opacity:1;fill-rule:nonzero;stroke:none"
         transform="matrix(0.62755097,0,0,0.62755097,125.57094,158.52583)"
         clip-path="url(#clipPath247)" />
      <path
         id="path248"
         d="m 0,0 c -0.32,0.64 -1.28,0.96 -1.93,0.96 -1.92,0 -2.88,-1.28 -2.88,-2.88 v -4.97 h 1.92 v 4.49 c 0,0.8 0.48,1.6 1.45,1.6 0.96,0 1.44,-0.64 1.44,-1.6 v -4.49 h 1.92 v 6.25 C 1.92,0 2.08,0.48 2.08,0.8 H 0.16 C 0.16,0.64 0,0.32 0,0 Z"
         style="fill:#1d1d1b;fill-opacity:1;fill-rule:nonzero;stroke:none"
         transform="matrix(0.62755097,0,0,0.62755097,131.2001,158.02381)"
         clip-path="url(#clipPath249)" />
      <path
         id="path250"
         d="M 0,0 C -0.16,0 -0.32,0 -0.64,0 -1.6,0 -2.57,0.48 -2.57,2.09 v 3.52 h -1.92 v -7.69 h 1.92 v 1.12 c 0.49,-0.96 1.45,-1.12 2.09,-1.12 0.16,0 0.32,0 0.48,0 z"
         style="fill:#1d1d1b;fill-opacity:1;fill-rule:nonzero;stroke:none"
         transform="matrix(0.62755097,0,0,0.62755097,136.528,155.00529)"
         clip-path="url(#clipPath251)" />
      <path
         id="path252"
         d="m 0,0 c 0,1.44 0.8,2.24 1.92,2.24 0.97,0 1.45,-0.8 1.61,-1.28 L 5.29,1.44 C 4.97,2.72 3.85,4.16 1.92,4.16 c -2.24,0 -4,-1.76 -4,-4.16 0,-2.41 1.76,-4.01 3.84,-4.01 2.09,0 3.21,1.28 3.53,2.56 L 3.53,-0.81 C 3.37,-1.45 2.89,-2.09 1.76,-2.09 0.8,-2.09 0,-1.29 0,0 Z"
         style="fill:#1d1d1b;fill-opacity:1;fill-rule:nonzero;stroke:none"
         transform="matrix(0.62755097,0,0,0.62755097,138.23492,156.11606)"
         clip-path="url(#clipPath253)" />
      <path
         id="path254"
         d="M 0,0 H 1.92 V 7.69 H 0 Z m 0.96,-3.84 c 0.64,0 1.28,0.64 1.28,1.44 0,0.64 -0.64,1.12 -1.28,1.12 -0.64,0 -1.28,-0.48 -1.28,-1.12 0,-0.8 0.64,-1.44 1.28,-1.44 z"
         style="fill:#1d1d1b;fill-opacity:1;fill-rule:nonzero;stroke:none"
         transform="matrix(0.62755097,0,0,0.62755097,142.45838,153.69996)"
         clip-path="url(#clipPath255)" />
      <path
         id="path256"
         d="m 0,0 v -0.32 l -1.76,0.16 C -2.24,0 -2.72,0.32 -2.72,0.8 c 0,0.48 0.32,0.96 0.96,0.96 C -0.8,1.76 0,1.28 0,0 Z M -2.4,-1.28 -0.64,-1.6 C -0.16,-1.76 0,-1.92 0,-2.24 c 0,-0.49 -0.48,-0.97 -1.28,-0.97 -0.96,0 -1.44,0.64 -1.44,1.29 l -1.77,-0.32 c 0.17,-1.29 1.13,-2.57 3.21,-2.57 2.24,0 3.2,1.28 3.2,2.89 v 3.84 c 0,0.32 0,0.8 0,1.12 H 0.16 C 0.16,2.88 0,2.4 0,2.08 -0.32,2.72 -0.96,3.2 -2.08,3.2 c -1.6,0 -2.57,-0.96 -2.57,-2.24 0,-1.28 0.97,-2.08 2.25,-2.24 z"
         style="fill:#1d1d1b;fill-opacity:1;fill-rule:nonzero;stroke:none"
         transform="matrix(0.62755097,0,0,0.62755097,147.58545,156.61809)"
         clip-path="url(#clipPath257)" />
    </g>
    <g
       id="g2"
       transform="translate(0,-0.52916776)">
      <path
         id="path258"
         d="m 85.217005,161.66055 h 9.906008 v 0.84666 h -9.906008 z m -0.804336,1.651 h 11.556997 v 0.84667 H 84.412669 Z"
         style="fill:#1d1d1b;fill-opacity:1;fill-rule:evenodd;stroke:none;stroke-width:0.264583" />
      <path
         id="path259"
         d="M 0,0 V 0 L 0.16,-0.16 H 0.32 L 0.48,-0.32 H 0.64 L 0.8,-0.48 H 0.96 L 1.12,-0.64 1.28,-0.8 H 1.44 L 1.6,-0.96 H 1.76 L 1.92,-1.12 H 2.08 L 2.24,-1.28 H 2.4 L 2.56,-1.44 H 2.88 3.04 L 3.2,-1.6 H 3.36 L 3.52,-1.76 H 3.68 L 3.84,-1.92 H 4 L 4.16,-2.08 H 4.32 4.48 L 4.64,-2.24 H 4.8 L 4.96,-2.4 H 5.28 5.44 L 5.6,-2.56 H 5.76 5.92 L 6.08,-2.72 H 6.24 6.4 L 6.56,-2.88 H 6.88 7.05 L 7.21,-3.04 H 7.37 7.53 L 7.69,-3.2 h 0.16 0.32 0.16 l 0.16,-0.16 h 0.16 0.16 0.16 l 0.16,-0.16 h 0.32 0.16 0.16 0.16 l 0.16,-0.16 h 0.16 0.32 0.16 0.16 l 0.16,-0.16 h 0.16 0.16 0.32 0.16 0.16 0.16 L 12.33,-4 h 0.32 0.16 0.16 0.16 0.16 0.32 0.16 0.16 0.16 0.32 0.16 0.17 0.16 0.16 0.32 0.16 0.16 0.16 0.32 0.16 0.16 0.16 0.16 0.319999 0.16 0.16 0.160002 0.16 L 18.1,-3.84 h 0.16 0.16 0.16 0.16 0.319999 0.16 l 0.16,0.16 h 0.160002 0.16 0.16 H 20.18 l 0.16,0.16 h 0.16 0.16 0.16 0.16 l 0.319999,0.16 h 0.16 0.160002 0.16 l 0.16,0.16 H 22.1 h 0.16 0.33 l 0.16,0.16 h 0.16 0.16 l 0.16,0.16 h 0.159999 0.16 l 0.320002,0.16 h 0.16 0.16 L 24.35,-2.56 h 0.16 0.16 l 0.16,0.16 h 0.16 0.16 l 0.159999,0.16 h 0.32 l 0.160002,0.16 h 0.16 0.16 L 26.27,-1.92 h 0.16 l 0.16,0.16 h 0.16 l 0.16,0.16 h 0.16 l 0.16,0.16 h 0.159999 0.16 l 0.16,0.16 h 0.160002 l 0.16,0.16 H 28.35 l 0.16,0.16 h 0.16 l 0.16,0.16 h 0.16 l 0.16,0.16 0.159999,0.16 h 0.16 l 0.16,0.16 h 0.160002 l 0.16,0.16 h 0.17 l 0.16,0.16 v 0 l 2.08,-3.52 C 27.23,-6.56 21.139999,-8.17 15.06,-8.17 c -5.61,0 -12.34,1.61 -17.15,4.65 z"
         style="fill:#1d1d1b;fill-opacity:1;fill-rule:evenodd;stroke:none"
         transform="matrix(0.26458333,0,0,0.26458333,86.182731,144.31183)"
         clip-path="url(#clipPath260)" />
      <path
         id="path261"
         d="m 0,0 c -0.64,0.32 -1.28,0.64 -1.76,0.96 l -2.56,-4.48 c 0.8,-0.48 1.44,-0.8 2.08,-1.12 z"
         style="fill:#1d1d1b;fill-opacity:1;fill-rule:evenodd;stroke:none"
         transform="matrix(0.26458333,0,0,0.26458333,85.545085,142.15018)"
         clip-path="url(#clipPath262)" />
      <path
         id="path263"
         d="m 0,0 c -0.8,0.32 -1.44,0.64 -2.08,0.8 l -2.09,-4.64 c 0.8,-0.32 1.61,-0.64 2.41,-0.96 z"
         style="fill:#1d1d1b;fill-opacity:1;fill-rule:evenodd;stroke:none"
         transform="matrix(0.26458333,0,0,0.26458333,86.648401,141.68451)"
         clip-path="url(#clipPath264)" />
      <path
         id="path265"
         d="M 0,0 C 0.8,-0.16 1.6,-0.48 2.4,-0.64 L 3.68,4.49 C 2.88,4.65 2.24,4.81 1.44,4.97 Z"
         style="fill:#1d1d1b;fill-opacity:1;fill-rule:evenodd;stroke:none"
         transform="matrix(0.26458333,0,0,0.26458333,86.860065,140.20284)"
         clip-path="url(#clipPath266)" />
      <path
         id="path267"
         d="M 0,0 C 0.96,-0.16 1.92,-0.32 2.88,-0.32 L 3.36,4.81 C 2.56,4.81 1.6,4.97 0.8,5.13 Z"
         style="fill:#1d1d1b;fill-opacity:1;fill-rule:evenodd;stroke:none"
         transform="matrix(0.26458333,0,0,0.26458333,88.259713,139.90651)"
         clip-path="url(#clipPath268)" />
      <path
         id="path269"
         d="m 0,0 c -0.96,0 -1.76,-0.16 -2.56,-0.32 l 0.48,-5.13 c 0.96,0.16 1.92,0.32 2.88,0.48 z"
         style="fill:#1d1d1b;fill-opacity:1;fill-rule:evenodd;stroke:none"
         transform="matrix(0.26458333,0,0,0.26458333,91.860695,141.21885)"
         clip-path="url(#clipPath270)" />
      <path
         id="path271"
         d="m 0,0 c -0.8,-0.16 -1.6,-0.48 -2.4,-0.64 l 1.12,-4.97 c 0.96,0.16 1.76,0.32 2.56,0.64 z"
         style="fill:#1d1d1b;fill-opacity:1;fill-rule:evenodd;stroke:none"
         transform="matrix(0.26458333,0,0,0.26458333,93.133341,141.51518)"
         clip-path="url(#clipPath272)" />
      <path
         id="path273"
         d="m 0,0 c -0.65,-0.16 -1.45,-0.48 -2.09,-0.8 l 1.61,-4.8 c 0.8,0.32 1.6,0.64 2.4,0.96 z"
         style="fill:#1d1d1b;fill-opacity:1;fill-rule:evenodd;stroke:none"
         transform="matrix(0.26458333,0,0,0.26458333,94.278992,141.89618)"
         clip-path="url(#clipPath274)" />
      <path
         id="path275"
         d="M 0,0 C -0.64,-0.32 -1.12,-0.64 -1.76,-0.96 L 0.48,-5.6 c 0.64,0.32 1.28,0.64 2.08,1.12 z"
         style="fill:#1d1d1b;fill-opacity:1;fill-rule:evenodd;stroke:none"
         transform="matrix(0.26458333,0,0,0.26458333,95.294981,142.40682)"
         clip-path="url(#clipPath276)" />
      <path
         id="path277"
         d="m 0,0 c 0.32,0 0.65,0 0.97,0 0.48,0 0.8,0 1.12,0 l 0.48,-8.97 c -0.48,0 -1.12,0 -1.6,0 -0.49,0 -0.97,0 -1.45,0 z"
         style="fill:#1d1d1b;fill-opacity:1;fill-rule:evenodd;stroke:none"
         transform="matrix(0.26458333,0,0,0.26458333,89.91071,141.09185)"
         clip-path="url(#clipPath278)" />
      <path
         id="path279"
         d="M 0,0 H 31.24 V 31.08 H 0 Z M 3.2,3.05 V 28.040001 H 9.45 V 23.389999 18.59 c 0,-3.37 2.72,-6.25 6.09,-6.25 3.519999,0 6.240001,2.88 6.240001,6.25 v 4.799999 4.650002 h 6.25 V 3.05 Z m 9.29,24.990001 h 6.25 V 23.389999 18.59 c 0,-1.61 -1.440001,-3.05 -3.2,-3.05 -1.61,0 -3.05,1.44 -3.05,3.05 v 4.799999 z"
         style="fill:#1d1d1b;fill-opacity:1;fill-rule:nonzero;stroke:none"
         transform="matrix(0.26458333,0,0,0.26458333,86.055737,152.62238)"
         clip-path="url(#clipPath280)" />
      <path
         id="path281"
         d="m 0,0 v 12.49 h 3.05 v -3.2 h 31.240001 v 3.2 h 3.040001 V 0 H 34.290001 V 6.25 H 31.08 V 0 H 28.040001 V 6.25 H 24.83 V -6.25 H 21.790001 V -3.2 H 15.54 V -6.25 H 12.5 V 6.25 H 9.29 V 0 H 6.25 V 6.25 H 3.05 V 0 Z m 15.54,0 h 6.250001 V 6.25 H 15.54 Z"
         style="fill:#1d1d1b;fill-opacity:1;fill-rule:evenodd;stroke:none"
         transform="matrix(0.26458333,0,0,0.26458333,85.248752,149.31508)"
         clip-path="url(#clipPath282)" />
    </g>
  </g>
</svg>
