<?xml version="1.0" encoding="UTF-8" standalone="no"?>
<svg
   width="1024"
   height="1024"
   viewBox="0 0 1024 1024"
   version="1.1"
   id="svg38"
   sodipodi:docname="books.svg"
   inkscape:version="1.3.2 (091e20e, 2023-11-25, custom)"
   xmlns:inkscape="http://www.inkscape.org/namespaces/inkscape"
   xmlns:sodipodi="http://sodipodi.sourceforge.net/DTD/sodipodi-0.dtd"
   xmlns="http://www.w3.org/2000/svg"
   xmlns:svg="http://www.w3.org/2000/svg">
  <defs
     id="defs38" />
  <sodipodi:namedview
     id="namedview38"
     pagecolor="#ffffff"
     bordercolor="#000000"
     borderopacity="0.25"
     inkscape:showpageshadow="2"
     inkscape:pageopacity="0.0"
     inkscape:pagecheckerboard="0"
     inkscape:deskcolor="#d1d1d1"
     inkscape:zoom="0.56396484"
     inkscape:cx="514.21645"
     inkscape:cy="672.91429"
     inkscape:window-width="2560"
     inkscape:window-height="1351"
     inkscape:window-x="2551"
     inkscape:window-y="-9"
     inkscape:window-maximized="1"
     inkscape:current-layer="svg38" />
  <ellipse
     style="fill:#ffffff;stroke:none;stroke-width:1.99937;stroke-miterlimit:3.4"
     id="path40"
     cx="512.89697"
     cy="511.12381"
     rx="510.67014"
     ry="507.12381" />
  <path
     d="M503.645 145.316C507.348 130.41 512.268 112.085 519.984 98.7756C525.377 89.4725 532.766 81.4433 543.404 78.5599C545.863 78.3973 548.334 78.2651 550.799 78.2748C555.391 78.2928 579.787 79.784 583.221 80.8378C586.27 81.7736 588.989 83.5883 591.191 85.8751C599.185 94.1766 600.526 105.073 600.424 116.06C629.859 122.385 659.468 127.865 688.881 134.318C692.357 135.08 700.627 136.126 702.377 139.209C703.333 140.895 703.014 143.013 702.756 144.832C701.768 151.805 700.106 158.805 698.723 165.714C695.633 181.142 692.409 196.544 689.053 211.918C683.085 240.245 677.949 268.713 671.72 296.989C677.43 299.175 708.637 313.705 710.539 317.827C711.084 319.009 710.923 321.048 710.865 322.339C710.652 327.063 710.032 331.773 709.761 336.498C709.462 341.718 709.543 346.961 709.319 352.187C708.817 363.876 708.105 375.533 708.382 387.241C708.702 400.748 709.541 414.241 709.868 427.751C710.431 450.99 710.411 474.375 710.41 497.625C710.41 511.204 709.825 524.77 709.793 538.349C709.816 569.92 710.23 601.489 711.035 633.05C711.887 669.339 713.081 705.569 716.463 741.724C719.169 770.66 722.712 799.568 725.776 828.474C726.681 837.011 731.405 867.096 729.563 873.535C725.858 877.433 710.169 881.948 704.124 884.916C698.556 887.649 693.449 891.617 687.669 893.858C673.027 899.534 652.934 924.331 641.039 936.376C637.105 940.36 632.919 945.119 628.063 947.95C617.866 946.695 605.546 942.029 595.507 939.089C566.982 930.623 538.583 921.737 510.32 912.434C491.431 906.184 472.338 900.052 453.739 892.993C444.418 889.455 435.456 885.127 426.229 881.376C413.492 876.199 400.492 871.591 387.61 866.784C373.809 861.634 359.783 857.025 345.889 852.12C339.405 849.831 332.511 847.775 326.272 844.888C323.319 843.521 320.565 841.501 318.317 839.16C313.886 834.546 311.576 827.693 310.931 821.411C309.862 810.992 311.812 800.245 311.423 789.738C310.917 776.062 309.771 762.411 309.369 748.728C309.125 740.405 309.707 732.108 309.539 723.789C309.146 704.328 308.083 684.846 307.206 665.402L302.991 582.932C300.204 523.095 298.181 463.224 296.922 403.336L295.317 337.672C295.053 326.534 294.354 315.246 294.618 304.112C294.676 301.697 294.587 298.728 296.554 297.043C299.442 294.569 312.496 294.151 316.634 293.668C331.954 291.877 344.493 288.788 358.954 283.485C362.638 282.134 370.691 277.408 374.1 278.012C374.729 278.124 375.018 278.064 375.612 277.836C377.641 273.045 376.455 257.927 376.627 251.797C377.105 234.464 377.986 217.145 379.272 199.853C380.842 176.536 381.071 151.627 390.771 129.924C395.099 120.241 401.923 112.261 412.058 108.474C426.336 103.139 447.181 104.208 460.923 110.758C472.281 116.172 476.533 129.353 480.263 140.417C487.968 142.304 495.887 143.592 503.645 145.316ZM545.047 84.652C535.286 87.5492 528.469 96.2424 523.78 104.856C516.652 117.948 513.95 132.362 510.187 146.588L528.25 150.519L533.159 151.714C534.392 144.512 536.219 137.469 537.968 130.38C542.329 112.696 546.949 97.2293 561.584 85.3864C556.01 84.6016 550.665 84.4016 545.047 84.652ZM576.204 86.1922C573.83 86.5466 571.969 87.2209 569.798 88.2324C574.386 96.0402 576.291 102.838 577.062 111.816L587.657 113.658L593.494 114.594C593.511 106.322 592.975 96.6374 586.767 90.3591C583.597 87.1533 580.548 86.3606 576.204 86.1922ZM562.544 92.7688C553.786 100.556 550.469 111.002 546.773 121.825L553.025 117.469C558.815 113.85 563.803 111.408 570.715 110.786C569.767 106.006 568.709 96.3448 564.311 93.456C563.364 92.8338 563.675 93.0103 562.544 92.7688ZM423.215 112.652C414.615 114.016 407.018 116.493 401.587 123.86C394.684 133.221 391.654 146.268 389.616 157.522C386.659 173.847 386.176 190.589 385.095 207.121C384.179 221.134 383.065 235.127 382.615 249.167C382.272 259.874 382.534 270.601 382.414 281.313L381.393 345.019C381.145 360.399 380.444 375.771 380.172 391.154C380.064 397.21 379.427 403.656 380.061 409.664C380.869 410.591 381.2 410.671 382.503 410.786C383.001 410.83 383.787 410.793 384.307 410.776C386.379 410.534 388.471 410.367 390.494 409.839C391.049 388.219 390.679 366.408 391.891 344.832C393.849 309.978 397.817 275.302 400.639 240.514C403.162 209.407 404.432 171.567 412.533 141.755C415.581 130.538 419.929 121.635 427.338 112.713C426.046 112.19 424.57 112.522 423.215 112.652ZM440.541 112.914C447.114 122.743 450.032 134.478 453.142 145.762C467.042 196.191 470.535 247.734 476.64 299.427C480.947 335.893 485.687 372.276 489.441 408.811C489.964 413.901 490.915 432.104 492.023 435.573C492.475 436.988 493.316 438.203 494.836 438.605C497.478 439.304 501.359 437.617 503.678 436.438C506.402 433.431 505.637 428.945 505.447 425.147C503.719 391.734 501.586 358.343 499.047 324.982C495.616 288.85 491.35 252.803 486.252 216.869C483.771 198.684 481.088 180.63 477.682 162.589C476.017 153.771 474.478 144.733 471.822 136.149C470.044 130.403 467.297 122.981 462.66 118.916C456.946 113.908 447.87 112.846 440.541 112.914ZM433.305 116.818C420.3 126.042 417.025 148.694 414.509 163.436C412.685 174.124 411.313 185.052 410.662 195.877C412.194 192.442 412.741 188.562 413.474 184.888C415.031 177.845 419.816 148.683 425.474 145.369C429.568 142.971 441.108 144.438 445.906 144.653C444.233 138.252 440.482 121.09 435.162 117.338C434.489 116.864 434.093 116.851 433.305 116.818ZM567.711 117.526C563.013 119.373 559.293 121.761 555.369 124.919C589.128 131.033 623.035 135.944 656.717 142.584C665.962 144.407 675.312 146.046 684.47 148.268C688.069 145.936 691.445 144.441 695.528 143.201C685.449 139.756 674.204 138.042 663.806 135.681C643.262 130.942 622.626 126.61 601.91 122.688C590.807 120.577 579.031 117.774 567.711 117.526ZM556.392 132.654C551.479 133.346 547.818 135.473 543.311 137.288C552.385 137.998 561.605 140.41 570.576 142.003L642.543 155.294C651.133 156.842 659.982 159.239 668.621 160.216C672.963 158.336 677.309 156.433 681.344 153.942C675.447 151.979 669.093 151.018 663 149.843C652.432 147.841 641.848 145.925 631.249 144.095C614.093 140.946 596.879 138.118 579.618 135.611C572.012 134.502 564.069 132.929 556.392 132.654ZM541.837 142.375C541.074 145.88 540.257 149.384 539.584 152.907C551.81 155.294 641.327 172.559 645.106 177.423C645.141 184.29 642.916 190.839 641.474 197.497C639.946 204.76 638.475 212.035 637.059 219.322C631.656 247.108 627.227 275.146 622.169 303.006C620.471 312.362 618.881 321.746 617.097 331.086C615.687 338.464 613.856 345.951 613.259 353.44C617.877 350.642 622.485 347.913 627.273 345.409L636.141 341.086C638.089 329.193 640.996 317.444 643.377 305.63C649.771 273.895 656.544 242.126 662.174 210.255C664.448 197.378 667.111 184.333 668.354 171.31C667.236 168.732 666.983 167.89 664.302 166.813C653.744 162.572 638.145 160.807 626.635 158.634L570.748 147.984C561.129 146.135 551.383 144.544 541.837 142.375ZM482.176 148.677C482.405 150.307 482.204 151.232 483.459 152.35L605.202 179.128C611.525 180.526 630.703 186.389 635.622 186.02C635.499 184.409 635.716 183.773 634.575 182.579C624.35 179.887 613.629 178.315 603.279 176.064C579.607 170.976 555.97 165.727 532.37 160.316C515.661 156.624 498.635 153.345 482.176 148.677ZM430.491 154.771C428.702 159.883 427.664 165.382 426.415 170.653C423.614 182.472 421.178 194.357 418.652 206.237C414.167 227.323 408.304 248.193 404.785 269.485C403.391 277.919 402.838 286.567 402.058 295.078C401.199 304.442 400.162 313.841 399.532 323.222C415.484 326.66 432.023 328.625 448.157 331.174C456.982 332.721 466.058 334.045 474.677 336.522C472.038 308.86 468.458 281.183 465.304 253.564C462.907 232.569 460.757 211.53 457.14 190.7C455.389 180.615 453.491 169.959 450.107 160.278C443.781 157.629 437.291 155.739 430.491 154.771ZM685.963 160.859C684.629 161.763 683.354 162.189 682.953 163.861C682.465 165.903 683.364 170.393 684.068 172.396C685.02 169.455 687.383 164.144 686.666 161.084L685.963 160.859ZM485.109 165.309C487.136 184.956 490.987 204.542 493.556 224.152C498.654 263.342 503.069 302.617 506.8 341.961C523.775 345.368 540.471 351.423 557.202 355.934L562.599 328.75L584.214 220.758C586.441 209.988 588.11 198.942 590.684 188.274C555.391 181.091 520.196 173.435 485.109 165.309ZM682.075 194.806C680.404 198.909 671.771 237.274 672.351 240.097L672.785 240.597C674.927 237.72 683.077 199.282 682.694 195.439L682.075 194.806ZM675.019 195.176C673.292 199.002 663.8 238.805 664.614 241.453C664.735 241.844 664.787 241.823 665.074 242.069C665.757 241.483 666.438 240.948 666.774 240.084C668.251 236.289 675.821 200.759 675.862 197.231C675.871 196.436 675.844 196.433 675.721 195.77L675.019 195.176ZM597.827 199.593C595.781 210.319 583.437 275.174 584.871 280.533C585.919 281.199 585.343 281.032 586.603 281.019C589.591 275.377 600.193 209.224 600.393 201.351C599.803 200.256 598.918 200.057 597.827 199.593ZM610.441 203.291C606.514 220.397 604.032 237.942 601.021 255.23C599.456 264.221 596.957 273.456 595.924 282.468C595.786 283.675 595.793 284.525 596.438 285.599C596.954 285.737 597.338 285.881 597.876 285.83C599.633 279.958 600.612 273.78 601.781 267.764C603.938 256.622 605.952 245.452 607.825 234.259C609.48 224.603 612.002 214.556 612.851 204.837C612.048 203.724 611.676 203.781 610.441 203.291ZM622.971 206.091C620.186 218.682 618.998 231.67 616.767 244.378C614.384 257.957 611.06 271.4 608.826 284.997C608.568 286.567 608.143 288.01 608.735 289.513C609.407 289.737 609.812 289.892 610.53 289.872C613.536 278.197 626.926 215.793 625.372 207.581C624.586 206.764 624.035 206.473 622.971 206.091ZM670.296 253.878C667.678 258.349 652.335 329.39 653.209 332.934C653.328 333.416 653.459 333.604 653.68 334.005C656.685 325.425 658.641 311.909 660.617 302.706C662.857 292.318 665.037 281.918 667.159 271.506C668.323 265.809 670.013 259.674 670.296 253.878ZM662.462 254.68C659.91 261.599 645.1 326.389 645.765 332.597L646.333 333.175C649.867 324.973 653.025 302.951 655.095 292.999C657.655 280.692 661.013 268.55 663.51 256.235C663.168 255.402 663.208 255.262 662.462 254.68ZM375.151 284.319C371.497 294.075 371.062 306.892 370.717 317.272C371.326 318.253 370.979 317.936 371.591 318.38C372.784 318.712 373.988 319.396 375.117 318.836C375.772 313.605 376.59 288.41 375.151 284.319ZM367.707 287.037C355.4 291.905 341.924 295.946 328.923 298.437C323.832 299.412 313.02 299.549 308.93 302.021C309.79 302.435 309.383 302.356 310.12 302.386C327.597 300.394 344.747 296.833 361.208 290.542C363.161 289.796 366.963 288.791 368.279 287.185L367.707 287.037ZM302.696 306.754C303.045 308.883 303.215 310.205 305.061 311.577C317.893 321.113 358.689 328.657 375.014 329.713C374.875 328.066 375.106 327.138 373.951 325.911C361.43 321.875 348.108 320.645 335.344 317.505C328.93 315.927 322.492 314.166 316.271 311.936C311.728 310.307 307.275 308.241 302.696 306.754ZM677.444 310.462C680.238 312.712 686.032 315.423 689.637 315.492C685.991 313.569 681.565 310.99 677.444 310.462ZM303.429 316.965C303.538 350.323 305.542 383.785 306.388 417.148C307.335 466.99 308.889 516.819 311.052 566.624L315.406 653.687C316.412 676.442 316.73 699.221 317.83 721.969C319.149 722.932 320.404 723.686 321.139 725.201C320.744 729.045 319.332 732.81 319.091 736.619C318.783 741.483 319.535 746.89 319.793 751.783C320.26 760.266 320.509 768.759 320.54 777.255C320.567 790.19 319.514 803.144 319.513 816.115C327.141 817.495 361.747 827.238 365.265 832.023C365.769 832.708 365.64 832.999 365.657 833.795C364.762 834.89 364.327 835.427 362.961 835.949C357.538 835.519 327.265 824.608 319.937 821.882C322.182 827.986 324.308 834.085 330.612 837.067C336.23 839.724 342.589 841.427 348.489 843.427C362.625 848.217 377.04 852.579 390.993 857.859C404.158 862.842 417.457 867.646 430.524 872.873C444.584 878.496 458.363 884.58 472.658 889.637C505.89 901.25 539.344 912.222 572.999 922.546C589.301 927.451 605.785 931.749 622.097 936.648C620.284 906.323 614.839 876.638 610.566 846.618C605.232 803.312 605.16 760.006 602.931 716.502C601.897 696.313 600 676.177 598.915 655.994C597.819 635.609 597.571 615.16 596.708 594.76C595.408 564.003 593.605 533.226 592.685 502.46C591.878 479.715 591.412 456.958 591.288 434.199C591.228 417.374 591.777 400.431 591.196 383.619C573.795 381.773 557.035 376.242 540.361 371.215C529.723 368.008 518.912 365.039 508.398 361.469C508.887 377.422 509.894 393.402 510.709 409.345C511.125 417.474 512.379 426.602 511.331 434.679C511.069 436.7 510.502 438.201 509.096 439.717C505.801 443.269 499.83 445.196 495.076 445.135C492.806 445.105 489.826 444.559 488.188 442.837C486.622 441.192 486.219 438.447 485.871 436.289C484.854 429.978 484.729 423.432 484.056 417.063C481.902 396.645 480.192 376.082 477.346 355.751C458.352 352.575 439.497 348.605 420.462 345.507C413.179 344.321 405.646 342.747 398.273 342.308C397.276 357.725 397.518 373.236 397.227 388.679C397.108 395.015 397.408 401.829 396.537 408.093C396.239 410.238 395.873 413.429 394.233 414.982C391.578 417.497 386.764 417.188 383.389 416.919C380.272 416.67 377.257 416.532 375.037 414.039C371.782 410.382 375.025 346.471 374.649 336.308C350.326 332.699 325.011 329.494 303.429 316.965ZM575.759 324.096C573.297 332.171 568.984 351.019 568.662 359.15C569.382 360.216 569.78 360.247 570.989 360.745C573.55 349.238 576.457 337.272 577.885 325.583C577.196 324.612 576.876 324.563 575.759 324.096ZM588.598 325.837C586.138 329.144 580.322 356.218 580.328 360.821C580.684 361.501 581.021 362.2 581.411 362.861C583.126 360.717 589.832 330.536 589.465 327.215C589.381 326.458 589.089 326.349 588.598 325.837ZM699.542 328.625C693.704 331.247 686.297 331.675 680 332.957C673.735 334.233 667.559 335.914 661.511 337.99C648.927 342.28 636.503 347.371 624.904 353.908C615.51 359.202 606.587 365.467 597.078 370.523C597.495 372.398 597.876 374.288 598.36 376.146L599.043 375.789C605.94 372.135 611.741 366.441 618.239 362.101C631.87 352.997 647.325 346.5 662.909 341.555C670.389 339.182 678.026 337.388 685.643 335.521C689.746 334.515 695.218 333.654 698.968 331.764C699.976 331.257 700.058 331.077 700.388 330.071L699.542 328.625ZM399.239 330.684C398.918 332.109 398.48 333.378 398.957 334.815C400.744 336.139 468.992 347.768 476.246 348.989C476.2 347.537 476.319 346.271 475.39 345.062C470.167 341.853 410.427 332.153 399.239 330.684ZM598.638 333.278C596.573 337.913 592.243 359.403 593.213 364.118L593.66 364.43C595.006 359.609 600.616 337.366 599.114 333.687L598.638 333.278ZM699.706 338.005C694.048 340.54 687.842 341.718 681.84 343.171C672.345 345.47 662.873 347.973 653.985 352.081C656.53 385.083 658.748 418.435 659.606 451.529C660.551 487.944 660.122 524.381 661.608 560.778L667.383 700.931C668.253 722.448 669.494 744.17 669.45 765.703C669.429 776.426 668.819 787.176 668.36 797.888C667.977 806.822 668.274 816.651 666.349 825.384C675.382 830.711 683.736 838.053 692.034 844.496C701.253 850.995 711.614 855.847 720.605 862.509C717.115 839.938 715.596 817.019 713.173 794.313C709.774 762.463 706.013 730.734 704.04 698.747C702.919 677.514 702.223 656.261 701.952 635.001C701.102 603.012 700.764 571.012 700.938 539.013C700.957 533.462 700.024 527.946 700.081 522.47L700.424 393.707L700.363 357.438C700.381 351.201 700.969 344.381 700.264 338.206L699.706 338.005ZM507.988 350.319C507.968 351.872 507.702 353.795 508.52 355.165C515.446 357.501 522.641 359.13 529.636 361.293C546.441 366.491 574.385 377.047 590.709 377.48C590.366 375.567 590.064 372.696 588.521 371.302C585.976 369.003 576.76 368.411 573.24 367.709C551.24 363.324 530.1 354.543 507.988 350.319ZM647.509 354.478C638.823 358.256 630.397 362.458 622.415 367.578C614.633 372.571 607.116 378.527 598.727 382.449C599.555 402.525 599.271 422.655 599.502 442.745C599.933 466.651 600.541 490.553 601.326 514.449C602.212 538.122 603.263 561.789 604.478 585.447C605.155 606.032 606.013 626.612 607.051 647.182C608.172 666.87 610.101 686.513 611.086 706.207C612.844 741.374 613.125 776.512 615.804 811.659C617.809 837.967 621.581 863.856 625.777 889.881C626.337 893.138 626.798 896.459 627.53 899.679C635.518 885.563 641.246 870.021 647.895 855.233C650.874 848.609 659.294 832.635 660.425 826.284C661.925 817.859 661.774 808.774 662.209 800.22C662.72 790.193 663.468 780.129 663.525 770.087C663.641 749.804 662.368 729.464 661.615 709.197C660.01 656.869 657.825 604.561 655.058 552.282C653.649 521.229 654.104 490.147 653.386 459.083C652.341 424.46 650.631 389.861 648.257 355.304L647.509 354.478ZM669.065 835.245C674.723 851.358 683.395 866.23 689.286 882.274C695.777 878.908 702.299 875.364 709.122 872.718C712.479 871.352 715.971 870.1 719.226 868.515C711.277 862.123 701.153 858.401 692.633 852.655C686.405 848.454 675.303 837.535 669.065 835.245ZM662.722 837.824C658.7 844.499 655.905 852.209 652.87 859.375C645.862 875.923 639.263 892.676 629.363 907.759C629.889 915.888 630.453 924.064 631.25 932.171C634.778 928.918 638.18 925.622 641.494 922.147C653.941 908.347 666.969 892.276 683.468 883.393C682.08 879.705 663.09 838.21 662.722 837.824Z"
     id="path2" />
  <path
     fill="#FEFEFE"
     d="M510.187 146.588C513.95 132.362 516.652 117.948 523.78 104.856C528.469 96.2424 535.286 87.5492 545.047 84.652C550.665 84.4016 556.01 84.6016 561.584 85.3864C546.949 97.2293 542.329 112.696 537.968 130.38C536.219 137.469 534.392 144.512 533.159 151.714L528.25 150.519L510.187 146.588Z"
     id="path3" />
  <path
     fill="#FEFEFE"
     d="M569.798 88.2324C571.969 87.2209 573.83 86.5466 576.204 86.1922C580.548 86.3606 583.597 87.1533 586.767 90.3591C592.975 96.6374 593.511 106.322 593.494 114.594L587.657 113.658L577.062 111.816C576.291 102.838 574.386 96.0402 569.798 88.2324Z"
     id="path4" />
  <path
     fill="#FEFEFE"
     d="M546.773 121.825C550.469 111.002 553.786 100.556 562.544 92.7688C563.675 93.0103 563.364 92.8338 564.311 93.456C568.709 96.3448 569.767 106.006 570.715 110.786C563.803 111.408 558.815 113.85 553.025 117.469L546.773 121.825Z"
     id="path5" />
  <path
     fill="#FEFEFE"
     d="M384.307 410.776C383.787 410.793 383.001 410.83 382.503 410.786C381.2 410.671 380.869 410.591 380.061 409.664C379.427 403.656 380.064 397.21 380.172 391.154C380.444 375.771 381.145 360.399 381.393 345.019L382.414 281.313C382.534 270.601 382.272 259.874 382.615 249.167C383.065 235.127 384.179 221.134 385.095 207.121C386.176 190.589 386.659 173.847 389.616 157.522C391.654 146.268 394.684 133.221 401.587 123.86C407.018 116.493 414.615 114.016 423.215 112.652C424.57 112.522 426.046 112.19 427.338 112.713C419.929 121.635 415.581 130.538 412.533 141.755C404.432 171.567 403.162 209.407 400.639 240.514C397.817 275.302 393.849 309.978 391.891 344.832C390.679 366.408 391.049 388.219 390.494 409.839C388.471 410.367 386.379 410.534 384.307 410.776Z"
     id="path6" />
  <path
     fill="#FEFEFE"
     d="M503.678 436.438C501.359 437.617 497.478 439.304 494.836 438.605C493.316 438.203 492.475 436.988 492.023 435.573C490.915 432.104 489.964 413.901 489.441 408.811C485.687 372.276 480.947 335.893 476.64 299.427C470.535 247.734 467.042 196.191 453.142 145.762C450.032 134.478 447.114 122.743 440.541 112.914C447.87 112.846 456.946 113.908 462.66 118.916C467.297 122.981 470.044 130.403 471.822 136.149C474.478 144.733 476.017 153.771 477.682 162.589C481.088 180.63 483.771 198.684 486.252 216.869C491.35 252.803 495.616 288.85 499.047 324.982C501.586 358.343 503.719 391.734 505.447 425.147C505.637 428.945 506.402 433.431 503.678 436.438Z"
     id="path7" />
  <path
     fill="#FEFEFE"
     d="M410.662 195.877C411.313 185.052 412.685 174.124 414.509 163.436C417.025 148.694 420.3 126.042 433.305 116.818C434.093 116.851 434.489 116.864 435.162 117.338C440.482 121.09 444.233 138.252 445.906 144.653C441.108 144.438 429.568 142.971 425.474 145.369C419.816 148.683 415.031 177.845 413.474 184.888C412.741 188.562 412.194 192.442 410.662 195.877Z"
     id="path8" />
  <path
     fill="#FEFEFE"
     d="M555.369 124.919C559.293 121.761 563.013 119.373 567.711 117.526C579.031 117.774 590.807 120.577 601.91 122.688C622.626 126.61 643.262 130.942 663.806 135.681C674.204 138.042 685.449 139.756 695.528 143.201C691.445 144.441 688.069 145.936 684.47 148.268C675.312 146.046 665.962 144.407 656.717 142.584C623.035 135.944 589.128 131.033 555.369 124.919Z"
     id="path9" />
  <path
     fill="#FEFEFE"
     d="M543.311 137.288C547.818 135.473 551.479 133.346 556.392 132.654C564.069 132.929 572.012 134.502 579.618 135.611C596.879 138.118 614.093 140.946 631.249 144.095C641.848 145.925 652.432 147.841 663 149.843C669.093 151.018 675.447 151.979 681.344 153.942C677.309 156.433 672.963 158.336 668.621 160.216C659.982 159.239 651.133 156.842 642.543 155.294L570.576 142.003C561.605 140.41 552.385 137.998 543.311 137.288Z"
     id="path10" />
  <path
     fill="#FEFEFE"
     d="M539.584 152.907C540.257 149.384 541.074 145.88 541.837 142.375C551.383 144.544 561.129 146.135 570.748 147.984L626.635 158.634C638.145 160.807 653.744 162.572 664.302 166.813C666.983 167.89 667.236 168.732 668.354 171.31C667.111 184.333 664.448 197.378 662.174 210.255C656.544 242.126 649.771 273.895 643.377 305.63C640.996 317.444 638.089 329.193 636.141 341.086L627.273 345.409C622.485 347.913 617.877 350.642 613.259 353.44C613.856 345.951 615.687 338.464 617.097 331.086C618.881 321.746 620.471 312.362 622.169 303.006C627.227 275.146 631.656 247.108 637.059 219.322C638.475 212.035 639.946 204.76 641.474 197.497C642.916 190.839 645.141 184.29 645.106 177.423C641.327 172.559 551.81 155.294 539.584 152.907Z"
     id="path11" />
  <path
     fill="#FEFEFE"
     d="M635.622 186.02C630.703 186.389 611.525 180.526 605.202 179.128L483.459 152.35C482.204 151.232 482.405 150.307 482.176 148.677C498.635 153.345 515.661 156.624 532.37 160.316C555.97 165.727 579.607 170.976 603.279 176.064C613.629 178.315 624.35 179.887 634.575 182.579C635.716 183.773 635.499 184.409 635.622 186.02Z"
     id="path12" />
  <path
     fill="#FEFEFE"
     d="M399.532 323.222C400.162 313.841 401.199 304.442 402.058 295.078C402.838 286.567 403.391 277.919 404.785 269.485C408.304 248.193 414.167 227.323 418.652 206.237C421.178 194.357 423.614 182.472 426.415 170.653C427.664 165.382 428.702 159.883 430.491 154.771C437.291 155.739 443.781 157.629 450.107 160.278C453.491 169.959 455.389 180.615 457.14 190.7C460.757 211.53 462.907 232.569 465.304 253.564C468.458 281.183 472.038 308.86 474.677 336.522C466.058 334.045 456.982 332.721 448.157 331.174C432.023 328.625 415.484 326.66 399.532 323.222Z"
     id="path13" />
  <path
     fill="#FEFEFE"
     d="M684.068 172.396C683.364 170.393 682.465 165.903 682.953 163.861C683.354 162.189 684.629 161.763 685.963 160.859L686.666 161.084C687.383 164.144 685.02 169.455 684.068 172.396Z"
     id="path14" />
  <path
     fill="#FEFEFE"
     d="M506.8 341.961C503.069 302.617 498.654 263.342 493.556 224.152C490.987 204.542 487.136 184.956 485.109 165.309C520.196 173.435 555.391 181.091 590.684 188.274C588.11 198.942 586.441 209.988 584.214 220.758L562.599 328.75L557.202 355.934C540.471 351.423 523.775 345.368 506.8 341.961Z"
     id="path15" />
  <path
     fill="#FEFEFE"
     d="M672.785 240.597L672.351 240.097C671.771 237.274 680.404 198.909 682.075 194.806L682.694 195.439C683.077 199.282 674.927 237.72 672.785 240.597Z"
     id="path16" />
  <path
     fill="#FEFEFE"
     d="M665.074 242.069C664.787 241.823 664.735 241.844 664.614 241.453C663.8 238.805 673.292 199.002 675.019 195.176L675.721 195.77C675.844 196.433 675.871 196.436 675.862 197.231C675.821 200.759 668.251 236.289 666.774 240.084C666.438 240.948 665.757 241.483 665.074 242.069Z"
     id="path17" />
  <path
     fill="#FEFEFE"
     d="M586.603 281.019C585.343 281.032 585.919 281.199 584.871 280.533C583.437 275.174 595.781 210.319 597.827 199.593C598.918 200.057 599.803 200.256 600.393 201.351C600.193 209.224 589.591 275.377 586.603 281.019Z"
     id="path18" />
  <path
     fill="#FEFEFE"
     d="M597.876 285.83C597.338 285.881 596.954 285.737 596.438 285.599C595.793 284.525 595.786 283.675 595.924 282.468C596.957 273.456 599.456 264.221 601.021 255.23C604.032 237.942 606.514 220.397 610.441 203.291C611.676 203.781 612.048 203.724 612.851 204.837C612.002 214.556 609.48 224.603 607.825 234.259C605.952 245.452 603.938 256.622 601.781 267.764C600.612 273.78 599.633 279.958 597.876 285.83Z"
     id="path19" />
  <path
     fill="#FEFEFE"
     d="M610.53 289.872C609.812 289.892 609.407 289.737 608.735 289.513C608.143 288.01 608.568 286.567 608.826 284.997C611.06 271.4 614.384 257.957 616.767 244.378C618.998 231.67 620.186 218.682 622.971 206.091C624.035 206.473 624.586 206.764 625.372 207.581C626.926 215.793 613.536 278.197 610.53 289.872Z"
     id="path20" />
  <path
     fill="#FEFEFE"
     d="M653.68 334.005C653.459 333.604 653.328 333.416 653.209 332.934C652.335 329.39 667.678 258.349 670.296 253.878C670.013 259.674 668.323 265.809 667.159 271.506C665.037 281.918 662.857 292.318 660.617 302.706C658.641 311.909 656.685 325.425 653.68 334.005Z"
     id="path21" />
  <path
     fill="#FEFEFE"
     d="M646.333 333.175L645.765 332.597C645.1 326.389 659.91 261.599 662.462 254.68C663.208 255.262 663.168 255.402 663.51 256.235C661.013 268.55 657.655 280.692 655.095 292.999C653.025 302.951 649.867 324.973 646.333 333.175Z"
     id="path22" />
  <path
     fill="#FEFEFE"
     d="M371.591 318.38C370.979 317.936 371.326 318.253 370.717 317.272C371.062 306.892 371.497 294.075 375.151 284.319C376.59 288.41 375.772 313.605 375.117 318.836C373.988 319.396 372.784 318.712 371.591 318.38Z"
     id="path23" />
  <path
     fill="#FEFEFE"
     d="M310.12 302.386C309.383 302.356 309.79 302.435 308.93 302.021C313.02 299.549 323.832 299.412 328.923 298.437C341.924 295.946 355.4 291.905 367.707 287.037L368.279 287.185C366.963 288.791 363.161 289.796 361.208 290.542C344.747 296.833 327.597 300.394 310.12 302.386Z"
     id="path24" />
  <path
     fill="#FEFEFE"
     d="M375.014 329.713C358.689 328.657 317.893 321.113 305.061 311.577C303.215 310.205 303.045 308.883 302.696 306.754C307.275 308.241 311.728 310.307 316.271 311.936C322.492 314.166 328.93 315.927 335.344 317.505C348.108 320.645 361.43 321.875 373.951 325.911C375.106 327.138 374.875 328.066 375.014 329.713Z"
     id="path25" />
  <path
     fill="#C1C1C2"
     d="M689.637 315.492C686.032 315.423 680.238 312.712 677.444 310.462C681.565 310.99 685.991 313.569 689.637 315.492Z"
     id="path26" />
  <path
     fill="#FEFEFE"
     d="M317.83 721.969C316.73 699.221 316.412 676.442 315.406 653.687L311.052 566.624C308.889 516.819 307.335 466.99 306.388 417.148C305.542 383.785 303.538 350.323 303.429 316.965C325.011 329.494 350.326 332.699 374.649 336.308C375.025 346.471 371.782 410.382 375.037 414.039C377.257 416.532 380.272 416.67 383.389 416.919C386.764 417.188 391.578 417.497 394.233 414.982C395.873 413.429 396.239 410.238 396.537 408.093C397.408 401.829 397.108 395.015 397.227 388.679C397.518 373.236 397.276 357.725 398.273 342.308C405.646 342.747 413.179 344.321 420.462 345.507C439.497 348.605 458.352 352.575 477.346 355.751C480.192 376.082 481.902 396.645 484.056 417.063C484.729 423.432 484.854 429.978 485.871 436.289C486.219 438.447 486.622 441.192 488.188 442.837C489.826 444.559 492.806 445.105 495.076 445.135C499.83 445.196 505.801 443.269 509.096 439.717C510.502 438.201 511.069 436.7 511.331 434.679C512.379 426.602 511.125 417.474 510.709 409.345C509.894 393.402 508.887 377.422 508.398 361.469C518.912 365.039 529.723 368.008 540.361 371.215C557.035 376.242 573.795 381.773 591.196 383.619C591.777 400.431 591.228 417.374 591.288 434.199C591.412 456.958 591.878 479.715 592.685 502.46C593.605 533.226 595.408 564.003 596.708 594.76C597.571 615.16 597.819 635.609 598.915 655.994C600 676.177 601.897 696.313 602.931 716.502C605.16 760.006 605.232 803.312 610.566 846.618C614.839 876.638 620.284 906.323 622.097 936.648C605.785 931.749 589.301 927.451 572.999 922.546C539.344 912.222 505.89 901.25 472.658 889.637C458.363 884.58 444.584 878.496 430.524 872.873C417.457 867.646 404.158 862.842 390.993 857.859C377.04 852.579 362.625 848.217 348.489 843.427C342.589 841.427 336.23 839.724 330.612 837.067C324.308 834.085 322.182 827.986 319.937 821.882C327.265 824.608 357.538 835.519 362.961 835.949C364.327 835.427 364.762 834.89 365.657 833.795C365.64 832.999 365.769 832.708 365.265 832.023C361.747 827.238 327.141 817.495 319.513 816.115C319.514 803.144 320.567 790.19 320.54 777.255C320.509 768.759 320.26 760.266 319.793 751.783C319.535 746.89 318.783 741.483 319.091 736.619C319.332 732.81 320.744 729.045 321.139 725.201C320.404 723.686 319.149 722.932 317.83 721.969ZM391.165 840.159C390.132 840.809 389.659 841.185 389.088 842.273C389.358 843.498 389.623 843.944 390.737 844.601C394.048 846.554 404.588 848.578 408.962 849.9C424.635 854.639 440.29 859.674 455.844 864.796C466.45 868.262 476.906 872.172 487.183 876.516C494.667 879.64 502.043 883.083 509.659 885.875C527.43 892.389 546.041 897.293 564.138 902.887C574.079 905.96 592.895 912.136 602.931 912.289C604.002 911.22 604.549 910.747 604.863 909.205C604.491 908.01 604.241 907.525 603.103 906.907C601.732 906.162 580.058 901.138 576.209 900.076C557.809 894.83 539.491 889.302 521.26 883.494C508.206 879.362 495.947 873.434 483.197 868.529C464.775 861.443 446.089 855.315 427.326 849.213C415.869 845.486 403.251 840.792 391.165 840.159Z"
     id="path27" />
  <path
     fill="#FEFEFE"
     d="M570.989 360.745C569.78 360.247 569.382 360.216 568.662 359.15C568.984 351.019 573.297 332.171 575.759 324.096C576.876 324.563 577.196 324.612 577.885 325.583C576.457 337.272 573.55 349.238 570.989 360.745Z"
     id="path28" />
  <path
     fill="#FEFEFE"
     d="M581.411 362.861C581.021 362.2 580.684 361.501 580.328 360.821C580.322 356.218 586.138 329.144 588.598 325.837C589.089 326.349 589.381 326.458 589.465 327.215C589.832 330.536 583.126 360.717 581.411 362.861Z"
     id="path29" />
  <path
     fill="#FEFEFE"
     d="M597.078 370.523C606.587 365.467 615.51 359.202 624.904 353.908C636.503 347.371 648.927 342.28 661.511 337.99C667.559 335.914 673.735 334.233 680 332.957C686.297 331.675 693.704 331.247 699.542 328.625L700.388 330.071C700.058 331.077 699.976 331.257 698.968 331.764C695.218 333.654 689.746 334.515 685.643 335.521C678.026 337.388 670.389 339.182 662.909 341.555C647.325 346.5 631.87 352.997 618.239 362.101C611.741 366.441 605.94 372.135 599.043 375.789L598.36 376.146C597.876 374.288 597.495 372.398 597.078 370.523Z"
     id="path30" />
  <path
     fill="#FEFEFE"
     d="M476.246 348.989C468.992 347.768 400.744 336.139 398.957 334.815C398.48 333.378 398.918 332.109 399.239 330.684C410.427 332.153 470.167 341.853 475.39 345.062C476.319 346.271 476.2 347.537 476.246 348.989Z"
     id="path31" />
  <path
     fill="#FEFEFE"
     d="M593.66 364.43L593.213 364.118C592.243 359.403 596.573 337.913 598.638 333.278L599.114 333.687C600.616 337.366 595.006 359.609 593.66 364.43Z"
     id="path32" />
  <path
     fill="#FEFEFE"
     d="M653.985 352.081C662.873 347.973 672.345 345.47 681.84 343.171C687.842 341.718 694.048 340.54 699.706 338.005L700.264 338.206C700.969 344.381 700.381 351.201 700.363 357.438L700.424 393.707L700.081 522.47C700.024 527.946 700.957 533.462 700.938 539.013C700.764 571.012 701.102 603.012 701.952 635.001C702.223 656.261 702.919 677.514 704.04 698.747C706.013 730.734 709.774 762.463 713.173 794.313C715.596 817.019 717.115 839.938 720.605 862.509C711.614 855.847 701.253 850.995 692.034 844.496C683.736 838.053 675.382 830.711 666.349 825.384C668.274 816.651 667.977 806.822 668.36 797.888C668.819 787.176 669.429 776.426 669.45 765.703C669.494 744.17 668.253 722.448 667.383 700.931L661.608 560.778C660.122 524.381 660.551 487.944 659.606 451.529C658.748 418.435 656.53 385.083 653.985 352.081Z"
     id="path33" />
  <path
     fill="#FEFEFE"
     d="M590.709 377.48C574.385 377.047 546.441 366.491 529.636 361.293C522.641 359.13 515.446 357.501 508.52 355.165C507.702 353.795 507.968 351.872 507.988 350.319C530.1 354.543 551.24 363.324 573.24 367.709C576.76 368.411 585.976 369.003 588.521 371.302C590.064 372.696 590.366 375.567 590.709 377.48Z"
     id="path34" />
  <path
     fill="#FEFEFE"
     d="M598.727 382.449C607.116 378.527 614.633 372.571 622.415 367.578C630.397 362.458 638.823 358.256 647.509 354.478L648.257 355.304C650.631 389.861 652.341 424.46 653.386 459.083C654.104 490.147 653.649 521.229 655.058 552.282C657.825 604.561 660.01 656.869 661.615 709.197C662.368 729.464 663.641 749.804 663.525 770.087C663.468 780.129 662.72 790.193 662.209 800.22C661.774 808.774 661.925 817.859 660.425 826.284C659.294 832.635 650.874 848.609 647.895 855.233C641.246 870.021 635.518 885.563 627.53 899.679C626.798 896.459 626.337 893.138 625.777 889.881C621.581 863.856 617.809 837.967 615.804 811.659C613.125 776.512 612.844 741.374 611.086 706.207C610.101 686.513 608.172 666.87 607.051 647.182C606.013 626.612 605.155 606.032 604.478 585.447C603.263 561.789 602.212 538.122 601.326 514.449C600.541 490.553 599.933 466.651 599.502 442.745C599.271 422.655 599.555 402.525 598.727 382.449Z"
     id="path35" />
  <path
     fill="#FEFEFE"
     d="M689.286 882.274C683.395 866.23 674.723 851.358 669.065 835.245C675.303 837.535 686.405 848.454 692.633 852.655C701.153 858.401 711.277 862.123 719.226 868.515C715.971 870.1 712.479 871.352 709.122 872.718C702.299 875.364 695.777 878.908 689.286 882.274Z"
     id="path36" />
  <path
     fill="#FEFEFE"
     d="M629.363 907.759C639.263 892.676 645.862 875.923 652.87 859.375C655.905 852.209 658.7 844.499 662.722 837.824C663.09 838.21 682.08 879.705 683.468 883.393C666.969 892.276 653.941 908.347 641.494 922.147C638.18 925.622 634.778 928.918 631.25 932.171C630.453 924.064 629.889 915.888 629.363 907.759Z"
     id="path37" />
  <path
     d="M602.931 912.289C592.895 912.136 574.079 905.96 564.138 902.887C546.041 897.293 527.43 892.389 509.659 885.875C502.043 883.083 494.667 879.64 487.183 876.516C476.906 872.172 466.45 868.262 455.844 864.796C440.29 859.674 424.635 854.639 408.962 849.9C404.588 848.578 394.048 846.554 390.737 844.601C389.623 843.944 389.358 843.498 389.088 842.273C389.659 841.185 390.132 840.809 391.165 840.159C403.251 840.792 415.869 845.486 427.326 849.213C446.089 855.315 464.775 861.443 483.197 868.529C495.947 873.434 508.206 879.362 521.26 883.494C539.491 889.302 557.809 894.83 576.209 900.076C580.058 901.138 601.732 906.162 603.103 906.907C604.241 907.525 604.491 908.01 604.863 909.205C604.549 910.747 604.002 911.22 602.931 912.289Z"
     id="path38" />
  <path
     d="m 528.50219,649.22923 m -92.07925,63.81702 c -16.93123,-7.64185 -26.37414,-20.53236 -35.06758,-47.87042 -1.13556,-3.57112 -2.33823,-6.76385 -2.67256,-7.09501 -0.33436,-0.33105 -2.76257,0.79148 -5.39607,2.49472 -9.71823,6.28543 -21.11356,9.12303 -34.63752,8.62528 -12.57375,-0.46274 -20.95295,-9.68753 -18.48851,-20.35438 2.85239,-12.34604 16.49791,-21.80686 32.24249,-22.35452 3.37195,-0.11733 6.66428,0.43828 12.0295,2.02991 l 7.38699,2.19142 2.0684,-4.24959 c 1.13764,-2.33729 4.37122,-8.71689 7.18576,-14.17694 2.81452,-5.46002 5.69705,-11.08954 6.40549,-12.51001 0.70844,-1.42047 2.00792,-3.89765 2.8877,-5.50486 3.59724,-6.57205 4.52374,-8.70714 4.04913,-9.33203 -0.2744,-0.36136 -2.33047,-1.54526 -4.56903,-2.63092 -8.80077,-4.26827 -14.48581,-8.8242 -20.36731,-16.32219 -6.30972,-8.04387 -8.99061,-14.4902 -9.90696,-23.82209 -0.78935,-8.03845 1.34601,-13.27351 6.21659,-15.24134 2.40053,-0.96985 6.53706,-0.17672 7.55186,1.44804 0.40429,0.6472 0.23379,3.2625 -0.38818,5.9546 -3.36027,14.5443 4.43401,31.91766 18.74041,41.77204 4.30294,2.96392 7.07357,3.22147 7.65349,0.71142 0.20122,-0.87094 0.98635,-2.77929 1.7448,-4.24074 0.75835,-1.46144 2.26877,-4.67351 3.35634,-7.13791 1.08767,-2.4644 2.65675,-5.80508 3.48694,-7.42377 0.83017,-1.61864 2.09516,-4.10379 2.8112,-5.5225 3.92284,-7.77301 13.1137,-22.23488 17.74381,-27.92007 6.8717,-8.43747 14.43977,-13.64975 22.54332,-15.52606 5.3403,-1.23648 6.47968,-1.20686 13.26765,0.34507 8.73675,1.99634 12.60956,4.58837 15.3246,10.25164 1.53699,3.20588 1.55423,3.93529 0.22259,9.41787 -2.07703,8.55027 -4.51774,12.9276 -12.68545,22.74725 -10.01897,12.04549 -26.08339,24.12291 -40.96818,30.80045 -4.25969,1.91095 -5.85058,3.06132 -6.17488,4.46499 -0.24027,1.03995 -1.4164,3.82373 -2.61355,6.18625 -2.48821,4.91033 -9.42913,18.92624 -11.82308,23.87459 -3.63198,7.50735 -9.34952,17.63229 -13.22556,23.42048 l -2.22996,3.33007 3.67825,6.35012 c 3.3135,5.72058 6.31724,13.04979 11.91038,29.0618 6.4078,18.344 11.70907,25.70757 21.79697,30.27616 3.24813,1.47102 4.70035,1.71201 8.28692,1.37521 2.39165,-0.22461 5.48196,-1.00468 6.86728,-1.73351 l 2.51875,-1.32517 2.45374,-11.81379 c 2.31126,-11.12733 2.60088,-11.97529 4.98581,-14.5919 3.38999,-3.71952 7.18498,-4.91353 12.04661,-3.79032 3.26831,0.7551 4.25643,1.41273 6.27534,4.17636 l 2.39641,3.28019 -1.77239,7.16283 c -1.5573,6.29269 -2.20941,7.70702 -5.36942,11.64339 -4.17912,5.20577 -13.19952,10.86744 -19.46761,12.21889 -10.62909,2.29171 -20.59248,1.26587 -30.31175,-3.12089 z m -72.52826,-52.99324 c 5.91822,-1.56203 13.45016,-8.14349 19.52242,-17.05882 4.09138,-6.00682 3.70438,-6.37876 -9.37427,-9.00922 -6.79676,-1.36682 -10.31644,-1.08319 -15.64264,1.261 -4.72946,2.08158 -10.24382,7.81452 -11.17055,11.61338 -1.1925,4.89054 1.1851,10.15878 5.46581,12.1088 2.59072,1.18021 8.62385,1.76489 11.19923,1.08486 z m 89.52406,-87.7234 c 10.11491,-5.97895 15.32986,-10.32224 21.50611,-17.91119 9.42497,-11.58105 15.10072,-22.71298 14.92005,-29.26349 -0.19294,-6.99674 -4.93473,-10.11267 -10.09956,-6.63667 -6.81788,4.58847 -17.26437,19.70648 -24.7786,35.85868 -1.14067,2.45212 -3.25819,6.77707 -4.70548,9.61101 -3.44227,6.74047 -5.55409,12.29524 -4.74539,12.48208 0.35524,0.0821 3.91153,-1.78111 7.90287,-4.14042 z m 20.40753,80.34515 c -15.07028,-8.57465 -20.1299,-26.40993 -12.96732,-45.71027 5.22869,-14.08929 16.88692,-30.64324 26.68181,-37.88646 12.70825,-9.39767 29.5899,-10.46855 41.91377,-2.65878 8.50816,5.39169 11.16595,12.64617 8.63937,23.58199 -1.72933,7.48509 -4.80584,12.88138 -10.17648,17.8506 -10.72571,9.92382 -21.34679,13.05292 -35.85481,10.56325 -9.73707,-1.67095 -9.2349,-2.06001 -11.9404,9.25445 -1.3275,5.55039 -1.51984,7.9861 -0.92046,11.64351 1.1119,6.78581 2.98403,8.58507 10.80554,10.3848 5.76958,1.32785 6.91815,1.32297 11.89046,-0.0475 5.98702,-1.65014 16.07393,-7.36396 20.6277,-11.68452 3.52758,-3.34705 5.22662,-3.20192 4.40003,0.37582 -1.07107,4.63592 -11.18424,12.53974 -20.53646,16.05004 -7.37919,2.76977 -13.64418,3.17933 -22.18487,1.45031 -4.15599,-0.84131 -8.75893,-2.24593 -10.37788,-3.16729 z m 26.05458,-39.95909 c 7.58583,-0.7651 16.76177,-6.23954 21.65759,-12.92108 2.44092,-3.33119 5.67867,-11.50843 5.81056,-14.67492 0.16564,-3.97807 -2.52272,-8.43168 -5.50266,-9.11601 -2.44002,-0.56066 -7.44009,0.83886 -10.28157,2.87725 -6.04858,4.33898 -13.66062,13.43942 -20.05228,23.97314 -5.52257,9.10158 -5.53508,8.81676 0.41637,9.55197 2.72488,0.33655 6.30324,0.47593 7.95199,0.30965 z"
     style="fill:#000000;stroke-width:3.03048"
     id="path1-1" />
  <ellipse
     style="fill:none;stroke-width:1.99937;stroke-miterlimit:3.4"
     id="path39"
     cx="512.4433"
     cy="509.78354"
     rx="508.89697"
     ry="508.01038" />
</svg>
