
<svg xmlns="http://www.w3.org/2000/svg" viewBox="0 0 1024 1024">
  <ellipse cx="512.9" cy="511.1" fill="none" rx="510.7" ry="507.1"/>
  <path d="M503.6 145.3A189 189 0 0 1 520 98.8a40 40 0 0 1 23.4-20.2l7.4-.3c4.6 0 29 1.5 32.4 2.5 3 1 5.8 2.8 8 5 8 8.4 9.3 19.3 9.2 30.3 29.5 6.3 59 11.8 88.5 18.2 3.5.8 11.7 1.8 13.5 5 1 1.6.6 3.7.4 5.5-1 7-2.7 14-4 21l-9.7 46.1c-6 28.3-11.2 56.8-17.4 85 5.7 2.3 37 16.8 38.8 21 .6 1.1.4 3.1.4 4.4-.2 4.8-.9 9.5-1.1 14.2-.3 5.2-.3 10.5-.5 15.7-.5 11.7-1.2 23.3-1 35 .4 13.5 1.2 27 1.6 40.6.5 23.2.5 46.6.5 69.8 0 13.6-.6 27.2-.6 40.7 0 31.6.4 63.2 1.2 94.8.9 36.2 2 72.5 5.5 108.6 2.7 29 6.2 57.9 9.3 86.8.9 8.5 5.6 38.6 3.8 45-3.7 4-19.4 8.4-25.5 11.4-5.5 2.7-10.7 6.7-16.4 9-14.7 5.6-34.8 30.4-46.7 42.5-3.9 4-8 8.7-13 11.6-10.1-1.3-22.5-6-32.5-9-28.5-8.4-57-17.3-85.2-26.6-18.9-6.2-38-12.3-56.6-19.4-9.3-3.5-18.2-7.9-27.5-11.6-12.7-5.2-25.7-9.8-38.6-14.6-13.8-5.2-27.8-9.8-41.7-14.7-6.5-2.3-13.4-4.3-19.6-7.2-3-1.4-5.7-3.4-8-5.7a30.6 30.6 0 0 1-7.4-17.8c-1-10.4 1-21.2.5-31.7-.5-13.6-1.6-27.3-2-41-.3-8.3.3-16.6.1-25-.4-19.4-1.4-38.9-2.3-58.3l-4.2-82.5c-2.8-59.8-4.8-119.7-6-179.6l-1.7-65.6c-.2-11.2-1-22.5-.7-33.6 0-2.4 0-5.4 2-7 2.8-2.5 15.9-3 20-3.4a181 181 0 0 0 42.4-10.2c3.6-1.4 11.7-6 15.1-5.5.6.1 1 0 1.5-.2 2-4.8.9-19.9 1-26 .5-17.3 1.4-34.7 2.7-52 1.5-23.3 1.8-48.2 11.5-69.9a38.3 38.3 0 0 1 21.3-21.4 69.3 69.3 0 0 1 48.8 2.3c11.4 5.4 15.6 18.6 19.4 29.6 7.7 1.9 15.6 3.2 23.3 5ZM545 84.7c-9.7 2.8-16.5 11.5-21.2 20.2-7.1 13-9.8 27.5-13.6 41.7l18 4 5 1.1c1.2-7.2 3-14.2 4.8-21.3 4.3-17.7 9-33.2 23.6-45a84 84 0 0 0-16.6-.7Zm31.2 1.5a22 22 0 0 0-6.4 2 51.6 51.6 0 0 1 7.3 23.6l10.6 1.9 5.8.9c0-8.3-.5-18-6.7-24.2-3.2-3.2-6.3-4-10.6-4.2Zm-13.7 6.6c-8.7 7.8-12 18.2-15.7 29l6.2-4.3a38 38 0 0 1 17.7-6.7c-1-4.8-2-14.5-6.4-17.3-1-.7-.6-.5-1.8-.7Zm-139.3 19.9c-8.6 1.3-16.2 3.8-21.6 11.2a82.5 82.5 0 0 0-12 33.6c-3 16.3-3.4 33-4.5 49.6-1 14-2 28-2.5 42-.3 10.8 0 21.5-.2 32.2l-1 63.7c-.3 15.4-1 30.8-1.2 46.2-.1 6-.8 12.5-.1 18.5.8.9 1.1 1 2.4 1h1.8c2-.2 4.2-.3 6.2-.9.5-21.6.2-43.4 1.4-65 2-34.8 6-69.5 8.7-104.3 2.6-31 3.8-69 12-98.7 3-11.3 7.3-20.2 14.7-29-1.3-.6-2.7-.3-4-.1Zm17.3.2c6.6 9.8 9.5 21.6 12.6 32.9 14 50.4 17.4 102 23.5 153.6 4.3 36.5 9 72.9 12.8 109.4.6 5.1 1.5 23.3 2.6 26.8.5 1.4 1.3 2.6 2.8 3 2.7.7 6.6-1 8.9-2.2 2.7-3 2-7.5 1.7-11.3-1.7-33.4-3.8-66.8-6.4-100.1a2353.7 2353.7 0 0 0-21.3-162.4c-1.7-8.8-3.2-17.9-5.9-26.5a39 39 0 0 0-9.1-17.2c-5.8-5-14.8-6-22.2-6Zm-7.2 4c-13 9.1-16.3 31.8-18.8 46.5a301.4 301.4 0 0 0-3.8 32.5c1.5-3.5 2-7.3 2.8-11 1.5-7 6.3-36.2 12-39.5 4-2.4 15.6-1 20.4-.7-1.7-6.4-5.4-23.6-10.7-27.4-.7-.4-1.1-.4-1.9-.5Zm134.4.6a45.6 45.6 0 0 0-12.3 7.4c33.7 6.1 67.6 11 101.3 17.7 9.3 1.8 18.6 3.4 27.8 5.7 3.6-2.4 7-3.9 11-5.1-10-3.4-21.3-5.2-31.7-7.5-20.5-4.8-41.2-9-61.9-13-11-2.1-22.9-5-34.2-5.2Zm-11.3 15.2c-5 .6-8.6 2.8-13 4.6 9 .7 18.2 3.1 27.2 4.7l72 13.3c8.5 1.5 17.4 4 26 5 4.4-2 8.7-3.9 12.7-6.4-5.9-2-12.2-2.9-18.3-4-10.6-2-21.2-4-31.8-5.8a1403 1403 0 0 0-51.6-8.5c-7.6-1.1-15.5-2.7-23.2-3Zm-14.6 9.7-2.2 10.5c12.2 2.4 101.7 19.7 105.5 24.5 0 6.9-2.2 13.4-3.6 20.1a841 841 0 0 0-4.4 21.8c-5.4 27.8-9.9 55.8-15 83.7-1.6 9.4-3.2 18.7-5 28-1.4 7.5-3.2 15-3.8 22.4a241 241 0 0 1 14-8l8.8-4.3c2-12 4.9-23.7 7.3-35.5 6.4-31.7 13.1-63.5 18.8-95.3 2.2-13 5-26 6.2-39-1.2-2.6-1.4-3.4-4.1-4.5-10.6-4.2-26.2-6-37.7-8.2L570.7 148c-9.6-1.9-19.3-3.5-28.9-5.6Zm-59.6 6.3c.2 1.6 0 2.5 1.3 3.7L605.2 179c6.3 1.4 25.5 7.3 30.4 7-.1-1.7.1-2.3-1-3.5-10.3-2.7-21-4.3-31.3-6.5-23.7-5.1-47.3-10.4-71-15.8-16.6-3.7-33.7-7-50.1-11.6Zm-51.7 6c-1.8 5.2-2.8 10.7-4 16-2.9 11.8-5.3 23.7-7.8 35.5-4.5 21.1-10.4 42-14 63.3-1.3 8.4-1.9 17-2.6 25.6-.9 9.3-2 18.7-2.6 28.1 16 3.5 32.5 5.4 48.7 8 8.8 1.5 17.9 2.8 26.5 5.3-2.7-27.6-6.2-55.3-9.4-83-2.4-21-4.5-42-8.2-62.8-1.7-10-3.6-20.7-7-30.4a79.6 79.6 0 0 0-19.6-5.5ZM686 161c-1.4.9-2.6 1.3-3 3a21 21 0 0 0 1 8.5c1-3 3.4-8.3 2.7-11.3l-.7-.2Zm-201 4.3c2 19.7 5.9 39.2 8.5 58.9 5 39.1 9.5 78.4 13.2 117.8 17 3.4 33.7 9.4 50.4 14l5.4-27.3 21.6-108c2.2-10.7 4-21.8 6.5-32.4-35.3-7.2-70.5-14.9-105.6-23Zm197 29.5a370.3 370.3 0 0 0-9.7 45.3l.4.5a267 267 0 0 0 9.9-45.2l-.6-.6Zm-7 .4a337.9 337.9 0 0 0-10.5 46.3c.1.3.2.3.5.6.7-.6 1.3-1.2 1.7-2a449 449 0 0 0 9-42.9v-1.4l-.8-.6Zm-77.3 4.4c-2 10.7-14.4 75.6-13 81 1.1.6.5.4 1.8.4 3-5.6 13.6-71.8 13.8-79.6-.6-1.1-1.5-1.3-2.6-1.8Zm12.6 3.7c-3.9 17.1-6.4 34.6-9.4 52-1.5 9-4 18.2-5 27.2-.2 1.2-.2 2 .4 3.1.6.1 1 .3 1.5.2 1.7-5.8 2.7-12 3.9-18 2.1-11.2 4.2-22.3 6-33.5 1.7-9.7 4.2-19.7 5-29.5-.8-1-1.1-1-2.4-1.5ZM623 206c-2.8 12.6-4 25.6-6.2 38.3-2.4 13.6-5.7 27-8 40.6-.2 1.6-.7 3 0 4.5.6.2 1 .4 1.7.4 3-11.7 16.4-74.1 14.9-82.3a5.3 5.3 0 0 0-2.4-1.5Zm47.3 47.8c-2.6 4.4-18 75.5-17 79 0 .5.2.7.4 1.1 3-8.6 5-22 7-31.3l6.5-31.2c1.1-5.7 2.8-11.8 3.1-17.6Zm-7.8.8c-2.6 6.9-17.4 71.7-16.7 77.9l.5.6c3.6-8.2 6.7-30.2 8.8-40.2 2.6-12.3 6-24.4 8.4-36.8-.3-.8-.3-1-1-1.5Zm-287.3 29.6c-3.7 9.8-4.1 22.6-4.5 33 .6 1 .3.6.9 1 1.2.4 2.4 1.1 3.5.5a190 190 0 0 0 0-34.5Zm-7.5 2.7c-12.3 4.9-25.8 9-38.8 11.4-5 1-15.9 1.1-20 3.6.9.4.5.4 1.2.4 17.5-2 34.6-5.6 51.1-11.9 2-.7 5.8-1.7 7-3.3l-.5-.2Zm-65 19.8c.3 2 .5 3.4 2.4 4.8 12.8 9.5 53.6 17 70 18.1-.2-1.6 0-2.6-1.1-3.8-12.6-4-25.9-5.3-38.7-8.4-6.4-1.6-12.8-3.3-19-5.6-4.6-1.6-9-3.7-13.6-5.1Zm374.7 3.7c2.8 2.2 8.6 5 12.2 5-3.6-2-8-4.5-12.2-5Zm-374 6.5c.1 33.3 2.1 66.8 3 100.1 1 49.9 2.5 99.7 4.7 149.5l4.3 87c1 22.8 1.3 45.6 2.4 68.4 1.3 1 2.6 1.7 3.3 3.2-.4 3.8-1.8 7.6-2 11.4-.3 4.9.4 10.3.7 15.2.5 8.5.7 17 .7 25.5 0 12.9-1 25.8-1 38.8 7.6 1.4 42.2 11.1 45.8 16 .5.6.3.9.4 1.7-1 1-1.4 1.6-2.7 2.1a429 429 0 0 1-43-14c2.2 6 4.3 12.2 10.6 15.2 5.6 2.6 12 4.3 17.9 6.3 14.1 4.8 28.5 9.2 42.5 14.5 13.2 5 26.5 9.7 39.5 15 14 5.6 27.9 11.7 42.2 16.7 33.2 11.6 66.6 22.6 100.3 33 16.3 4.9 32.8 9.1 49.1 14-1.8-30.3-7.3-60-11.5-90-5.4-43.3-5.4-86.6-7.7-130.1-1-20.2-2.9-40.3-4-60.5-1-20.4-1.3-40.8-2.2-61.2-1.3-30.8-3.1-61.6-4-92.3a2223 2223 0 0 1-1.4-68.3c0-16.8.5-33.8-.1-50.6-17.4-1.8-34.2-7.4-50.8-12.4-10.7-3.2-21.5-6.2-32-9.7.5 16 1.5 31.9 2.3 47.8.4 8.2 1.7 17.3.6 25.4-.2 2-.8 3.5-2.2 5a20 20 0 0 1-14 5.4c-2.3 0-5.3-.5-7-2.3-1.5-1.6-1.9-4.4-2.2-6.5-1-6.3-1.2-12.9-1.8-19.2-2.2-20.5-4-41-6.8-61.3-19-3.2-37.8-7.2-56.8-10.3-7.3-1.2-14.9-2.8-22.2-3.2-1 15.4-.8 31-1 46.4-.2 6.3.1 13.1-.8 19.4-.3 2.1-.6 5.3-2.3 6.9-2.6 2.5-7.4 2.2-10.8 2-3.1-.3-6.1-.5-8.4-3-3.2-3.6 0-67.5-.4-77.7-24.3-3.6-49.6-6.8-71.2-19.3Zm272.4 7.1c-2.5 8-6.8 27-7.1 35 .7 1.1 1 1.1 2.3 1.6 2.5-11.5 5.5-23.4 6.9-35.1-.7-1-1-1-2.1-1.5Zm12.8 1.7c-2.5 3.3-8.3 30.4-8.3 35l1.1 2c1.7-2 8.4-32.3 8-35.6 0-.7-.3-.9-.8-1.4Zm111 2.8c-5.9 2.6-13.3 3-19.6 4.4a217 217 0 0 0-55.1 21c-9.4 5.2-18.3 11.5-27.8 16.5l1.3 5.6.6-.3c7-3.7 12.7-9.4 19.2-13.7a175.7 175.7 0 0 1 44.7-20.5c7.5-2.4 15.1-4.2 22.7-6 4.1-1 9.6-2 13.4-3.8 1-.5 1-.7 1.4-1.7l-.9-1.5Zm-300.4 2c-.3 1.5-.7 2.8-.2 4.2 1.7 1.3 70 13 77.2 14.2 0-1.5.1-2.7-.8-4-5.2-3.1-65-12.8-76.2-14.3Zm199.4 2.7c-2 4.6-6.4 26.1-5.4 30.8l.5.3c1.3-4.8 7-27 5.4-30.7l-.5-.4Zm101.1 4.7c-5.7 2.5-11.9 3.7-17.9 5.2-9.5 2.3-19 4.8-27.8 8.9 2.5 33 4.7 66.3 5.6 99.4 1 36.4.5 72.9 2 109.3l5.8 140.1c.9 21.5 2 43.3 2 64.8 0 10.7-.6 21.5-1 32.2-.4 9-.1 18.8-2 27.5 9 5.3 17.3 12.7 25.6 19.1 9.3 6.5 19.6 11.3 28.6 18-3.5-22.6-5-45.5-7.4-68.2-3.4-31.8-7.2-63.6-9.2-95.6-1-21.2-1.8-42.4-2-63.7-.9-32-1.2-64-1-96 0-5.5-1-11-1-16.5l.4-128.8v-36.3c0-6.2.6-13-.1-19.2l-.6-.2ZM508 350.3c0 1.6-.3 3.5.5 4.9 7 2.3 14.1 4 21.1 6 16.8 5.3 44.8 15.8 61.1 16.3-.3-2-.6-4.8-2.2-6.2-2.5-2.3-11.7-2.9-15.3-3.6-22-4.4-43.1-13.2-65.2-17.4Zm139.5 4.2c-8.7 3.8-17.1 8-25 13-7.9 5-15.4 11-23.8 15 .9 20 .6 40.2.8 60.2a4235 4235 0 0 0 5 142.7c.7 20.6 1.5 41.2 2.6 61.8 1 19.7 3 39.3 4 59 1.7 35.2 2 70.3 4.7 105.5 2 26.3 5.8 52.2 10 78.2.5 3.2 1 6.6 1.7 9.8 8-14.1 13.7-29.7 20.4-44.5 3-6.6 11.4-22.6 12.5-29 1.5-8.3 1.4-17.4 1.8-26 .5-10 1.3-20 1.3-30.1.1-20.3-1.1-40.6-1.9-60.9-1.6-52.3-3.8-104.6-6.5-157-1.5-31-1-62-1.7-93.1a2773 2773 0 0 0-5.1-103.8l-.8-.8Zm21.6 480.7c5.6 16.2 14.3 31 20.2 47 6.5-3.3 13-6.8 19.8-9.5 3.4-1.3 6.9-2.6 10.1-4.2-8-6.4-18-10.1-26.6-15.8-6.2-4.2-17.3-15.2-23.5-17.5Zm-6.4 2.6c-4 6.7-6.8 14.4-9.8 21.6-7 16.5-13.6 33.3-23.5 48.4.5 8 1 16.3 1.9 24.4 3.5-3.3 6.9-6.6 10.2-10 12.4-13.9 25.5-30 42-38.8a1895 1895 0 0 0-20.8-45.6Z"/>
  <path fill="#FEFEFE" d="M510.2 146.6c3.8-14.2 6.5-28.7 13.6-41.7 4.7-8.7 11.5-17.4 21.2-20.2 5.7-.3 11-.1 16.6.7-14.7 11.8-19.3 27.3-23.6 45-1.8 7-3.6 14.1-4.8 21.3l-5-1.2-18-4Zm59.6-58.4c2.2-1 4-1.7 6.4-2 4.3.2 7.4 1 10.6 4.2 6.2 6.2 6.7 16 6.7 24.2l-5.8-1-10.6-1.8c-.8-9-2.7-15.8-7.3-23.6Z"/>
  <path fill="#FEFEFE" d="M546.8 121.8c3.7-10.8 7-21.2 15.7-29 1.2.2.9 0 1.8.7 4.4 2.8 5.5 12.5 6.4 17.3a37 37 0 0 0-17.7 6.7l-6.2 4.3Zm-162.5 289h-1.8c-1.3-.1-1.6-.2-2.4-1.1-.7-6 0-12.5 0-18.5.3-15.4 1-30.8 1.3-46.2l1-63.7c.1-10.7-.1-21.4.2-32.1.5-14 1.6-28 2.5-42 1-16.6 1.6-33.4 4.5-49.7 2-11.2 5-24.3 12-33.6 5.4-7.4 13-9.9 21.6-11.2 1.4-.2 2.8-.5 4.1 0a72.8 72.8 0 0 0-14.8 29c-8 29.9-9.3 67.7-11.9 98.8-2.8 34.8-6.8 69.5-8.7 104.3-1.2 21.6-.9 43.4-1.4 65-2 .6-4.1.7-6.2 1Zm119.4 25.6c-2.3 1.2-6.2 2.9-8.9 2.2-1.5-.4-2.3-1.6-2.8-3-1-3.5-2-21.7-2.6-26.8-3.7-36.5-8.5-73-12.8-109.4-6-51.7-9.6-103.2-23.5-153.6-3-11.3-6-23-12.6-32.9 7.4 0 16.4 1 22.2 6a39 39 0 0 1 9.1 17.2c2.7 8.6 4.2 17.7 5.9 26.5A2353.7 2353.7 0 0 1 499 325c2.5 33.3 4.6 66.7 6.3 100.1.2 3.8 1 8.3-1.7 11.3Z"/>
  <path fill="#FEFEFE" d="M410.7 195.9c.6-10.8 2-21.8 3.8-32.5 2.5-14.7 5.8-37.4 18.8-46.6.8 0 1.2 0 1.9.5 5.3 3.8 9 21 10.7 27.4-4.8-.3-16.3-1.7-20.4.7-5.7 3.3-10.5 32.4-12 39.5-.8 3.7-1.3 7.5-2.8 11ZM555.4 125c3.9-3.2 7.6-5.6 12.3-7.5 11.3.3 23.1 3 34.2 5.2 20.7 4 41.4 8.2 62 13 10.3 2.3 21.5 4 31.6 7.5a42 42 0 0 0-11 5c-9.2-2.2-18.5-3.8-27.8-5.6-33.7-6.7-67.6-11.6-101.3-17.7Zm-12.1 12.3c4.5-1.8 8.2-4 13-4.6 7.8.2 15.7 1.8 23.3 3a1403 1403 0 0 1 51.6 8.4l31.8 5.7c6 1.2 12.4 2.2 18.3 4.1-4 2.5-8.3 4.4-12.7 6.3-8.6-1-17.5-3.4-26-5l-72-13.2c-9-1.6-18.2-4-27.3-4.7Zm-3.7 15.7 2.2-10.6c9.6 2.1 19.3 3.7 29 5.6l55.8 10.6c11.5 2.2 27.1 4 37.7 8.2 2.7 1 3 2 4 4.5-1.2 13-3.9 26-6.1 39-5.7 31.8-12.4 63.6-18.8 95.3-2.4 11.8-5.3 23.6-7.3 35.5l-8.8 4.3a241 241 0 0 0-14 8c.6-7.4 2.4-15 3.8-22.3 1.8-9.4 3.4-18.7 5-28 5.1-28 9.6-56 15-83.8a1443 1443 0 0 1 4.4-21.8c1.4-6.7 3.6-13.2 3.6-20-3.8-5-93.3-22.2-105.5-24.6Z"/>
  <path fill="#FEFEFE" d="M635.6 186c-4.9.4-24-5.5-30.4-6.9l-121.7-26.8c-1.3-1-1.1-2-1.3-3.6 16.4 4.6 33.5 8 50.2 11.6 23.6 5.4 47.2 10.7 70.9 15.8 10.3 2.2 21 3.8 31.3 6.5 1.1 1.2.9 1.8 1 3.4ZM399.5 323.2c.7-9.4 1.7-18.8 2.6-28.1.7-8.5 1.3-17.2 2.7-25.6 3.5-21.3 9.4-42.2 13.9-63.3 2.5-11.8 5-23.7 7.7-35.5 1.3-5.3 2.3-10.8 4-16 6.9 1 13.4 3 19.7 5.6a186 186 0 0 1 7 30.4c3.7 20.8 5.8 41.9 8.2 62.9 3.2 27.6 6.7 55.3 9.4 83-8.6-2.6-17.7-3.9-26.5-5.4-16.2-2.6-32.7-4.5-48.7-8ZM684 172.4a21 21 0 0 1-1-8.5c.4-1.7 1.6-2.1 3-3l.7.2c.7 3-1.7 8.4-2.6 11.3ZM506.8 342c-3.7-39.4-8.1-78.7-13.2-117.8-2.6-19.7-6.5-39.2-8.5-58.9 35.1 8.1 70.3 15.8 105.6 23-2.6 10.6-4.3 21.7-6.5 32.5l-21.6 108-5.4 27.1c-16.7-4.5-33.4-10.5-50.4-14Zm166-101.4-.4-.5a362 362 0 0 1 9.7-45.3l.6.6a267 267 0 0 1-10 45.2ZM665 242c-.2-.2-.3-.2-.4-.5-.8-2.7 8.7-42.5 10.4-46.3l.7.6c.1.6.2.6.2 1.4 0 3.6-7.6 39-9.1 42.9-.4.8-1 1.4-1.7 2Zm-78.4 39c-1.3 0-.7.2-1.7-.5-1.5-5.3 10.9-70.2 13-81 1 .6 1.9.8 2.5 1.9-.2 7.8-10.8 74-13.8 79.6Zm11.3 4.8c-.6 0-1 0-1.5-.2-.6-1-.6-2-.5-3.1 1-9 3.6-18.3 5.1-27.3 3-17.3 5.5-34.8 9.4-52 1.3.6 1.6.5 2.5 1.6-.9 9.8-3.4 19.8-5 29.5l-6.1 33.5c-1.2 6-2.2 12.2-4 18Zm12.6 4.1c-.7 0-1-.2-1.8-.4-.6-1.5-.1-3 .1-4.5 2.3-13.6 5.6-27 8-40.6 2.2-12.7 3.4-25.7 6.2-38.3a6 6 0 0 1 2.4 1.5c1.5 8.2-11.9 70.6-14.9 82.3Zm43.2 44.1-.5-1c-.9-3.6 14.5-74.7 17.1-79.1-.3 5.8-2 12-3.1 17.6l-6.6 31.2c-2 9.2-4 22.7-7 31.3Zm-7.4-.8-.5-.6c-.7-6.2 14.1-71 16.7-78 .7.7.7.8 1 1.6-2.5 12.4-5.8 24.5-8.4 36.8-2 10-5.2 32-8.8 40.2Zm-274.7-14.8c-.6-.5-.3-.1-.9-1.1.4-10.4.8-23.2 4.5-33 1.4 4.1.6 29.3 0 34.5-1.2.6-2.4 0-3.6-.4Zm-61.5-16c-.7 0-.3 0-1.2-.4 4.1-2.5 15-2.6 20-3.6 13-2.5 26.5-6.5 38.8-11.4l.6.2c-1.3 1.6-5.1 2.6-7 3.3a208.4 208.4 0 0 1-51.2 11.9Zm64.9 27.3c-16.3-1-57.1-8.6-70-18.1-1.8-1.4-2-2.7-2.3-4.8 4.6 1.4 9 3.5 13.6 5.1 6.2 2.3 12.6 4 19 5.6 12.8 3.1 26.1 4.4 38.7 8.4 1.1 1.2.9 2.2 1 3.8Z"/>
  <path fill="#C1C1C2" d="M689.6 315.5c-3.6 0-9.4-2.8-12.2-5 4.2.5 8.6 3 12.2 5Z"/>
  <path fill="#FEFEFE" d="M317.8 722c-1-22.8-1.4-45.6-2.4-68.3l-4.3-87c-2.2-49.9-3.8-99.7-4.7-149.6-.9-33.3-2.9-66.8-3-100.1 21.6 12.5 47 15.7 71.2 19.3.4 10.2-2.8 74 .4 77.7 2.3 2.5 5.3 2.7 8.4 3 3.4.2 8.2.5 10.8-2 1.7-1.6 2-4.8 2.3-7 1-6.2.6-13 .7-19.3.3-15.5 0-31 1-46.4 7.4.4 15 2 22.3 3.2 19 3.1 37.9 7 56.8 10.3 2.9 20.3 4.6 40.8 6.8 61.3.6 6.3.8 12.9 1.8 19.2.3 2.1.7 4.9 2.3 6.5 1.6 1.8 4.6 2.3 6.9 2.3a20 20 0 0 0 14-5.4c1.4-1.5 2-3 2.2-5 1-8.1-.2-17.2-.6-25.4-.8-15.9-1.8-31.9-2.3-47.8 10.5 3.5 21.3 6.5 32 9.7 16.6 5 33.4 10.6 50.8 12.4.6 16.8 0 33.8 0 50.6.2 22.8.7 45.5 1.5 68.3.9 30.7 2.7 61.5 4 92.3.9 20.4 1.1 40.8 2.2 61.2 1.1 20.2 3 40.3 4 60.5 2.3 43.5 2.3 86.8 7.7 130.1 4.2 30 9.7 59.7 11.5 90-16.3-4.9-32.8-9.1-49.1-14a2740.2 2740.2 0 0 1-100.3-33c-14.3-5-28.1-11.1-42.2-16.7-13-5.3-26.3-10-39.5-15-14-5.3-28.4-9.7-42.5-14.5-6-2-12.3-3.7-17.9-6.3-6.3-3-8.4-9.1-10.7-15.2a429 429 0 0 0 43 14c1.4-.5 1.9-1 2.8-2.1 0-.8 0-1-.4-1.8-3.6-4.8-38.2-14.5-45.8-15.9 0-13 1-26 1-38.8 0-8.5-.2-17-.7-25.5-.3-5-1-10.3-.7-15.2.2-3.8 1.6-7.6 2-11.4-.7-1.5-2-2.3-3.3-3.2Zm73.4 118.2a5 5 0 0 0-2.1 2c.3 1.3.5 1.7 1.6 2.4 3.3 2 13.9 4 18.3 5.3 15.6 4.7 31.3 9.8 46.8 14.9 10.6 3.5 21.1 7.4 31.4 11.7 7.5 3.1 14.8 6.6 22.5 9.4 17.7 6.5 36.3 11.4 54.4 17 10 3 28.8 9.2 38.8 9.4 1.1-1 1.6-1.6 2-3-.4-1.3-.7-1.8-1.8-2.4-1.4-.7-23-5.8-26.9-6.8-18.4-5.3-36.7-10.8-55-16.6-13-4.1-25.3-10-38-15-18.4-7-37.1-13.2-55.9-19.3-11.4-3.7-24-8.4-36.1-9ZM571 360.7c-1.2-.5-1.6-.5-2.3-1.6.3-8 4.6-27 7-35 1.2.5 1.5.5 2.2 1.5-1.4 11.7-4.4 23.6-7 35.1Zm10.4 2.2-1-2c0-4.7 5.7-31.8 8.2-35 .5.4.8.6.9 1.3.3 3.3-6.4 33.5-8 35.7Zm15.6 7.6c9.6-5 18.5-11.3 27.9-16.6a217 217 0 0 1 55.1-21c6.3-1.2 13.7-1.7 19.5-4.3l.9 1.5c-.3 1-.4 1.2-1.4 1.7-3.8 1.9-9.3 2.7-13.4 3.7-7.6 1.9-15.2 3.7-22.7 6-15.6 5-31 11.5-44.7 20.6-6.5 4.3-12.3 10-19.2 13.7l-.6.3-1.3-5.6ZM476.2 349c-7.2-1.2-75.5-12.9-77.2-14.2-.5-1.4 0-2.7.2-4.1 11.2 1.5 71 11.2 76.2 14.4 1 1.2.8 2.4.8 3.9Zm117.5 15.4-.5-.3c-1-4.7 3.4-26.2 5.4-30.8l.5.4c1.5 3.7-4 26-5.4 30.7ZM654 352c8.9-4 18.3-6.5 27.8-8.8 6-1.5 12.2-2.7 18-5.2l.5.2c.7 6.2 0 13 0 19.2l.1 36.3-.3 128.8c0 5.4.9 11 .8 16.5a3414 3414 0 0 0 3.1 159.7c2 32 5.8 63.8 9.2 95.6 2.4 22.7 4 45.6 7.4 68.2-9-6.7-19.3-11.5-28.6-18-8.3-6.4-16.6-13.8-25.7-19.1 2-8.7 1.7-18.6 2-27.5.5-10.7 1.1-21.5 1.2-32.2 0-21.5-1.2-43.3-2.1-64.8l-5.8-140.1c-1.5-36.4-1-72.9-2-109.3-.9-33-3-66.4-5.6-99.4Zm-63.3 25.5c-16.3-.5-44.3-11-61-16.2-7-2.2-14.3-3.8-21.2-6.1-.8-1.4-.5-3.3-.5-4.9 22.1 4.2 43.2 13 65.2 17.4 3.6.7 12.8 1.3 15.3 3.6 1.6 1.4 1.9 4.3 2.2 6.2Z"/>
  <path fill="#FEFEFE" d="M598.7 382.4c8.4-3.9 16-9.8 23.7-14.8 8-5.1 16.4-9.3 25.1-13.1l.8.8c2.3 34.6 4 69.2 5 103.8.8 31 .3 62.1 1.8 93.2a6856 6856 0 0 1 6.5 156.9c.8 20.3 2 40.6 2 60.9-.1 10-.9 20-1.4 30.1-.4 8.6-.3 17.7-1.8 26-1.1 6.4-9.5 22.4-12.5 29-6.7 14.8-12.4 30.4-20.4 44.5-.7-3.2-1.2-6.6-1.7-9.8-4.2-26-8-52-10-78.2-2.7-35.2-3-70.3-4.7-105.5-1-19.7-3-39.3-4-59-1-20.6-2-41.2-2.6-61.8a5112 5112 0 0 1-3.2-71 4235 4235 0 0 1-1.8-71.7c-.2-20 0-40.2-.8-60.3Zm90.6 499.9c-5.9-16-14.6-31-20.2-47 6.2 2.2 17.3 13.2 23.5 17.4 8.6 5.7 18.7 9.4 26.6 15.8-3.2 1.6-6.7 2.9-10 4.2-6.9 2.7-13.4 6.2-20 9.6Zm-59.9 25.5c9.9-15.1 16.5-31.9 23.5-48.4 3-7.2 5.8-14.9 9.8-21.6.4.4 19.4 42 20.8 45.6-16.5 8.9-29.6 25-42 38.7a162 162 0 0 1-10.3 10 735 735 0 0 1-1.8-24.3Z"/>
  <path d="M603 912.3c-10.1-.2-29-6.3-38.9-9.4-18-5.6-36.7-10.5-54.4-17-7.7-2.8-15-6.3-22.5-9.4a398.2 398.2 0 0 0-31.4-11.7c-15.5-5.1-31.2-10.2-46.8-14.9-4.4-1.3-15-3.3-18.3-5.3-1-.7-1.3-1.1-1.6-2.3.6-1.1 1-1.5 2-2.1 12.2.6 24.8 5.3 36.2 9 18.8 6.1 37.5 12.2 55.9 19.3 12.7 5 25 10.9 38 15 18.3 5.8 36.6 11.3 55 16.6 3.9 1 25.5 6 26.9 6.8 1.1.6 1.4 1.1 1.8 2.3-.4 1.5-.9 2-2 3ZM436.5 713c-17-7.6-26.5-20.5-35.1-47.8a43.7 43.7 0 0 0-2.7-7.1c-.4-.4-2.8.8-5.4 2.5a58 58 0 0 1-34.7 8.6c-12.5-.5-20.9-9.7-18.4-20.4 2.8-12.3 16.5-21.8 32.2-22.3 3.4-.1 6.7.4 12 2l7.4 2.2 2-4.2a975.3 975.3 0 0 1 16.6-32.2c3.6-6.6 4.5-8.7 4-9.4-.3-.3-2.3-1.5-4.6-2.6a53 53 0 0 1-20.3-16.3c-6.3-8-9-14.5-10-23.8-.7-8 1.4-13.3 6.3-15.3 2.4-1 6.5-.2 7.5 1.5.4.6.3 3.2-.3 6-3.4 14.5 4.4 31.8 18.7 41.7 4.3 3 7 3.2 7.6.7.2-.9 1-2.8 1.8-4.2.8-1.5 2.3-4.7 3.3-7.2a176.2 176.2 0 0 1 6.3-13c4-7.7 13.2-22.2 17.8-27.8A41.9 41.9 0 0 1 471 509c5.4-1.2 6.5-1.2 13.3.4 8.7 2 12.6 4.6 15.3 10.2 1.6 3.2 1.6 4 .2 9.5a48 48 0 0 1-12.6 22.7c-10 12-26.1 24.1-41 30.8-4.3 2-5.9 3-6.2 4.5-.2 1-1.4 3.8-2.6 6.2L425.6 617c-3.6 7.5-9.4 17.7-13.2 23.4L410 644l3.7 6.3c3.3 5.7 6.3 13 12 29 6.3 18.4 11.6 25.8 21.7 30.4 3.3 1.4 4.7 1.7 8.3 1.3 2.4-.2 5.5-1 6.9-1.7l2.5-1.3 2.4-11.8c2.4-11.2 2.6-12 5-14.6 3.4-3.7 7.2-5 12-3.8 3.3.7 4.3 1.4 6.3 4.2l2.4 3.2-1.7 7.2a22.7 22.7 0 0 1-5.4 11.6 41 41 0 0 1-19.5 12.3 47.2 47.2 0 0 1-30.3-3.2zm-72.6-53c6-1.5 13.4-8 19.5-17 4.1-6 3.7-6.4-9.4-9a22.1 22.1 0 0 0-15.6 1.2c-4.7 2.1-10.2 7.9-11.2 11.7a10.6 10.6 0 0 0 5.5 12 24 24 0 0 0 11.2 1.2zm89.5-87.7a70 70 0 0 0 21.5-17.9c9.4-11.6 15.1-22.7 15-29.2-.2-7-5-10.2-10.2-6.7-6.8 4.6-17.2 19.7-24.7 35.9l-4.7 9.6c-3.5 6.7-5.6 12.3-4.8 12.5.4 0 4-1.8 8-4.2zm20.4 80.4c-15-8.6-20.1-26.4-13-45.7a94.5 94.5 0 0 1 26.7-38 37.5 37.5 0 0 1 42-2.6c8.5 5.4 11.1 12.7 8.6 23.6a32.7 32.7 0 0 1-10.2 17.9 38.3 38.3 0 0 1-35.8 10.5c-9.8-1.7-9.3-2-12 9.3-1.3 5.5-1.5 8-.9 11.6 1.1 6.8 3 8.6 10.8 10.4 5.8 1.3 7 1.3 11.9 0a64 64 0 0 0 20.6-11.7c3.6-3.4 5.3-3.2 4.4.3-1 4.7-11.2 12.6-20.5 16a37 37 0 0 1-22.2 1.5c-4.2-.8-8.8-2.2-10.4-3.1zm26-40a34 34 0 0 0 21.7-13 40.1 40.1 0 0 0 5.8-14.6c.2-4-2.5-8.4-5.5-9.1-2.4-.6-7.4.8-10.2 2.9a87.2 87.2 0 0 0-20 24c-5.6 9-5.6 8.8.3 9.5 2.8.3 6.3.5 8 .3z"/>
  <ellipse cx="512.4" cy="509.8" fill="none" rx="508.9" ry="508"/>
</svg>