<?xml version="1.0" encoding="UTF-8" standalone="no"?>
<!-- Created with Inkscape (http://www.inkscape.org/) -->

<svg
   width="68.516754mm"
   height="68.516747mm"
   viewBox="0 0 68.516754 68.516747"
   version="1.1"
   id="svg1"
   xmlns="http://www.w3.org/2000/svg"
   xmlns:svg="http://www.w3.org/2000/svg">
  <defs
     id="defs1" />
  <g
     id="layer1">
    <path
       id="path13616-0-6"
       style="fill:#458a70;fill-opacity:1;fill-rule:nonzero;stroke:none;stroke-width:0.352778"
       d="M 0,0 V 68.516748 H 68.51675 V 0 Z m 26.176697,3.601847 c 0.609226,-0.0093 1.221189,0.02331 1.827795,0.09198 4.246748,0.469923 27.824078,5.812985 30.446718,9.248015 2.30232,2.948671 1.74808,6.484441 1.85105,9.900687 0.0708,1.308471 -1.42088,11.774573 -0.94258,13.004891 0.45349,1.16726 1.02607,2.294262 1.57045,3.425631 0.89356,1.687159 1.59501,4.154896 -1.15342,4.050916 -0.88919,-0.07077 -1.78591,-0.353062 -2.58589,-0.395325 -1.88606,-0.200916 -2.39523,1.679683 -2.72696,3.307808 -0.88081,3.581273 -2.10271,8.354269 -5.09633,10.785388 C 45.20934,60.059396 19.127469,55.159411 14.721065,52.90271 11.644599,51.26687 8.903336,48.425232 8.452197,44.959009 7.684087,38.937225 9.68979,33.079876 11.028784,27.298588 c 0.531304,-2.0474 2.786593,-13.317573 3.671094,-15.251265 1.346709,-2.841338 3.519192,-5.400734 6.278686,-7.07347 1.566744,-0.939342 3.370454,-1.344102 5.198133,-1.37201 z" />
  </g>
</svg>
