<svg xmlns="http://www.w3.org/2000/svg" xml:space="preserve" viewBox="0 0 270.2 268.4">
  <g transform="translate(-56.6 30.1)">
    <ellipse cx="191.7" cy="104.1" fill="#fff2e3" rx="135.1" ry="134.2"/>
    <path d="M189.8 188.6a753 753 0 0 1-57.4-27.8c-4.5-3-8.5-8.3-10.4-13.9a26.2 26.2 0 0 1 3-22.5 2354 2354 0 0 1 34-29.3c.3-.2.6-1.7.7-3.2.1-1.5.4-3 .6-3.2a54 54 0 0 1 5.7-3l5.5-2.5.3-15.9.3-15.8 5.5-2.8L183 46l1.8-7.9a559.4 559.4 0 0 0 5-24.5c.3-.8 1.6-.5 2.2.4 1.5 2.4 6.6 14.7 8.8 21.3l1 3 6.3 3.1c5.6 2.7 6.5 3.3 7 4.4.5 1 .7 3.3.9 11.9l.2 10.6 3.3.8c1.9.5 3.7 1 4 1.3 1.3.7 2 3 2.3 6.7.1 2.8.3 3.6.8 3.8.3 0 3.8 1.4 7.7 3a141 141 0 0 1 29 14.7c1 1 1.2 1.5 1.3 3.2v2.1l-2.4 2-2.4 1.9v4.8l2.9 1.6 4 2.1c2 1 2.4 2 2 5.1-.2 2-.5 3-1.1 3.5a2054 2054 0 0 1-73 63.4c-1.5 1-3.7 1-4.8.3zm11.7-10.4a546.4 546.4 0 0 0 18.7-16.3l-5.5 4.5c-7.2 6-19.8 16-21.4 17l-1.4.9-3.3-1.8a632 632 0 0 0-48.3-22.8c-5.8-2.5-7.3-3.5-10.2-7.3a17.5 17.5 0 0 1-4-12.5c.1-3.6 1.1-6.3 3-8.6l1-1.1 2.4 1 18 7.8a509.1 509.1 0 0 1 37.8 17.3c.2 0 .2-.3.2-.7 0-1.3-13-8.6-23.6-13.2a833 833 0 0 0-39-15c-.7 0-2.5 5.7-2.9 9.5-.7 7.7 2 14.2 8.2 19.5 3.4 2.9 31.1 16.7 53 26.3 3.8 1.7 7 3.3 7 3.6 0 .8.9.9 1.1.2.1-.4 4.3-4.1 9.2-8.3zm-1.6-2.7a804.7 804.7 0 0 0 65-57.4c0-.4-5-3.2-5.7-3.2-.1 0-.2 1.5-.1 3.4l.2 3.5-2.9 3c-9.6 10.3-20 19.6-36.8 33a1051.9 1051.9 0 0 0-22.9 18.6 63 63 0 0 0-5.5 4.8c0 1 1.5 0 8.7-5.7zm-11.7 2.5c0-1.6-.1-1.8-1.6-2.7a391.7 391.7 0 0 0-26.2-14c-1.2-.5-1.3-.5-2.4.5l-1 1-2.4-1.1-6.5-3c-4.1-1.8-4.8-2.4-3.5-3.5.9-.7.7-1-.4-1.4a702 702 0 0 1-14-5.6 18 18 0 0 0 3.6 5.2 10 10 0 0 0 3.8 2.7 551.7 551.7 0 0 1 50.3 23.5c.1 0 .3-.7.3-1.6zm24-17a517 517 0 0 0 28-23.4 244 244 0 0 0 16.5-16.5 854.3 854.3 0 0 1-26 21.7L215.5 156a378.9 378.9 0 0 1-21.6 18.2c-2.6 2-3.5 2.9-3.5 3.5 0 .8.5.5 3.5-2l18.4-14.8zm-16.3 9c2.3-1.8 11-9.3 13.5-11.6 4.8-4.3 17.2-15 22.3-19.2 9.6-7.9 12.4-10.2 17-14.2 7.4-6.5 8.1-7.2 8-8.1-.1-.8-.4-.6-2.8 1.4a362 362 0 0 1-14.5 11.7c-7.2 5.5-11.7 9.1-19.2 15.5L202 161l-11.6 9.8v3.3l1.4-1 4-3.2zm-8.4-.4c-.7-1-2.7-2-16.1-8.7l-8.4-4.2-1 1.2-1 1.2 8.3 4.3c4.5 2.3 10.5 5.5 13.4 7.2l5.3 3v-1.5a3 3 0 0 0-.5-2.5zM201 159l17.8-15.2c7.5-6.4 14.1-11.7 25-20.2 7.8-6 12.8-10.3 13-11.3.1-.6-.1-.5-1.1.4a2179.9 2179.9 0 0 0-56.7 44.2l-8.8 7v2l.1 2c.2 0 5-4 10.7-8.9zm-13.1 6.5c0-1-.2-1.7-.4-1.7a155.2 155.2 0 0 0-18.2-9.3l-3-1.3-.7.8-.7 1a23 23 0 0 0 4 2.3 417.7 417.7 0 0 1 18.9 9.9v-1.7zm-.6-6c-.2-1.3-.4-1.5-6.3-4.5-8.5-4.2-13.7-6.6-30.6-13.8l-17.1-7.4c-2.3-1-2.4-1-3-.4l-.4 1.2c0 .8 11.8 6.2 24 11.2a251.4 251.4 0 0 1 33.6 15.3c0-.2 0-1-.2-1.7zm31.3-21a3740.4 3740.4 0 0 1 36.4-28.2c0-.3-2 1.1-6.4 4.5l-21 16c-14 10.5-26.6 20.3-31.9 24.6a29 29 0 0 1-5.6 3.8c-.8 0-.8.2-.5 1.4.2.8 1.6-.2 12.6-9a4375 4375 0 0 1 16.4-13.1zm4.2 21.4 1-1.2-1.2 1c-1 1.1-1.3 1.4-1 1.4l1.2-1.2zm-63-3.6c4-4.2 4.2-3.5-1.6-6.2l-3.9-1.8-2.1 1.8a27.8 27.8 0 0 0-5.4 5.5 87.6 87.6 0 0 0 9.3 4.4l3.6-3.7zm65.6 1.4.5-.7a3 3 0 0 0-.9.7l-.5.8c.1 0 .5-.3.9-.8zm-24.9-9A2418 2418 0 0 1 245 115l10.7-8.3c3.3-2.6 6-5 6-5.2 0-.4-.1-.4-.4-.2l-5.8 4.5a4011.9 4011.9 0 0 1-64.7 48.4c-.2.1-.2.7 0 1.2l.2 1 1.2-1 8.3-6.5zm-51.9 2.9.9-.9-5.6-2.2a289.3 289.3 0 0 1-15.4-6.5v1.7c.3 1.4.3 1.4 4.1 2.9l9 3.6a52 52 0 0 0 5.6 2.2c.3 0 1-.3 1.4-.8zm47-4 13.3-9.8a2457 2457 0 0 0 50.9-38.4c.4-.3.5-.6.2-.8-.8-.8-13.5-7.3-18.6-9.6-7.3-3.2-15.8-6.4-16-6.1-.2 0-.1 4.7 0 10.3.4 9.5.4 10.1-.3 10.7a221 221 0 0 1-16.3 9c-1.6.6-9.2-2-10-3.5-.3-.5-.2-1.5.2-3.4.7-3 1-7 .6-8-.2-.6-.4-.5-1.3.6-2.3 2.7-3.4 7-3.8 15.4-.3 6.6-.3 6.5-2.4 7.6l-8.4 4.6c-3.7 2-7 3.7-7.5 3.7-.9 0-7-3.2-11.6-6.1a40 40 0 0 0-4.2-2.4c-.8-.3-.8-.6-.8-12 0-6.3 0-11.6-.2-11.6a680.4 680.4 0 0 1-10.4 8.7l-17.5 15.2a17.4 17.4 0 0 0-3.6 3.6c.1.2 4.5 1.9 9.7 3.8a268.3 268.3 0 0 1 51.3 23.3l6.6-4.8zm-43.3.7c.6-.7.6-.7-.4-1.1-4.2-1.6-13-5.4-17.5-7.6-3-1.4-5.5-2.5-5.7-2.4-.2.1-.4.7-.4 1.2 0 .8.6 1.2 4.7 3.1a234.8 234.8 0 0 0 16.6 7.2c1.2.5 2 .4 2.7-.4zm96.6-11.5c.5-.5.8-1 .7-1l-1 1c-.5.5-.8 1-.7 1l1-1zm13-11.6c2-1.8 3.7-3.6 3.8-4 .2-.4 0-.4-.6.2a555.6 555.6 0 0 0-10.9 10.7c2.2-2 5.6-5 7.6-7zm-76-2.7 6-3.4.4-5.3c.3-9 1.6-14 4.2-16.8 3.2-3.6 8.2-4.4 11.2-1.8 2 1.9 2.8 4.5 2.8 9.8 0 2.5.1 4.5.2 4.5l4.4-2.4 6.2-3.4 2-1v-7.3c0-9.9-.4-22-.8-22-.2 0-6.7 3.6-40 22.8l-5.7 3.3.3 9.8.2 13.9v4l1.3-.7 7.2-4zm-10.9 3.3c-.1-.8-1-1.5-6.5-4.7a147 147 0 0 0-6.6-3.7c-.2 0-.3.4-.2 1 0 1 2.5 2.8 8 5.8l3.7 2.1c1.3.8 1.7.6 1.6-.5zm0-4.5c0-1-.3-1.3-6-4.4-3.4-1.7-6.4-3.3-6.7-3.3-.3 0-.6.1-.7.4 0 .4 2 1.8 6.6 4.5l6.8 3.8v-1zm0-4.5c0-1-13.1-7.5-13.1-6.6 0 .4 2.2 1.7 6.3 3.9l6.6 3.3c.1 0 .3-.3.2-.6zm-.1-4c-.3-.8-1.2-1.3-7.8-4.8-4.5-2.3-5.2-2.6-5.2-2 0 .5.6 1.2 1.5 1.8 1.8 1.2 11.4 6 11.6 5.7l-.1-.7zm84.5-2.4c-.1-.4-.2-.1-.2.6s0 1 .2.7v-1.3zm-51.4.3c.3-.4-6.8-3.3-7.2-3-.4.5.5 1.1 3.5 2.2 3.4 1.2 3.4 1.2 3.7.8zm-33.1-2.6-.3-1.5-11.8-5.8c-.9-.3-1-.2-1 1 0 .7.2 1.3.4 1.3s3 1.4 6.3 3.2c3.3 1.8 6.2 3.2 6.3 3.2.2 0 .2-.6.1-1.4zm33.6-1.1c-.1-.5-1-1-3-1.7-3.1-1.2-4-1.3-4-.6a21 21 0 0 0 6.8 3l.2-.7zm-33.8-3.3a14 14 0 0 0-4-2.7l-6.5-3.5c-2.3-1.3-2.3-1.3-2.3-.4 0 .8.5 1.1 3.2 2.4l6.4 3c3.6 2 3.2 1.9 3.2 1.2zm33.8-.7c0-.6-.7-1-2.9-1.8-3.5-1.3-3.9-1.3-3.7-.3 0 .6.8 1 3 1.8 3.5 1.3 3.8 1.4 3.6.3zm-33.8-3.7c0-1-.2-1.2-2.5-2.2a142.1 142.1 0 0 1-10.1-5.3l-.2 1c0 1 .5 1.3 6.1 4.3l6.4 3.3c.2 0 .3-.4.3-1zm33.3-.4a6 6 0 0 0-1.3-1.8c-.8-1-1.3-1.2-2.7-1.2-3.5 0-3.1 1.1.9 2.7 3.3 1.3 3.3 1.3 3 .3zm-26.4-4.7c3.6-2 4.6-2.8 3.7-2.8-.4 0-5.8-3-9.1-5l-2.9-1.8-5.2 2.5c-4.7 2.2-5.1 2.5-4.5 3 1.7 1.1 12.8 6.6 13.4 6.5a42 42 0 0 0 4.6-2.4zm6-4.8c0-.8-.5-1.8-.8-1.8-.4 0-9-4.7-11.3-6.1l-1.6-1v.9c0 .7.7 1.3 3.2 3 3 1.9 9.5 5.5 10.1 5.5.2 0 .3-.2.3-.5zm13.3-6.3a4538 4538 0 0 0 11.9-6.8l.8-.5-.2-13.6-.4-13.7a540 540 0 0 0-23.7 12.8c-.4.3 0 28.2.3 28.2.1 0 5.2-2.8 11.3-6.4zm-13.8 1c0-1.3 0-1.3-5.7-4.5-8.3-4.6-7.5-4.3-7.5-2.8 0 1.2.2 1.4 4.8 4l6.4 3.7c2 1.1 2 1.1 2-.4zm0-4.6c0-.7-1.2-1.4-11.3-7.4l-1.9-1.1v1c0 1 .5 1.4 6.4 4.6 3.4 2 6.4 3.5 6.6 3.5l.2-.6zm-.2-5.8a152 152 0 0 0-6.7-3.6c-5.7-3-6.3-3.2-6.2-2.4.1.7 1.6 1.7 6.5 4.7l6.4 3.9.2-1.2c0-.6 0-1.2-.2-1.4zm33.5-2c.3-.2-.5-.5-3.6-1.2l-1-.3v4.4l2.1-1.2 2.5-1.5zM187 70.4c0-.7-1-1.3-6.2-4l-6.6-3.4c-.2 0-.4.3-.4.8 0 .7 1 1.3 6.4 4.2l6.6 3.3c.1 0 .2-.4.2-.9zm-.3-4.4c0-.7-1.2-1.4-6.3-3.8-3.5-1.7-6.4-3-6.5-2.8-.5.5.9 1.5 6.2 4.3l6.3 3c.1 0 .3-.3.3-.7zm0-3.7-.5-.9c-.5-.6-11.3-6.3-12-6.3-.2 0-.4.3-.4.7 0 .6 1.3 1.4 6 3.8 5.8 2.9 6.9 3.3 6.9 2.7zm11.7-8.3 12.2-6.7 2.2-1.2-5-2.5a55.3 55.3 0 0 0-5.2-2.3l.4 2.4c1 3.4.8 3.7-1.6 6.1-5.2 5.2-12.2 6.3-16.4 2.6-.9-.8-1.8-2-2.1-2.6l-.5-1.1-3.2 1.7c-4.7 2.3-4.5 2.1-2.5 3.3a123 123 0 0 0 11.5 5.8l10.2-5.5zm-4-2.3a17 17 0 0 0 6.4-4.6c.6-1 .5-1.3-1.1-6.8-2-6.5-4.5-13.5-6.3-17.6-1.3-2.8-1.3-2.9-2-2.2-.7.7-.7.8 0 1.2.9.7.6 2.2-.5 2.4-1.5.2-1 1.2.5 1 1.1 0 1.5.2 1.6.7.2 1-.6 1.7-2.2 2-1 .2-1.5.4-1.6 1-.4 1.3 1.4 2 2.4.8.6-.7 1.6-.7 2.2 0 .4.5.4.8-.5 1.6-.7.8-1.5 1.1-3 1.2-1.6.2-2 .4-2 1-.2 1.3 1.7 1.6 3.7.7 1.4-.6 1.5-.6 2 0 .6.5.6.6 0 1.5-.7 1.1-2.5 1.6-5 1.2-2.4-.3-2 1 .9 2.2.9.5 1.2.5 2.1 0 1.3-.7 2.2-.3 2.2.9 0 .7-.3 1-1.4 1.5-1.4.6-3 .4-4.8-.5-.6-.3-1.1-.5-1.2-.4-.5.5.5 1.8 2 2.5 1.4.7 1.8.8 2.6.4 1.1-.6 2-.3 2 .9 0 1.8-3.3 2.3-5.9.8-1.4-.8-1.6-.8-1.6-.3 0 .4.6 1.3 1.3 2 1.3 1.2 1.6 1.3 3.7 1.3s2.4 0 2.5.8c.2 2-4.2 2.2-7 .4-1-.6-1.6-.9-1.6-.7 0 .7 2 2.8 3.2 3.3 1.5.7 4.6.6 6.5-.2zm-65.7 41.2c-.2-.1-.5-.8-.5-1.6 0-2.4-1-5-2.3-6.4-1.1-1-1.7-1.3-3.6-1.5-2.5-.2-3.2-1-1.3-1.4a9.9 9.9 0 0 0 5.5-2.8c1.2-1.4 1.6-2.4 1.8-5.1.1-.7.3-1.1.7-1.1.4 0 .6.6.8 2.2.2 1.2.7 2.7 1 3.4 1 1.4 4.1 3.2 5.8 3.2 1 0 2 .8 1.6 1.3l-1.7.2c-3.6 0-5.6 2.2-6.4 6.6-.5 2.8-.6 3.2-1.4 3zm2.5-10c.1 0 .5-.1.7-.3.4-.2 0-.7-1.2-2l-1.7-1.7-1.7 1.7c-1 1-1.6 1.8-1.3 1.9a7 7 0 0 1 2.8 2.8c.3.7.4.6 1.2-.8.5-.9 1-1.6 1.2-1.6zm125.7-4c-.8-6-2.1-7.6-6.2-8-2.9-.3-2.7-1 .3-1.9 3.7-1 5.5-3 6-6.7.2-1.6.4-2 1-2 .5 0 .6.3.6 1.7 0 3.9 2.5 6.6 6.8 7.2 1.1.2 1.5.5 1.5 1 0 .6-.3.7-1.8.7-3.5 0-5.9 2.8-6.4 7.3-.1 1.7-.3 2.1-.9 2.1-.5 0-.7-.4-.9-1.4zm1.7-6.9a5 5 0 0 1 1.7-1.8c.6-.5 1-.8.7-.8-.2 0-1-.7-2-1.5l-1.5-1.6-.6 1c-.3.5-1 1.2-1.7 1.6l-1.1.7 1.4 1c.8.4 1.6 1.2 1.8 1.7.5 1.1.8 1 1.3-.3z"/>
    <path fill="#fce8c9" d="m185.1 160-4.2-2.2c-5.9-3.2-14-6.8-27-12a465 465 0 0 1-20.7-9c-2.5-1.3-3.3-1.9-3.3-2.2 0-.5.7-1.4 1.1-1.4.5 0 31.6 13.4 39.5 17 6.2 3 15 7.4 15.8 8.1.7.6.8.8.9 1.7v1l-2-1zm-39.9-13.1c-10-4.2-16-7-16.6-7.8-.3-.5-.3-1.2 0-1.5.2-.2 2.2.6 6.4 2.6a341.8 341.8 0 0 0 17.3 7.5c.4.3-.9 1.3-1.6 1.3-.3 0-2.8-1-5.5-2.1zm-1.2 4.4-8-3.3c-6-2.5-7-3-7.1-3.3l-.3-1.4-.1-1 .5.1 4.5 2 14 5.8 1.8.7-.9.8a3 3 0 0 1-1.1.7 30 30 0 0 1-3.2-1.1zm33.3 23a582.3 582.3 0 0 0-36.1-16.8c-5.1-2-5-2-6.9-4a23.7 23.7 0 0 1-4-5c.2-.2 14.1 5.4 14.5 5.7.3.3.3.4-.2 1-.8.7-.7 1.4.3 2 .6.5 6 3 11 5.3l1.1.4 1-1 1.4-.8c1 0 22.5 11.3 27.1 14.3 1 .7 1.3 1 1.5 1.6.1.5.1 1 0 1.6l-.1.9zm7.9-2.4a442.4 442.4 0 0 0-23.9-12.9l.8-1 1-1 1.3.6c3.1 1.4 20.3 10.1 21.6 11 1.7 1 2 1.6 2 3.5l-.1 1.3zm-2.2-7.3a569.4 569.4 0 0 0-16-8.4l-2.1-1 .3-.5.6-1 .4-.3 2.5 1c3.7 1.7 8.7 4.2 12.1 6 7.3 4 6.7 3.7 6.8 4.5v2.2zm7.2 1.4v-2l9-7.2a2275.1 2275.1 0 0 1 57.4-44.5c0 .3-1.5 2-3.6 3.8-2.5 2.2-6 5-12.2 9.8a673.3 673.3 0 0 0-30.8 25.3 928.3 928.3 0 0 1-19.5 16.5c-.3.1-.3 0-.3-1.7zm-.7-5.7c-.1-.6 0-.9.5-.9s2.7-1.5 6.5-4.5c12-9.5 38.5-29.7 38.6-29.5l-7.6 6a2802.5 2802.5 0 0 0-33.3 26.4c-1.8 1.4-4.2 3-4.4 3l-.3-.5zm1 12.1v-1.6l12.2-10.3c26-22 26.2-22.2 35.9-29.8l14.5-11.5c3-2.5 3.2-2.7 3.4-2.5.3.3 0 1-.8 1.7-1.5 1.7-10.5 9.5-19.6 17a838 838 0 0 0-26.3 22.5 321 321 0 0 1-18.6 15.5l-.7.5zm0 5.4c0-.6.9-1.4 4.4-4.2 6-4.7 9.6-7.7 20.5-17.4 8.5-7.5 11.3-9.9 22.5-19.2a1030.5 1030.5 0 0 0 18.3-15.4c.1 0-6.6 6.9-11 11.1a450.3 450.3 0 0 1-34.9 29.6L194.7 175c-3.8 3.1-4.2 3.4-4.2 2.9z"/>
    <path fill="#f28c96" d="M191.3 186.3c-.5-.6-2.9-1.8-9.7-4.9a620.8 620.8 0 0 1-48.6-24 21.8 21.8 0 0 1-9.5-23.2c.5-2 1.5-5.4 2-6.3.4-.5.4-.5 1.2-.3 3.6 1.1 29.8 11.3 37.3 14.5 9.8 4.2 23.8 11.9 24.4 13.4.3.9-.5.6-7.3-2.8-9.5-4.7-12.3-6-32.1-14.5l-14.5-6.2-4.5-2-.5.7c-.9 1-2.1 3-2.5 4a16 16 0 0 0-1 6.1c0 4.6 1 7.5 4 11.6 3 4 4.3 4.8 11.6 8 14.2 6 32.3 14.5 48.7 23.1l1.6.9 1-.7a400.4 400.4 0 0 0 20.8-16.2l-7.7 6.8a215.7 215.7 0 0 0-14.2 12.6l-.5-.6zm69.7-61c3-2.8 4-3.8 4-3.5 0 .3-6 6-6.4 6l2.4-2.5z"/>
    <path fill="#f28c96" d="M251.9 134a800.8 800.8 0 0 1 13.7-13s0 .4-.2.6a747 747 0 0 1-13.5 12.4zm7.2-6.5a86.8 86.8 0 0 0 5.6-5.6l-2 1.9a109.7 109.7 0 0 0-3.6 3.7zm-11.2 10.2c.2-.4 1.4-1.7 1.6-1.7l-1 1.3c-.6.5-.8.7-.6.4zm-57.2 17.8c-.2-.7-.2-1 0-1.3a3268.3 3268.3 0 0 0 68-51c2.4-1.9 3-2.2 3-1.9a1132.5 1132.5 0 0 1-33.4 26.3A2083.4 2083.4 0 0 0 191 156c-.1 0-.2-.1-.3-.6zm.5 25.9a35 35 0 0 1 7.1-6.2l10.4-8.5 13-10.5a323.6 323.6 0 0 0 35.3-31.9l2.4-2.5-.1-.8c-.3-3.6-.3-6 0-6 .3-.1 5.5 2.8 5.5 3a688.8 688.8 0 0 1-72.7 63.1c-.6.4-.8.4-.9.3zm10.6-3.5a780.2 780.2 0 0 1 12-10.4l-1.7 1.1-.8.7.3-.4a1480 1480 0 0 0 8.4-6.8 293.9 293.9 0 0 1-18.2 15.8zM169 132.5v-2a179.9 179.9 0 0 1 0 2z"/>
    <path fill="#f28c96" d="M185.2 150.2c-9.9-6.1-20.7-11-46.5-20.7-5.8-2.2-10.5-4-10.6-4.3a748.2 748.2 0 0 1 31-26.8l.3 11.4c.1 9.7.2 11.3.5 11.5l4.5 2.7c4.3 2.5 11 6 11.7 6 .5 0 4.5-2 10.7-5.3 7.2-4 6.7-3.6 7-4.4.2-.4.5-3 .7-6a36 36 0 0 1 2.5-13.5c.6-1.3 2-2.9 2.3-2.7.4.3.3 3.7-.2 6l-.5 3.7c-.2 1.8-.2 1.8.7 2.4 1.8 1.4 8 3.3 9.3 3 .8-.3 7-3.6 12.5-6.7 2.6-1.5 4.2-2.6 4.4-3 .2-.4.2-3.4 0-10-.1-5.3-.2-9.8-.1-10 .1-.5.6-.4 4.4 1a201.7 201.7 0 0 1 30 14.4 3175.7 3175.7 0 0 1-70.3 53l-.7.4z"/>
    <path fill="#fce8c9" d="m230.6 129 1.2-.9a77 77 0 0 0 1.5-1.4l-1.2.8 3.1-2.4a2823 2823 0 0 0 18.9-14.3 805.6 805.6 0 0 0-23.5 18.2z"/>
    <path fill="#fce3bd" d="M177.2 113.5a242 242 0 0 1 0-14l42.4-24.4c2-1 2.6-1.4 2.8-1.1.3.5.7 13.5.7 21.7v7l-1.9 1-6.1 3.3-4.3 2.4-.2-3.8c-.3-6-.8-8.1-2.5-10-3.7-3.7-10.7-1.7-13.4 4-1.5 3-2.2 6.8-2.7 14.8l-.3 4.7a627.2 627.2 0 0 1-14 8c-.3 0-.4-3.7-.5-13.6z"/>
    <path fill="#fce8c9" d="M169.8 93.3a39 39 0 0 1-6.2-3.4c0-.2 2.2-1.4 4.8-2.7l4.7-2.4 4 2.5a117.4 117.4 0 0 0 8.2 4.4 40 40 0 0 1-8.6 4.7 59 59 0 0 1-7-3.1zm46-21v-1.8l.9.2c.4 0 1.5.4 2.2.6l1.5.4-2 1.2-2.4 1.3s-.2-.9-.2-1.9zm-43.4 27.2a84 84 0 0 1-10-5.6l-.5-.4V92a283.2 283.2 0 0 0 12.4 6.5c.3.4.3 1.9 0 2l-2-1zm1.1 4.3-2.3-1.3c-1.8-1-3.3-1.7-6-2.9-3-1.3-3.4-1.7-3.4-2.5 0-.2 0-.4.2-.4l2.4 1.1 4.2 2.3c4.7 2.5 6 3.4 6 3.8 0 .3-.2.3-1-.1zm-1.3 4.5A570.8 570.8 0 0 1 162 103l-.1-1v-1c.2-.3.2-.2.8 0 1 .4 11.2 5.4 11.7 5.8l.2.9c.2 1 .3 1.8 0 1.8l-2.4-1.2zm1.2 4.7c-2.8-1.3-7-3.4-9.3-4.7-1.8-1-3-2.6-1.8-2.4.7.2 8.5 4.2 10.7 5.5 1.1.7 1.5 1 1.7 1.5.1.3.2.7 0 .7l-1.3-.6z"/>
    <path fill="#fce3bd" d="M171.5 115.9a54.4 54.4 0 0 1-9.5-5.6 61 61 0 0 1 12.6 6.2c.3.3.3.4.3.6 0 .2-.1.3-.2.3l-3.2-1.5z"/>
    <path fill="#fce8c9" d="M170.2 119.7a99 99 0 0 1-7.8-4.7c-1-.7-1-1-.5-1.2.2-.1.4 0 2.2.8l9.8 5.3c.9.6 1 .9 1 1.7l-.1.7-4.6-2.6zm3.8 7c-.4-.1-4.3-2.3-6.5-3.6-1.8-1-3.8-2.4-4.7-3-.8-.8-1.2-1.3-1.2-2l.1-.4s.4 0 .8.3c3 1.6 8.8 5 10.2 5.9 1.8 1.1 2.1 1.5 2.2 2.3 0 .6-.3.8-1 .5zm33.2-27.1c-3.5-1.3-5.9-2.5-5.6-3 .2-.3.8-.4 2-.5 1.6 0 2 0 2.9 1 .8.9 1.3 1.6 1.4 2.2 0 .3 0 .4-.2.4a2 2 0 0 1-.5-.1zm-.8 3.8a27 27 0 0 1-3.7-1.5c-.6-.3-.9-.7-.9-1.1 0-.5.2-.6.9-.4a33 33 0 0 1 4.5 1.7c1 .4 1.2.7 1.2 1.2v.4h-.4c-.3 0-.8 0-1.6-.3z"/>
    <path fill="none" d="M202 104.4c-.3 0-.6.2-.6.4 0 .3 3.3 2 5.6 2.7 1.1.4 1.3.4 1.3-.3 0-.3-.4-.7-1.3-1.1-1.4-.7-4.4-1.7-5-1.7zm-1 3.5c-.4 0-.5.2-.1.5.5.5 2 1 5 2.1 1.5.6 1.7.6 1.9.4v-.3a36 36 0 0 0-6.8-2.7z"/>
    <path fill="#8fb8a8" d="M189.6 88.6c-.1-.5-.2-6.8-.2-14l-.1-13.2 4.7-2.6a447 447 0 0 1 18.7-9.9l.6 21v6l-8.8 5-11.8 6.8-3 1.7zm-7.3-32.1-6.1-3.3c-.8-.6-.8-.6-.3-1l3.5-1.9 3-1.5.4.8a9 9 0 0 0 5.1 4.5c1.7.6 5 .5 7-.2 4-1.3 8.8-5.4 8.8-7.6l-.5-2.7c-.3-1-.4-2-.3-2 .2-.1 9 4 9.4 4.3.2.2-23.4 13-24.2 13.2l-5.8-2.6zm3.2 5.6a141.4 141.4 0 0 1-11.3-6c-.3-.3-.3-1 0-1s6.5 3 9.4 4.7c2 1.2 2.8 1.7 3 2.2 0 .4-.2.4-1 .1zm-1.9 3.1a147 147 0 0 1-7.8-4c-1.2-.8-2-1.6-1.9-1.7.2-.3 4.3 1.5 9.2 4 2.8 1.4 3.6 2 3.5 2.6l-.2.4-2.8-1.3zm.1 4.4a75.4 75.4 0 0 1-9.2-5c-.5-.4-.5-.6-.5-1V63c.1 0 8.7 4.3 10.8 5.5 1.6.9 2.3 1.6 2.2 2 0 .3-.2.5-.2.5l-3-1.4zm-1.5 3.9a57.4 57.4 0 0 1-7.6-5c-.6-.5-.8-1-.4-1 .3 0 1.8.7 5.5 2.6 5.3 2.7 6.9 3.6 7 3.8.3.4.2 2.3 0 2.3l-4.5-2.7zm.8 4.7c-4.1-2.2-6.9-3.8-7.9-4.5-1-.7-1.2-1-1.1-1.8v-.6l5 3c5.8 3.4 7.2 4.3 7.7 4.8.3.5.3 1 0 1l-3.7-2zm3.3 7L182 83c-7.9-4.6-8.1-4.8-8.2-5.8v-.8c0-.6.3-.4 6.6 3a28 28 0 0 1 6.2 3.9c.3.4.4 1.2.2 1.7 0 .4-.2.5-.6.3z"/>
    <path fill="none" d="M184.8 88.8a66.8 66.8 0 0 1-10.3-6.3c-.5-.4-.5-.6-.5-1v-.7l1.3.8 9.3 5.2c2.6 1.3 2.7 1.4 2.7 2.6 0 .4 0 .5-.2.5a18 18 0 0 1-2.3-1.1z"/>
    <path fill="#8fb8a8" d="M185 89c-3.8-2-8.8-5-10.2-6.2-.7-.6-.9-.8-.9-1.5v-.6l.4.2a176.5 176.5 0 0 0 12.7 7.2c.4.6.5 1.7.1 1.8l-2-1z"/>
    <path fill="#b3545c" d="M188.6 51.8c-1-.3-4-3-3.3-3l1.8.9c1.8.9 5 1 5.9.3.3-.3.5-.8.5-1.3-.1-.6-.4-.7-2.6-.9-2.3-.2-2.6-.3-3.6-1.4-1.5-1.6-1.3-2 .5-1.2 2 1 4.3 1 5.1.1 1.4-1.5.4-2.9-1.5-2.2-1 .3-1.4.2-2.7-.5-.8-.5-1.6-1.1-1.7-1.4 0-.6.1-.6 1.9 0 1 .4 2.3.6 2.8.5 1.4-.3 2.6-1.2 2.6-2 0-1-.8-1.4-2.4-1-1.4.4-1.7.3-2.9-.4a4 4 0 0 1-1.3-1.1c0-.2 1-.3 2.3-.3 3.4 0 5.6-1.5 4.2-3-.5-.4-.8-.4-2 0-2 .5-3.4.5-3.6-.2-.3-.8-.2-.9 2-1.3 2-.4 3.7-1.5 3.7-2.4 0-.3-.4-.7-1-1-.6-.3-1-.2-1.7.2-1.2.8-2 .8-2.2.1-.2-.6.3-1 2-1.6 2-.7 2.6-2.6.8-2.6-1.6 0-2.1-.5-1-1 1-.5 1.2-1.6.3-2.4-.4-.5-.4-.6 0-1 .4-.3.7-.2 1.1.7 1.8 3.4 7.6 20.4 8.1 23.4.3 2-.1 2.7-3 4.7-3.3 2.3-6.3 3.1-9.1 2.3zm-37.1 106a64 64 0 0 1-4.4-2.2c-.2-.1 1.4-1.7 3.4-3.6 4.1-3.9 3.3-3.8 8.6-1.2a12 12 0 0 1 3.2 2c.2.5-6 7.1-6.4 7l-4.4-2z"/>
    <path fill="#fce3bd" d="M174.8 95.6c-2-.8-8.9-4.2-10.2-5-.4-.3-.7-.6-.6-.8a29 29 0 0 1 4.7-2.7l4.5-2.3 1.1.8a134 134 0 0 0 10.4 5.8c1.4 0-1.7 2-6.2 4.2l-1.7.8zm-6.3 1.8c-5.5-3-6.6-3.8-6.4-4.7a36 36 0 0 1 12.3 6.6c.1.5 0 .9-.3.9s-2.8-1.3-5.6-2.8zm-.2 8.8c-5.7-2.9-6-3.1-6.2-4.2v-1c.8 0 12.4 6 12.4 6.3l.2 1.3c.2.5.1.8 0 .8l-6.4-3zm3.8-3.2a126.2 126.2 0 0 0-9.6-4.8c-.5-.3-.7-.7-.7-1.1a57.2 57.2 0 0 1 12.5 6.5c.3.2.3.5.1.5l-2.3-1.1zM216 74l-.1-1.8v-1.7c.5 0 4.3 1.1 4.3 1.2A42.1 42.1 0 0 1 216 74zm-41.8 48-9-5.2a17 17 0 0 1-3.3-2.3c-.3-.4-.4-.4-.2-.6l.4-.1c.2 0 4.9 2.3 7.9 3.9 3.8 2 4.6 2.6 4.8 3.3v1.2s-.3 0-.6-.3zm-.1 4.8c-.6-.2-7.2-4-9.2-5.3-2.6-1.7-3.3-2.4-3.3-3.4 0-.6.1-.6 2.4.7 3.4 1.9 7.7 4.4 9 5.3 1.4 1 1.8 1.4 1.8 2.1 0 .5-.2.7-.7.6zm32.4-19.4c-1.2-.5-4.5-2-4.9-2.4-.3-.2-.3-.2 0-.4.1-.1.4-.2.6-.1a23 23 0 0 1 5.5 2c.5.3.6.4.6.8s0 .5-.4.5l-1.4-.4zm-1.5 2.8a15 15 0 0 1-4.1-1.9c-.3-.3-.3-.3 0-.4a29 29 0 0 1 6.5 2.5c.5.4.5.6 0 .6l-2.3-.8zm2.2-6.6c-1.2-.3-4.3-1.5-4.8-2-.5-.3-.6-.8-.5-1.1.2-.3.7-.2 2 .3 2.5.8 4.2 1.6 4.4 2.1.2.6.1.8-.3.8h-.8zm-1.4-4.6c-2.5-1-4.1-2-4.1-2.3 0-.3.5-.5 1.8-.6l1.7.1c.8.3 2.7 2.5 2.7 3.2 0 .3-.7.2-2-.4zm-77.5-14.8a8 8 0 0 0-1.6-1.5l-.8-.5 1.6-1.6 1.6-1.7 1.4 1.6 1.4 1.8s-.2.3-.5.3c-.3.1-.8.7-1.3 1.4l-.9 1.3-.9-1zm129-12.2c-.3-.4-1-1.2-1.7-1.6l-1.1-.8 1.6-1.4 1.5-1.5 1.6 1.4 1.7 1.4-1 .6a6 6 0 0 0-1.3 1.7l-.7 1-.6-.8z"/>
  </g>
</svg>