<svg xmlns="http://www.w3.org/2000/svg" viewBox="0 0 20 32.2">
  <style>
  @keyframes bow {
    0%, 100% { transform: rotate(0) translateY(0) }
    50% { transform: rotate(2deg)  translateY(2%) }
    
  }
  .body{
    animation: bow 3s infinite;
    transform-origin: center bottom;
  }
  </style>
  <path class="legs" d="m10.4 25.6-1 .2-.2.4v6H9v-5.9c0-.5-.2-.4-.4-.5-.1.2-.3.1-.3.4v6h-.2v-5.8c0-.5-.1-.7-.7-.8"/>
  <path class="legs" fill="none" stroke="#000" stroke-width=".3" d="M8.3 32h-.6m2 0H9"/>
  <g class="body">
    <path class="torso" d="m18.2 15.4-.9-1.2c-.8-1-1.3-2.1-1.6-3.4 0-.7-.1-1.5-.4-2.2-1-3-5-4-8-3.2-1.2.2-2.2 1-2.9 2a9 9 0 0 0-1.7 5.1l-.2 5c0 1.8.1 4 1 5.6a4 4 0 0 0 1.4 1.5c1 .6 2 1 3.1 1.1 2.3.3 5.4 0 6.4-2.3a7 7 0 0 0 .6-2.5l.2-2.4c0-.6 0-1.3.4-1.7.5-.4 1.3-.1 1.9-.2.7 0 1-.5.7-1.2m-4.5-1.8c-.5.3-1.2 0-1.4-.5a1 1 0 0 1 .8-1.4c.6 0 1 .4 1.1 1 0 .3-.1.7-.5.9"/>
    <path class="wings" fill="#fff2e3" d="M0 0a.4.4 0 0 1 0-.6C7.7-10.1-19-36-15-18.3c-.2.3-.4.3-.7.3-1.2-.4-3.4-3.2-5-2.4-2.2.5-.6 3.7.2 4.8.2.4-.3.8-.6.5-.8-.7-3-2.1-3.7-.6-.8 1.7 0 3.6 1 5a65.8 65.8 0 0 0 5.6 8.5c2 2.3 5.4 5.3 5.9 5.9.2.2 0 .4 0 .4-.2.1-.5 0-.7-.2A50 50 0 0 1-23-7.9c-1.4-2.2-3.7-5.3-2.4-8a2 2 0 0 1 1-1c.5-.3 1-.2 1.4-.1.4 0 .8.2 1.2.4-.8-1.8-1.2-4 1.1-4.6h.1c.8-.2 3.6.9 4.7 2C-18.8-36.8 8.7-11.2.6 0 .4.2 0 .2 0 0" transform="matrix(.353 0 0 -.353 11.2 18)"/>
    <g class="boat">
      <path fill="#f0707d" d="m18.7 3.8-9.4 3L0 3.5 9.4 5z"/>
      <path fill="#f0707d" stroke="#fff" stroke-miterlimit="10" stroke-width=".1" d="M6.2 5.7 9.6 0 13 5.6 9.3 7Z"/>
      <path fill="#fff" d="m18.7 3.8-9.4 3 6.3 3Z"/>
      <path fill="#fce3bd" d="m18.7 3.8-9.4 3 6.3 3Z"/>
      <path fill="#fff" d="m3.2 9.8 6.1-3L0 3.5Z"/>
      <path fill="#fce3bd" d="m3.2 9.8 6.1-3L0 3.5Z"/>
      <path fill="#dbdbd9" d="M3.2 9.8h12.4l-6.3-3Z"/>
      <path fill="#458a70" d="M3.2 9.8h12.4l-6.3-3Z"/>
      <path fill="#fce3bd" d="M0 0s0 16 1.5 19.1c0 0 .6-15.7 0-19.1L.7-.3Z" transform="matrix(.353 0 0 -.353 9 6.8)"/>
    </g>
  </g>
</svg>