
<svg xmlns="http://www.w3.org/2000/svg" viewBox="0 0 52.92 85.2">
<style>
	@keyframes wink {
		0%, 70%, 80%, 100% { opacity: 0; }
		75% { opacity: 1 }
	}

  .wink {    
    animation: wink 2s infinite;
  }

	@keyframes bounce {
		0%, 100% { transform: translateY(0); }
		65% { transform: translateY(3px); }
	}

  .body{
    animation: bounce 3s infinite;
  }
</style>
  <path d="M27.96 67.49c-.98.17-1.55.3-2.58.46-.2.53-.53.54-.53.99-.02 5.18.11 10.61.11 15.69h-.46c-.06-5.12-.1-10.25-.23-15.37-.1-1.19-.5-1.09-.8-1.37-.5.48-.92.4-.93 1.11-.03 5.13.07 10.5.1 15.63h-.47c-.01-5-.06-10 0-15 0-1.37-.39-1.94-1.87-2.28"/>
  <path fill="none" stroke="#000" stroke-width=".85" d="M22.64 84.2h-1.77m5.39 0H24.5"/>
  <g class="body">
   <path d="M46.63 43.9c-1.67.18-3.54-.53-4.89.56-1.15 1.1-.93 2.86-1.04 4.48-.08 2.1-.2 4.2-.48 6.26a22.1 22.1 0 0 1-1.68 6.49c-2.75 5.94-10.74 6.79-16.77 6.13a18.92 18.92 0 0 1-8.04-3.05c-1.57-1-3-2.26-3.9-3.9-2.2-4.12-2.48-9.9-2.46-14.64v-.03c.1-4.31.25-8.65.56-12.96.25-4.92 1.45-9.55 4.5-13.51 1.87-2.47 4.4-4.59 7.47-5.32 7.85-1.88 18.43.43 21.06 8.42.62 1.86.76 3.9 1.11 5.81.58 3.31 2 6.24 4.06 8.89.8 1.06 1.73 2.07 2.33 3.25.9 1.75.1 3-1.83 3.12M38 33.48a2.76 2.76 0 0 0-2.72-2.38h-.01a2.54 2.54 0 0 0-2.28 3.58c.63 1.43 2.45 2.1 3.8 1.27.85-.5 1.33-1.5 1.21-2.47"/>  
   <path fill="#ff8a78" stroke="#000" stroke-width=".06" d="m1.6 17.95-.1.44 13.06 2.58.1-.46zm.02-.14 13.05 2.58.1-.45L1.7 17.37z" transform="matrix(-2.97 -.25 .46 4.53 41.42 -24.43)"/>
   <path fill="#ffc405" stroke="#000" stroke-width=".06" d="M1.45 18.37.21 17.6l1.44-.23Z" transform="matrix(-2.97 -.25 .46 4.53 41.42 -24.43)"/>
   <path d="m47.26 56.75 1.58-1.42-2.11-.62Z"/>
   <path stroke="#000" stroke-miterlimit="3.4" stroke-width=".06" d="M14.7 20.38 1.58 17.8l-.01.14 13.11 2.58" transform="matrix(-2.97 -.25 .46 4.53 41.42 -24.43)"/>
   <path fill="#fce3bd" d="m30.23 47.72-.06.08a.4.4 0 0 0 .01.5c7.18 8.8-17.57 32.58-13.82 16.34-.14-.27-.35-.33-.6-.27l-.04-.03-.01.04c-1.12.32-3.09 2.94-4.56 2.22-2.12-.45-.56-3.43.13-4.51.2-.3-.26-.65-.52-.44-.8.66-2.74 1.98-3.47.58-.72-1.57.1-3.3.86-4.68.5-.9 1.04-1.8 1.59-2.68a42.86 42.86 0 0 1 3.7-5.1c1.8-2.13 4.94-4.92 5.4-5.43.22-.24.05-.44.05-.44-.23-.1-.47.04-.65.18a33.9 33.9 0 0 0-5.61 5.57 46.28 46.28 0 0 0-3.76 5.31c-1.3 2.14-3.42 4.97-2.25 7.5.22.43.52.79.98.96.41.15.85.14 1.27.04a4.1 4.1 0 0 0 1.1-.42c-.73 1.65-1.1 3.8 1.04 4.25h.13c.72.24 3.26-.78 4.35-1.75-2.6 16.07 22.8-7.57 15.26-17.81a.32.32 0 0 0-.52-.01"/>
   <path d="M31.73 29.74h7.54v3.51h-7.54zm0 4.27h7.54v3.51h-7.54z" class="wink" />
  </g>

</svg>