<svg xmlns="http://www.w3.org/2000/svg" xml:space="preserve" viewBox="0 0 100 110.2" class="birds">
<style>
	@keyframes bird {
		0%, 100% { transform: translateY(0) rotate(0) }
		50% { transform: translateY(3%) rotate(1deg) }
	}
	@keyframes dialogue {
		0%, 100% { opacity: 1; transform: scale(1); }
		2% { opacity: 0; transform: scale(1); }
		5% { opacity: 0; transform: scale(0.9); }
		15% { opacity: 1; transform: scale(1); }
	}	
	.body-left {		
		animation: bird 2s infinite;
		
	}
	.body-right {		
		animation: bird 2s infinite;
		animation-delay: 1s;
	}
	.dialogue-left {		
		animation: dialogue 6s infinite;
		animation-delay: 1s;
		transform-origin: 40% 50%;
	}
	.dialogue-right {
		animation: dialogue 6s infinite;
		animation-delay: 4s;
		transform-origin: 40% 50%;
	}
</style>
  <rect width="100%" height="100%" fill="#f6a2b0"/>
  <g class="bird-left">
    <g class="legs-left">
      <path fill="none" stroke="#231f20" stroke-width=".2" d="M20.4 110h-1.6m5.2 0h-1.6" class="legs-left"/>
      <path fill="#231f20" d="M25.5 93.6 23 94c-.2.5-.5.5-.5 1l.2 15.2h-.4l-.3-15c0-1-.4-1-.8-1.2-.5.3-.8.3-.8 1v15.2H20c0-4.8-.2-9.7 0-14.6 0-1.3-.3-1.8-1.7-2.2z" class="legs-left"/>
    </g>
    <g class="body-left">
      <path fill="#231f20" d="M7.3 87.1A11 11 0 0 0 11 91c2.3 1.4 5 2.6 7.8 2.8 5.8.7 13.6-.2 16.2-5.8.9-2 1.2-4.2 1.6-6.3l.5-6.2c0-1.4-.2-3.2 1-4.2 1.3-1 3-.4 4.7-.6 1.9-.1 2.6-1.4 1.7-3.1-.5-1-1.4-2.1-2.3-3-2-2.7-3.3-5.5-3.8-8.6-.4-2-.6-4-1.1-5.7-2.5-7.9-12.7-10-20.3-8.2-3 .7-5.4 2.8-7.2 5-3 4-4 8.5-4.4 13.3l-.5 12.5A32 32 0 0 0 7.3 87zm22.8-28.9c1.2 0 2.4 1.1 2.6 2.3.2 1-.3 2-1.2 2.5-1.3.7-3 .2-3.5-1.2-1-1.6.3-3.6 2-3.6Z" class="torso-left"/>
      <g class="house">
        <path fill="none" stroke="#f0707d" stroke-miterlimit="10" stroke-width=".2" d="M44.4 54c.2 0 .4.2.4.4l-1.3 24-10.4 6" class="house"/>
        <path fill="#f0707d" d="M2.2 50.9 22.7 34c.8-.7 1.9-1 3.1-1.2l1-.2c1.5-.3 3 .4 3.8 1.6L44.7 54l-10.4 2.7z" class="house"/>
        <path fill="none" stroke="#f0707d" stroke-miterlimit="10" stroke-width=".2" d="M44.5 54h.2zM33.2 84.3h.2zM2.6 50.9 34 56.7l-1 27.6-33-9.7 1.8-23.2c0-.4.3-.5.7-.5z" class="house"/>
        <path fill="#f0707d" d="M40 47.7h-5.7v-8.5c0-.5.4-1 1-1h3.2c.7 0 1.4.5 1.4 1.4z" class="house"/>
        <path fill="none" stroke="#f0707d" stroke-miterlimit="10" stroke-width=".2" d="m43.5 78.3-10.4 6" class="house"/>
      </g>
      <path fill="#fcedd6" d="M27.8 74.4h-.2c0 .2 0 .4.2.6 6.9 8.4-17 31.5-13.4 15.8-.2-.3-.4-.3-.6-.3h-.1v.1c-1 .2-2.9 2.8-4.3 2.1h-.1c-2-.5-.6-3.3.1-4.4.2-.3-.1-.7-.5-.5-.7.7-2.6 2-3.3.7-.8-1.6.1-3.2.8-4.6L8 81.3c1-1.8 2.3-3.3 3.6-5 1.7-2 4.7-4.7 5.2-5.2.2-.2 0-.4 0-.4-.1-.1-.5 0-.7.2a33.2 33.2 0 0 0-5.3 5.3 34.9 34.9 0 0 0-3.7 5.3c-1.2 2-3.3 4.7-2 7.2.1.4.5.7.8.9.4.2.9.2 1.2 0 .4 0 .7-.2 1.1-.4-.7 1.6-1 3.7 1 4.2.8.2 3.2-.8 4.3-1.7-2.5 15.5 22-7.4 14.8-17.3h-.5Z" class="wing-left"/>
    </g>
  </g>
  <g class="bird-right">
    <g class="legs-right">
      <path fill="#231f20" d="m76.8 93.6 2.5.4c.1.5.5.5.5 1l-.2 15.2h.5c0-5 0-9.9.2-15 0-1 .5-1 .7-1.2.5.3.9.3.9 1v15.2h.3c0-4.8.2-9.7 0-14.6 0-1.3.4-1.8 2-2.2z" class="legs-right"/>
      <path fill="none" stroke="#231f20" stroke-width=".2" d="M82 110h1.5m-5 0h1.7" class="legs-right"/>
    </g>
    <g class="body-right">
      <path fill="#231f20" d="M97.4 72.9 97 60.4c-.4-4.8-1.4-9.4-4.4-13.2a13.4 13.4 0 0 0-7.3-5.1c-7.5-1.8-17.6.3-20.2 8.2-.6 1.8-.7 3.7-1 5.7-.6 3.1-2 6-4 8.6-.7.9-1.7 2-2.3 3-.8 1.7 0 3 1.8 3.1 1.6.2 3.5-.5 4.8.6 1 1 .8 2.8 1 4.2 0 2.1.2 4.2.4 6.2.3 2 .7 4.4 1.6 6.3 2.6 5.6 10.4 6.5 16.2 5.8 2.8-.2 5.4-1.4 7.7-2.8a11 11 0 0 0 3.7-4 32 32 0 0 0 2.4-14Z" class="torso-right"/>
      <g class="book">
        <path fill="#f0707d" d="m70.4 43.8-6.1 1.6-1 .4-.6 14-5.5 7.6a2 2 0 0 0 .5 3l3.7 2.5.4 5.8c0 .5.3 1 .7 1.4 1.2.9 2.8 1.6 4.4 1.6l14.8 1.2.9-35.4c.2-.3-.2-.7-.7-.7l-17.3-.3 4.6-1.8Z" class="book"/>
        <path fill="#fff" d="m70 44.2-5.7 1.7.5.7 18 .4-1 35.7 1.5-.5 1-36h-1.2v-.6H68z" class="book"/>
        <path fill="#231f20" d="M74.5 61.8c-.7 1.4-2.5 2-3.7 1.2-.9-.5-1.2-1.4-1.2-2.5a2.8 2.8 0 0 1 2.6-2.3c1.8 0 3 2 2.3 3.6zm4.4 8.6c0 .3-.2.5-.5.5-.2 0-.4-.2-.4-.5 0-.2.2-.5.4-.5.3 0 .5.3.5.5Z" class="book"/>
        <path fill="none" stroke="#231f20" stroke-linecap="round" stroke-miterlimit="10" stroke-width=".2" d="M65.7 46.3h17.8l-1 36.2M66 46.6h17.8l-1 36.3" class="book"/>
        <path fill="none" stroke="#231f20" stroke-linecap="round" stroke-linejoin="bevel" stroke-miterlimit="10" stroke-width=".2" d="M82 82.5 83 46H65.4l3.9-1.2" class="book"/>
        <path fill="none" stroke="#fcedd6" stroke-linecap="round" stroke-miterlimit="10" stroke-width=".2" d="M97.6 69c2.8-2.7 3.2 1.4.5.2.2.3.7.7.9 1.2.2.5.2 1-.4.9-1.2 0-.8-2.3-1-2.3-1.4 1.6-20.6 2.6-19.2 1.4" class="book"/>
      </g>
      <path fill="#fcedd6" d="M75 75.2c.2.1.2.3 0 .5-6.9 8.6 17 31.7 13.4 15.8.2-.2.4-.3.5-.2 1.3.4 3 2.9 4.5 2.1 2-.3.5-3.3 0-4.3-.2-.2.1-.6.3-.4.9.5 2.7 2 3.4.5.7-1.6 0-3.1-.7-4.6L94.8 82c-1-1.6-2.3-3.3-3.6-5L86 71.9c-.1-.2 0-.4 0-.4.2-.1.6 0 .8.2 1.9 1.6 3.7 3.4 5.2 5.5a35 35 0 0 1 3.8 5c1.2 2.2 3.3 4.8 2 7.3-.1.5-.5.9-.8 1h-1.2l-1.1-.5c.7 1.8 1 3.7-1 4.3h-.2c-.7.1-3-.8-4.1-1.8C91.8 108 67.3 85 74.5 75h.5Z" class="wing-right"/>
    </g>
  </g>
  <g class="dialogue-left">
    <path fill="#fcedd6" stroke="#f6a2b0" stroke-width=".9" d="M33.2 29.6c-.7-.2-1.4-.2-2-.2-2.7-.2-5.2-.4-7.7-.9-1.9-.5-3.8-1-5.4-2.3-4.3-3.9-4.4-11.6-2.8-16.7 1-3.5 3.7-7 7.4-8.3A32 32 0 0 1 32 0l10.6.3c2.4.2 4.7.2 7.2.8a18 18 0 0 1 9 5.2c2 2 2.8 4.6 3 7.3a18 18 0 0 1-3.7 13.2c-2.6 3-6.7 3.1-10.4 3.8-1.6.4-2.8 1-4 1.8-1.3.7-2.4 1.5-3.6 2.3-1.7 1.2-4.2 2.6-4.5.1-.2-2.4.5-4.7-2.4-5.2Z"/>
    <g fill="#458a70" transform="matrix(.879 0 0 .879 -120.5 -31.8)">
      <circle cx="170.2" cy="55.1" r="3.3"/>
      <circle cx="180" cy="55.1" r="3.3"/>
      <circle cx="190" cy="55.1" r="3.3"/>
    </g>
  </g>
  <g class="dialogue-right">
    <path fill="#fcedd6" stroke="#f6a2b0" stroke-miterlimit="10" stroke-width=".9" d="M74.8 39.3c.2-2.2-.7-4.3 2.2-5 .7 0 1.4 0 2-.2 2.7 0 5.4-.1 7.8-.7 2-.5 4-1 5.3-2.4 4.3-3.7 4.4-11.5 3-16.6-1.2-3.7-3.7-7.2-7.6-8.4a32 32 0 0 0-9.3-1.2L67.6 5c-2.5.2-4.7.2-7.2.7a19 19 0 0 0-9.2 5.3c-1.7 2-2.6 4.6-2.8 7.2-.4 4.6.3 9.7 3.7 13.2 2.6 3.2 6.7 3.3 10.4 4 1.6.4 2.8 1 4 1.8 1.3.7 2.3 1.6 3.6 2.3 1.6 1.4 4.2 2.6 4.7-.3Z"/>
    <g fill="#f0707d" transform="matrix(.879 0 0 .879 8.8 2.5)">
      <circle cx="62" cy="20.3" r="3.3"/>
      <circle cx="72.6" cy="20.3" r="3.3"/>
      <circle cx="83" cy="20.3" r="3.3"/>
    </g>
  </g>
</svg>
