<svg xmlns="http://www.w3.org/2000/svg" xmlns:xlink="http://www.w3.org/1999/xlink" viewBox="0 0 100 110.16">
	<g>
		<path
			class="dialog-left"
			fill="#fcedd6"
			stroke="#f6a2b0"
			stroke-width="0.8"
			d="M0 0c-.16-1.76.64-3.84-1.93-4.32-.64-.16-1.28-.16-1.92-.16-2.41-.16-4.65-.32-6.9-.8-1.77-.48-3.53-.96-4.97-2.08-3.85-3.53-4.01-10.57-2.57-15.22.96-3.2 3.37-6.4 6.74-7.52 2.72-.81 5.61-1.13 8.5-1.13 3.21 0 6.42.16 9.63.32 2.24.17 4.33.17 6.57.65 3.05.8 6.1 2.4 8.19 4.8 1.76 1.76 2.56 4.16 2.72 6.57.32 4.16-.48 8.8-3.37 12.01-2.4 2.72-6.09 2.88-9.46 3.52-1.45.32-2.57.96-3.69 1.6C6.42-1.12 5.45-.32 4.33.32 2.89 1.6.48 2.72.16 0Z"
			transform="translate(35.355 34.317) scale(1.099)"
		/>
		<path
			class="dialog-right"
			fill="#fcedd6"
			stroke="#f6a2b0"
			stroke-miterlimit="10"
			stroke-width="0.8"
			d="M0 0c.16-1.93-.65-3.85 1.92-4.49.64 0 1.28 0 1.93-.16 2.4 0 4.81-.16 7.06-.64 1.76-.48 3.52-.96 4.81-2.24 3.85-3.36 4.01-10.41 2.73-15.05-1.13-3.37-3.37-6.57-6.9-7.69-2.73-.8-5.62-1.12-8.51-1.12-3.2 0-6.41.16-9.62.32-2.25.16-4.33.16-6.58.64-3.05.8-6.1 2.4-8.34 4.8-1.61 1.77-2.41 4.17-2.57 6.57-.32 4.16.32 8.81 3.37 12.01 2.41 2.88 6.1 3.04 9.47 3.68 1.44.32 2.56.8 3.69 1.6 1.12.65 2.08 1.45 3.2 2.09C-2.89 1.6-.49 2.72 0 0Z"
			transform="translate(74.848 39.251) scale(1.099)"
		/>
		<g class="bird-left">
			<g class="legs-left">
				<path
					class="legs-left"
					fill="none"
					stroke="#231f20"
					stroke-width=".16"
					d="M370.33 116.56h-1.44m4.65 0h-1.44"
					transform="translate(-386.57 -18.098) scale(1.099)"
				/>
				<path
					class="legs-left"
					fill="#231f20"
					d="M0 0c-.8.16-1.28.16-2.24.32-.16.48-.48.48-.48.96 0 4.48.16 9.29.16 13.77h-.32c-.16-4.48-.16-8.96-.32-13.61 0-.96-.33-.96-.65-1.12-.48.32-.8.32-.8.96v13.77h-.32c0-4.32-.16-8.8 0-13.29 0-1.12-.32-1.6-1.6-1.92z"
					transform="translate(25.477 93.622) scale(1.099)"
				/>
			</g>
			<g class="body-left">
				<path
					class="torso-left"
					fill="#231f20"
					d="M0 0c.8 1.45 1.92 2.57 3.37 3.53 2.08 1.28 4.49 2.4 7.06 2.56 5.29.64 12.35-.16 14.76-5.28.8-1.77 1.12-3.85 1.44-5.77.16-1.76.32-3.68.48-5.6 0-1.29-.16-2.89.81-3.85 1.28-.96 2.88-.32 4.33-.48 1.76-.16 2.4-1.28 1.6-2.88-.48-.96-1.28-1.92-2.08-2.72-1.77-2.41-3.05-4.97-3.53-7.85-.32-1.76-.49-3.52-.97-5.12-2.24-7.21-11.55-9.13-18.45-7.53-2.72.64-4.97 2.56-6.57 4.64-2.73 3.53-3.69 7.69-4.02 12.01-.16 3.85-.32 7.69-.48 11.37C-2.25-8.64-1.93-3.68 0 0zm20.7-26.26c1.12 0 2.24.96 2.4 2.08.16.96-.32 1.76-1.12 2.25-1.12.64-2.73.16-3.21-1.13-.8-1.44.32-3.2 1.93-3.2Z"
					transform="translate(7.323 87.106) scale(1.099)"
				/>
				<g class="house">
					<path
						class="house"
						fill="none"
						stroke="#f0707d"
						stroke-miterlimit="10"
						stroke-width=".16"
						d="M392.15 65.64c.16 0 .32.16.32.32l-1.12 21.78-9.47 5.44"
						transform="translate(-386.57 -18.098) scale(1.099)"
					/>

					<path
						class="house"
						fill="#f0707d"
						d="m0 0 18.61-15.22c.8-.64 1.76-.96 2.89-1.12l.8-.16c1.44-.32 2.72.32 3.53 1.44L38.66 2.88l-9.46 2.4z"
						transform="translate(2.214 50.866) scale(1.099)"
					/>
					<path
						class="house"
						fill="none"
						stroke="#f0707d"
						stroke-miterlimit="10"
						stroke-width=".16"
						d="M0 0h.16zm-10.27 27.54h.16zM-38.18-2.88-9.46 2.4l-.97 25.14-30-8.81 1.61-21.13c0-.32.32-.48.64-.48z"
						transform="translate(44.52 54.03) scale(1.099)"
					/>
					<path
						class="house"
						fill="#f0707d"
						d="M0 0h-5.13v-7.68c0-.48.32-.96.96-.96h2.89c.64 0 1.28.48 1.28 1.28z"
						transform="translate(39.937 47.69) scale(1.099)"
					/>
					<path
						class="house"
						fill="none"
						stroke="#f0707d"
						stroke-miterlimit="10"
						stroke-width=".16"
						d="m391.35 87.74-9.47 5.44"
						transform="translate(-386.57 -18.098) scale(1.099)"
					/>
				</g>
				<path
					class="wing-left"
					fill="#fcedd6"
					d="M0 0h-.16c0 .16 0 .32.16.48C6.26 8.17-15.4 29.15-12.19 14.9c-.16-.32-.32-.32-.48-.32h-.16v.16c-.97.16-2.57 2.56-3.86 1.92h-.16c-1.76-.48-.48-3.04.16-4 .17-.32-.16-.64-.48-.48-.64.64-2.4 1.76-3.04.64-.65-1.45.16-2.89.8-4.17l1.44-2.4c.96-1.6 2.09-3.04 3.21-4.48 1.6-1.93 4.33-4.33 4.81-4.81.16-.16 0-.32 0-.32-.16-.16-.48 0-.64.16-1.76 1.28-3.37 3.04-4.81 4.81-1.29 1.6-2.41 3.04-3.37 4.8-1.12 1.76-3.05 4.32-1.93 6.57.16.32.49.64.81.8.32.16.8.16 1.12 0 .32 0 .64-.16.96-.32-.64 1.44-.96 3.36.96 3.84.65.16 2.89-.8 3.85-1.6C-15.24 29.79 7.06 8.97.48 0 .32-.16.16-.16 0 0Z"
					transform="translate(27.773 74.436) scale(1.099)"
				/>
			</g>
		</g>

		<g class="bird-right">
			<g class="legs-right">
				<path
					class="legs-right"
					fill="#231f20"
					d="M0 0c.8.16 1.28.16 2.25.32.16.48.48.48.48.96 0 4.48-.16 9.29-.16 13.77h.48c0-4.48 0-8.96.16-13.61 0-.96.48-.96.64-1.12.48.32.8.32.8.96v13.77h.32c0-4.32.16-8.8 0-13.29 0-1.12.32-1.6 1.77-1.92z"
					transform="translate(76.782 93.622) scale(1.099)"
				/>
				<path
					class="legs-right"
					fill="none"
					stroke="#231f20"
					stroke-width=".16"
					d="M426.32 116.56h1.45m-4.66 0h1.61"
					transform="translate(-386.57 -18.098) scale(1.099)"
				/>
			</g>
			<g class="body-right">
				<path
					class="torso-right"
					fill="#231f20"
					d="M0 0c-.16-3.68-.32-7.52-.48-11.37-.32-4.32-1.28-8.48-4.01-12.01-1.61-2.08-3.85-4-6.58-4.64-6.9-1.6-16.04.32-18.45 7.53-.48 1.6-.64 3.36-.96 5.12-.48 2.88-1.77 5.44-3.53 7.85-.64.8-1.61 1.76-2.09 2.72-.8 1.6 0 2.72 1.61 2.88 1.44.16 3.21-.48 4.33.48.96.96.8 2.56.96 3.85 0 1.92.16 3.84.32 5.6.32 1.92.64 4 1.45 5.77 2.4 5.12 9.46 5.92 14.76 5.28 2.56-.16 4.97-1.28 7.06-2.56 1.44-.96 2.56-2.08 3.36-3.53C-.32 9.29 0 4.33 0 0Z"
					transform="translate(97.407 72.854) scale(1.099)"
				/>
				<g class="book">
					<path
						class="book"
						fill="#f0707d"
						d="m0 0-5.61 1.44-.96.32-.48 12.81-4.98 6.89c-.64.8-.48 2.08.48 2.72l3.37 2.24.32 5.29c0 .48.32.96.65 1.28 1.12.8 2.56 1.44 4.01 1.44l13.47 1.12.8-32.19c.17-.32-.16-.64-.64-.64L-5.29 2.4-1.12.8Z"
						transform="translate(70.43 43.822) scale(1.099)"
					/>
					<path
						class="book"
						fill="#fff"
						d="m0 0-5.29 1.6.48.64 16.37.32-.97 32.51 1.45-.48L13 1.92h-1.12v-.64h-13.8z"
						transform="translate(70.079 44.174) scale(1.099)"
					/>
					<path
						class="book"
						fill="#231f20"
						d="M0 0c-.64 1.29-2.24 1.77-3.36 1.13-.81-.49-1.13-1.29-1.13-2.25.16-1.12 1.29-2.08 2.41-2.08C-.48-3.2.65-1.44 0 0z"
						transform="translate(74.485 61.766) scale(1.099)"
					/>

					<path
						class="book"
						fill="#231f20"
						d="M0 0c0 .32-.16.48-.49.48C-.65.48-.81.32-.81 0c0-.16.16-.48.32-.48.33 0 .49.32.49.48Z"
						transform="translate(78.903 70.392) scale(1.099)"
					/>
					<path
						class="book"
						fill="none"
						stroke="#231f20"
						stroke-linecap="round"
						stroke-miterlimit="10"
						stroke-width=".16"
						d="M411.56 58.59h16.21l-.97 32.99m-14.92-32.67h16.21l-.96 32.99"
						transform="translate(-386.57 -18.098) scale(1.099)"
					/>
					<path
						class="book"
						fill="none"
						stroke="#231f20"
						stroke-linecap="round"
						stroke-linejoin="bevel"
						stroke-miterlimit="10"
						stroke-width=".16"
						d="m426.32 91.58.97-33.31h-16.05l3.53-1.12"
						transform="translate(-386.57 -18.098) scale(1.099)"
					/>
					<path
						class="book"
						fill="none"
						stroke="#fcedd6"
						stroke-linecap="round"
						stroke-miterlimit="10"
						stroke-width=".16"
						d="M0 0c2.57-2.4 2.89 1.28.48.16.16.32.64.64.8 1.12.17.48.17.96-.32.8C-.16 2.08.16 0 0 0c-1.28 1.44-18.77 2.4-17.49 1.28"
						transform="translate(97.583 68.986) scale(1.099)"
					/>
				</g>
				<path
					class="wing-right"
					fill="#fcedd6"
					d="M0 0c.16.16.16.32 0 .48-6.26 7.84 15.4 28.82 12.19 14.41.16-.16.32-.32.48-.16 1.12.32 2.73 2.56 4.01 1.92 1.93-.32.48-3.04 0-4-.16-.16.16-.48.32-.32.8.48 2.41 1.76 3.05.48.64-1.44 0-2.89-.64-4.17-.48-.8-.96-1.6-1.45-2.4-.96-1.44-2.08-3.04-3.2-4.48C13.15 0 10.42-2.57 9.94-3.05c-.16-.16 0-.32 0-.32.16-.16.48 0 .64.16 1.77 1.44 3.37 3.04 4.82 4.97 1.28 1.44 2.4 3.04 3.37 4.64 1.12 1.92 3.04 4.32 1.92 6.57-.16.48-.48.8-.8.96h-1.12c-.32-.16-.65-.32-.97-.48.65 1.6.97 3.36-.96 3.84h-.16c-.64.16-2.73-.64-3.69-1.6C15.24 29.94-7.06 8.96-.49 0c.17-.17.33-.17.49 0Z"
					transform="translate(75.024 75.15) scale(1.099)"
				/>
			</g>
		</g>
	</g>
</svg>