<svg xmlns="http://www.w3.org/2000/svg">
    <symbol id="burger" fill="none" viewBox="0 0 100 100">
        <path fill="currentColor" d="M0 79.2h100v15H0ZM0 5.8h100v15H0Zm0 36.7h100v15H0Z"/>
    </symbol>
    <symbol id="instagram" fill="none" viewBox="0 0 4 4">
        <path fill="currentColor" d="M2.8 0H1.2A1.2 1.2 0 0 0 0 1.2v1.6A1.2 1.2 0 0 0 1.2 4h1.6A1.2 1.2 0 0 0 4 2.8V1.2A1.2 1.2 0 0 0 2.8 0Zm.8 2.8a.8.8 0 0 1-.8.8H1.2a.8.8 0 0 1-.8-.8V1.2a.8.8 0 0 1 .8-.8h1.6a.8.8 0 0 1 .8.8z"/>
        <path fill="currentColor" d="M2 1a1 1 0 1 0 0 2 1 1 0 0 0 0-2Zm0 1.6a.6.6 0 1 1 0-1.2.6.6 0 0 1 0 1.2ZM3 .7a.2.2 0 1 1-.2.3c0-.2 0-.3.2-.3z"/>
    </symbol>
    <symbol id="bluesky" viewBox="0 0 100 100">
        <path fill="currentColor" d="M21.7 11.9A117 117 0 0 1 50 47.3 117 117 0 0 1 78.3 12C86.6 5.8 100 1 100 16.3c0 3-1.8 25.6-2.8 29.3-3.5 12.8-16.6 16-28.1 14C89.3 63 94.4 74.4 83.3 85.8c-21 21.6-30.3-5.4-32.7-12.4-.4-1.3-.6-1.9-.6-1.4 0-.5-.2.1-.6 1.4-2.4 7-11.6 34-32.7 12.4-11.1-11.4-6-22.8 14.2-26.3-11.5 2-24.6-1.2-28.1-14A300 300 0 0 1 0 16.2C0 .9 13.4 5.7 21.7 11.9Z"/>
    </symbol>
    <symbol id="facebook" viewBox="0 0 100 100">
        <path fill="currentColor" d="M100 50a50 50 0 1 0-62.08 48.53V65.28H27.61V50h10.31v-6.58c0-17.02 7.7-24.91 24.41-24.91 3.17 0 8.63.62 10.87 1.24V33.6a64.27 64.27 0 0 0-5.78-.18c-8.2 0-11.36 3.1-11.36 11.18V50h16.33l-2.8 15.28H56.05v34.35A50 50 0 0 0 100 50"/>
    </symbol>
    <symbol id="share" viewBox="0 0 58 58">
        <path fill="currentColor" d="M42.4 39.3a9 9 0 0 0-4.8 1.4l-14-9.8a9 9 0 0 0 0-5l13.6-9.5a9 9 0 1 0-3.6-5.4l-14 9.7a9 9 0 1 0 0 15.3l14.2 10a9 9 0 1 0 8.6-6.7z"/>
    </symbol>
    <symbol id="location" fill="none" viewBox="0 0 24 24">
        <path stroke="currentColor" stroke-linecap="round" stroke-width="2" d="M20 11c0 5.1-8 10-8 10s-8-4.9-8-10c0-4.5 3.9-8 8-8a8 8 0 0 1 8 8Z"/>
        <path stroke="currentColor" stroke-linecap="round" stroke-linejoin="round" stroke-width="2" d="M12 11a1 1 0 1 0 0-2 1 1 0 0 0 0 2Z"/>
    </symbol>
</svg>
