<svg xmlns="http://www.w3.org/2000/svg" xmlns:xlink="http://www.w3.org/1999/xlink" viewBox="0 0 126.227 44.447">
  <defs>
    <path id="k" fill="#231f20" d="M0 0c2.89 0 3.53-1.12 3.53-3.04S2.57-6.08.32-6.08c-2.08 0-4 .8-4 .8l.16 2.08s1.76-1.28 3.36-1.28c1.61 0 1.93.48 1.93 1.44S1.45-1.6-.32-1.6c-1.76 0-4 1.6-4 4.01v1.6h7.69v-1.6H-2.4C-2.4 1.13-1.6 0 0 0"/>
    <path id="W" fill="#231f20" d="M0 0v7.21h-2.88V5.92c-1.28.8-3.37 1.61-5.29 1.61-3.68 0-4.96-1.93-4.96-4.01 0-1.92 1.44-3.84 4.96-3.84 1.92 0 4.01.8 5.29 1.6V0c0-2.4-.32-3.52-3.37-3.52-3.04 0-5.44 1.44-5.44 1.44L-12.97-4s3.04-1.93 6.4-1.93C-1.44-5.93 0-3.68 0 0m-2.88 3.36C-4 2.4-5.61 1.6-7.37 1.6c-2.08 0-2.88.96-2.88 1.92 0 1.12 1.28 2.08 2.88 2.08 1.76 0 3.37-.8 4.49-1.76z"/>
  </defs>
  <path fill="#231f20" d="M0 0h2.24v.48H.48V1.6h1.76v.48H.48v1.28h1.76v.48H0Z"  transform="translate(145.936 269.727)scale(.265)"/>
  <path fill="#231f20" d="M0 0h-1.93c0 1.44-1.12 2.08-2.24 2.08v1.76c1.6 0 2.24-.96 2.24-.96v5.45h-2.24v1.6h6.41v-1.6H0Z"  transform="translate(7.885 .72)scale(.265)"/>
  <path fill="#231f20" d="M0 0c-1.12 0-2.08.64-2.08.64l.48.8S-.96.8.16.8c.96 0 1.12.48 1.12 1.44v.48C.8 2.4.16 2.08-.48 2.08c-1.28 0-1.76.8-1.76 1.44 0 .8.48 1.6 1.76 1.6.64 0 1.28-.32 1.76-.64v.48h.97V2.24C2.25.8 1.76 0 0 0m1.28 3.68c-.32.32-.96.64-1.6.64-.48 0-.8-.32-.8-.8 0-.32.16-.64.8-.64s1.28.32 1.6.64z"  transform="translate(9.197 .466)scale(.265)"/>
  <path fill="#231f20" d="M0 0c0-.16.16-.33.16-.49 0-1.76-1.12-4.32-4.17-4.32-3.04 0-4 2.56-4 4.32 0 1.77.96 4.33 4 4.33 2.57 0 3.85-1.92 3.85-1.92L-1.6.96S-2.4 2.4-3.85 2.4c-1.6 0-2.4-1.28-2.56-2.4zm-6.25-1.45c.16-1.12.96-1.92 2.24-1.92 1.29 0 2.09.8 2.41 1.92z"  transform="translate(12.843 2.373)scale(.265)"/>
  <path fill="#231f20" d="M0 0v4.64c-.48-.8-1.44-1.76-2.56-1.76-1.93 0-3.37 2.08-3.37 4.32 0 2.25.8 4.33 2.88 4.33 1.13 0 2.41-.64 3.05-1.6v1.44h1.76V0Zm0 8.33c-.48.96-1.6 1.6-2.73 1.6-1.12 0-1.6-1.28-1.6-2.73 0-1.44.8-2.72 2.25-2.72.96 0 1.6.96 2.08 1.92z"  transform="translate(14.666 .339)scale(.265)"/>
  <path fill="#231f20" d="M0 0v-8.33h-1.6V0Zm0-9.45v-1.92h-1.6v1.92z"  transform="translate(15.978 3.347)scale(.265)"/>
  <path fill="#231f20" d="M0 0c-.32.8-1.12 1.44-2.24 1.44-1.76 0-2.4-1.6-2.4-2.89 0-1.28.64-2.88 2.4-2.88 1.12 0 1.92.64 2.24 1.44l1.29-.8C.8-4.97-.32-5.77-2.24-5.77c-3.04 0-4 2.56-4 4.32 0 1.77.96 4.33 4 4.33C-.32 2.88.8 1.92 1.29.8z"  transform="translate(17.97 2.627)scale(.265)"/>
  <path fill="#231f20" d="M0 0v-8.33h-1.76V0Zm0-9.45v-1.92h-1.76v1.92z"  transform="translate(19.074 3.347)scale(.265)"/>
  <path fill="#231f20" d="m0 0-2.89 1.92V3.2L0 1.76Zm-2.08 4.16c-3.05 0-4.01 2.56-4.01 4.32 0 1.77.96 4.33 4.01 4.33 3.04 0 4.16-2.56 4.16-4.33 0-1.76-1.12-4.32-4.16-4.32m0 7.21c-1.77 0-2.41-1.6-2.41-2.89 0-1.28.64-2.88 2.41-2.88C-.16 5.6.48 7.2.48 8.48c0 1.29-.64 2.89-2.56 2.89"  transform="translate(20.981)scale(.265)"/>
  <path fill="#231f20" d="M0 0c-1.12 0-2.4.8-3.05 1.76V.16h-1.76v8.33h1.76V3.52C-2.4 2.56-1.44 1.6-.32 1.6c1.6 0 1.6 2.08 1.6 3.21v3.68h1.6V4.81C2.88 1.28 1.92 0 0 0h.16z"  transform="translate(23.1 1.1)scale(.265)"/>
  <use xlink:href="#k"  transform="translate(26.532 2.286)scale(.265)"/>
  <path fill="#231f20" d="M0 0c-3.21 0-4.65 2.24-4.65 5.12 0 2.89 1.44 5.13 4.65 5.13 3.04 0 4.64-2.24 4.64-5.13C4.64 2.24 3.04 0 0 0m0 8.49c-2.41 0-2.89-1.28-2.89-3.37 0-2.08.48-3.36 2.89-3.36 2.24 0 2.72 1.28 2.72 3.36 0 2.09-.48 3.37-2.72 3.37"  transform="translate(29.035 .677)scale(.265)"/>
  <use xlink:href="#k"  transform="translate(31.705 2.286)scale(.265)"/>
  <path fill="#231f20" d="M0 0c-1.6 0-2.72.48-3.36 1.12l.32-2.88h5.6l.49-1.6h-7.69l-.65 5.76.97.97s2.56-1.77 4-1.77c1.28 0 1.76.96 1.76 1.61 0 .64-.16 1.92-2.08 1.92-2.24 0-3.84-.8-3.84-.8l-.97 1.44s1.93.96 4.81.96c2.56 0 4.01-1.28 4.01-3.2C3.37 1.6 2.4 0 0 0"  transform="translate(34.375 1.609)scale(.265)"/>
  <path fill="#231f20" d="M195.44 147.15h30.12v8.97h-40.69v-53.17h10.57Z"  transform="translate(-42.09 -20.122)scale(.265)"/>
  <path fill="#231f20" d="M0 0c.96 6.09 5.77 12.97 15.22 12.97 8.65 0 13.61-7.36 13.61-7.36l7.85 4.48s-7.05 10.73-22.26 10.73C-3.53 20.82-9.61 7.21-9.61-2.4s6.08-23.22 24.03-23.22c17.94 0 24.03 13.61 24.03 23.22 0 .8 0 1.6-.16 2.4zm28.19-7.85c-1.6-5.12-5.92-9.93-13.77-9.93S2.4-12.97.64-7.85Z"  transform="translate(20.94 15.888)scale(.265)"/>
  <path fill="#231f20" d="M0 0c10.73 0 16.82 6.72 16.82 26.1v19.38H6.89V26.1c0-6.73 0-17.29-9.13-17.29-6.57 0-12.66 4.96-16.18 10.08v26.59h-9.94V.96h9.94v8.81C-14.42 4.8-7.21 0 0 0"  transform="translate(40.479 9.11)scale(.265)"/>
  <path fill="#231f20" d="M0 0v44.52c0 11.53-6.09 19.54-21.95 19.54-15.7 0-22.43-7.53-22.43-7.53l6.09-6.89s5.61 5.93 16.18 5.93c9.13 0 12.17-5.13 12.17-11.05v-8.81c-4 4.96-11.21 9.77-18.42 9.77-9.77 0-16.82-11.69-16.82-23.22S-37.01-.96-25.32-.96c6.73 0 12.18 4.16 15.38 8.49V0Zm-9.94 16.17c-2.72-4.64-7.21-8.64-12.97-8.64-5.13 0-12.34 4.96-12.34 14.73s4.17 14.73 9.13 14.73c6.57 0 12.66-4.96 16.18-10.41z"  transform="translate(58.621 9.364)scale(.265)"/>
  <path fill="#231f20" d="M0 0v44.52h-10.09v-8.81c-3.84 4.96-11.21 9.77-18.42 9.77-10.58 0-16.82-6.73-16.82-26.1V0h10.09v19.38c0 6.72 0 17.29 9.13 17.29 6.41 0 12.66-4.96 16.02-10.09V0Z"  transform="translate(72.819 9.364)scale(.265)"/>
  <path fill="#231f20" d="M0 0v24.98h-10.09v-4.65c-4.49 3.05-11.22 5.61-18.11 5.61-12.49 0-17.14-6.73-17.14-13.45C-45.34 5.92-40.37-.8-28.2-.8c6.89 0 13.62 2.56 18.11 5.44V0c0-8.33-1.29-12.34-11.7-12.34s-18.42 5.29-18.42 5.29l-4.65-6.73s10.26-6.72 22.43-6.72C-4.97-20.5 0-12.34 0 0m-10.09 11.69c-3.85-3.05-9.62-5.93-15.54-5.93-7.05 0-9.62 3.2-9.62 6.73 0 3.68 4.17 6.72 9.62 6.72 5.92 0 11.69-2.72 15.54-5.76z"  transform="translate(86.722 14.534)scale(.265)"/>
  <path fill="#231f20" d="m0 0-5.13 8.33s-3.68-5.12-11.05-5.12c-4.81 0-10.09 3.36-13.62 7.2v28.83h-9.93V-5.28h9.93v7.85c3.69-4.49 9.13-8.81 15.06-8.81C-5.61-6.24 0 0 0 0"  transform="translate(99.48 10.76)scale(.265)"/>
  <path fill="#231f20" d="M0 0v24.98h-9.93v-4.65c-4.49 3.05-11.38 5.61-18.11 5.61-12.65 0-17.14-6.73-17.14-13.45 0-6.57 4.97-13.29 17.14-13.29 6.73 0 13.62 2.56 18.11 5.44V0c0-8.33-1.28-12.34-11.7-12.34-10.41 0-18.58 5.29-18.58 5.29l-4.49-6.73s10.26-6.72 22.27-6.72C-4.81-20.5 0-12.34 0 0m-9.93 11.69c-3.85-3.05-9.61-5.93-15.7-5.93-6.89 0-9.61 3.2-9.61 6.73 0 3.68 4.16 6.72 9.61 6.72 6.09 0 11.85-2.72 15.7-5.76Z"  transform="translate(112.366 14.534)scale(.265)"/>
  <path fill="#231f20" d="m0 0-31.88 27.86H0v8.33h-45.66v-8.33L-13.78 0h-31.88v-8.33H0Z"  transform="translate(126.143 11.568)scale(.265)"/>
  <path fill="#ff5a82" d="m0 0-2.25 4.32s-1.92-2.24-5.28-2.24c-3.69 0-4.49 2.56-4.65 5.92h8.49v5.29h-8.49v24.66h-6.73V13.29h-4.96V8h5.12c.32-6.24 2.73-10.89 9.46-10.89C-2.41-2.89 0 0 0 0"  transform="translate(67.31 26.355)scale(.265)"/>
  <path fill="#ff5a82" d="M0 0c.64 4.16 3.85 8.8 10.1 8.8 5.76 0 9.13-4.96 9.13-4.96l5.28 3.04s-4.64 7.05-14.89 7.05C-2.4 13.93-6.4 4.96-6.4-1.44c0-6.57 4-15.54 16.02-15.54 12.01 0 16.02 8.97 16.02 15.54V0zm18.75-5.13c-1.12-3.52-3.85-6.72-9.13-6.72-5.29 0-8.01 3.2-9.14 6.72z"  transform="translate(68.622 32.837)scale(.265)"/>
  <path fill="#ff5a82" d="M0 0c0 5.29-5.29 8.97-13.46 8.97s-15.7-3.84-15.7-3.84l2.4-4.97s7.69 3.36 12.82 3.36c5.12 0 8.33-1.12 8.33-3.68 0-2.4-2.24-3.84-9.93-3.84-7.85 0-11.7-2.4-11.7-8.01 0-6.73 5.61-9.93 13.78-9.93 7.05 0 12.49 2.72 12.49 2.72l-2.08 5.13s-5.77-2.72-10.89-2.72c-5.13 0-7.69 2.08-7.69 4s.8 3.52 9.77 3.52C-4.01-9.29 0-5.28 0 0"  transform="translate(83.884 34.15)scale(.265)"/>
  <path fill="#ff5a82" d="M0 0v13.13c0 2.88 0 6.72 2.25 6.72 2.08 0 4.64-1.28 4.64-1.28l.48 3.69S3.53 25.14.32 25.14c-7.05 0-7.05-5.77-7.05-12.01V0h-4.96v-5.29h4.96v-8.49L0-15.86v10.57h8.33V0Z"  transform="translate(87.611 29.871)scale(.265)"/>
  <path fill="#ff5a82" d="M90.54 34.404h1.99v1.99h-1.99z"/>
  <path fill="#ff5a82" d="M0 0c-2.25 4.17-6.57 7.37-13.94 7.37C-25.95 7.37-29.96-1.6-29.96-8c0-6.57 4.01-15.54 16.02-15.54 7.37 0 11.69 3.2 13.94 7.37l-5.29 3.04c-1.44-2.88-4-5.28-8.65-5.28-7.05 0-9.29 5.92-9.29 10.41 0 4.32 2.24 10.24 9.29 10.24 4.65 0 7.21-2.4 8.65-5.28z"  transform="translate(101.261 34.573)scale(.265)"/>
  <path fill="#ff5a82" d="M0 0c0 6.4-4 15.37-16.02 15.37-12.01 0-16.02-8.97-16.02-15.37 0-6.57 4.01-15.54 16.02-15.54C-4-15.54 0-6.57 0 0m-6.25 0c0-4.49-2.56-10.41-9.77-10.41-7.05 0-9.77 5.92-9.77 10.41 0 4.32 2.72 10.24 9.77 10.24 7.21 0 9.77-5.92 9.77-10.24"  transform="translate(110.5 32.456)scale(.265)"/>
  <path fill="#ff5a82" d="M0 0v12.97h-6.72V0c0-4.49 0-11.53-6.09-11.53-4.65 0-8.97 2.08-11.38 4.48.32 1.92.65 4.32.65 7.05v12.97h-6.73V0c0-4.49 0-11.53-6.09-11.53-4.33 0-8.49 3.2-10.73 6.72v17.78h-6.73v-29.95h6.73v5.93c2.56-3.21 7.36-6.41 12.33-6.41 4.49 0 7.69 2.08 9.45 6.09 2.41-2.89 8.33-6.09 14.1-6.09C-4.16-17.46 0-12.97 0 0"  transform="translate(126.013 32.964)scale(.265)"/>
  <path fill="#231f20" d="M0 0v17.62h-2.88v-2.24c-1.28 1.44-3.36 2.4-5.45 2.4-3.36 0-4.8-3.36-4.8-6.73 0-3.36 2.4-6.72 5.77-6.72 1.92 0 3.52 1.44 4.48 2.88V0Zm-2.88 9.77c-.8-1.28-2.08-3.04-3.84-3.04-2.41 0-3.53 2.08-3.53 4.32s.64 4.33 2.57 4.33c1.92 0 3.68-.96 4.8-2.57z"  transform="translate(3.39 31.734)scale(.265)"/>
  <path fill="#231f20" d="M0 0c0 2.89-1.76 6.73-7.04 6.73-5.13 0-6.89-3.84-6.89-6.73 0-2.72 1.76-6.72 6.89-6.72C-1.76-6.72 0-2.72 0 0m-2.72 0c0-1.92-1.28-4.48-4.32-4.48-3.05 0-4.17 2.56-4.17 4.48s1.12 4.49 4.17 4.49C-4 4.49-2.72 1.92-2.72 0"  transform="translate(7.628 34.658)scale(.265)"/>
  <path fill="#231f20" d="M0 0v5.77h-2.88V0c0-1.92 0-4.96-2.56-4.96-1.93 0-3.69 1.44-4.65 2.88v7.85h-3.04V-7.2h3.04v2.56c1.12-1.44 3.21-2.88 5.29-2.88C-1.76-7.52 0-5.6 0 0"  transform="translate(11.613 34.87)scale(.265)"/>
  <path fill="#231f20" d="M0 0v17.62h-2.88v-2.24c-1.12 1.44-3.2 2.4-5.29 2.4-3.36 0-4.96-3.36-4.96-6.73 0-3.36 2.4-6.72 5.92-6.72 1.93 0 3.53 1.44 4.33 2.88V0Zm-2.88 9.77c-.8-1.28-2.08-3.04-3.69-3.04-2.4 0-3.68 2.08-3.68 4.32s.8 4.33 2.72 4.33c1.93 0 3.69-.96 4.65-2.57z"  transform="translate(15.597 31.734)scale(.265)"/>
  <path fill="#231f20" d="M0 0c.16 1.77 1.6 3.85 4.32 3.85 2.57 0 4.01-2.25 4.01-2.25l2.24 1.45S8.49 6.09 4.16 6.09c-5.28 0-7.04-3.84-7.04-6.73 0-2.72 1.76-6.72 7.04-6.72 5.13 0 6.89 4 6.89 6.72V0zm8.17-2.24c-.48-1.44-1.76-2.88-4.01-2.88-2.24 0-3.52 1.44-4 2.88z"  transform="translate(16.912 34.827)scale(.265)"/>
  <path fill="#231f20" d="M22.426 31.737h.804v4.656h-.804z"/>
  <path fill="#231f20" d="M0 0v7.37h-3.05V5.93c-1.28.8-3.2 1.6-5.12 1.6-3.69 0-4.97-1.92-4.97-3.84 0-1.93 1.44-3.85 4.97-3.85 1.92 0 3.84.64 5.12 1.6V0c0-2.4-.32-3.52-3.36-3.52s-5.29 1.44-5.29 1.44L-13.14-4s3.05-1.92 6.57-1.92C-1.44-5.92 0-3.52 0 0m-3.05 3.37c-1.12-.81-2.72-1.61-4.48-1.61-1.92 0-2.73.8-2.73 1.93 0 .96 1.13 1.92 2.73 1.92 1.76 0 3.36-.8 4.48-1.6z"  transform="translate(27.255 34.446)scale(.265)"/>
  <path fill="#231f20" d="M0 0c0 2.24-2.25 3.84-5.77 3.84-3.53 0-6.89-1.6-6.89-1.6L-11.54 0s3.21 1.44 5.45 1.44 3.68-.48 3.68-1.6c0-.97-.96-1.61-4.32-1.61-3.37 0-5.13-1.12-5.13-3.52 0-2.88 2.56-4.32 6.09-4.32 3.04 0 5.45 1.28 5.45 1.28l-.97 2.08s-2.56-1.12-4.8-1.12c-2.08 0-3.21.96-3.21 1.76s.32 1.44 4.17 1.44C-1.77-4.17 0-2.41 0 0"  transform="translate(31.028 35.422)scale(.265)"/>
  <path fill="#231f20" d="M33.602 31.737h.804v4.656h-.804z"/>
  <path fill="#231f20" d="M0 0c.16 1.77 1.6 3.85 4.32 3.85 2.57 0 4.01-2.25 4.01-2.25l2.24 1.45S8.49 6.09 4.16 6.09c-5.28 0-7.05-3.84-7.05-6.73 0-2.72 1.77-6.72 7.05-6.72 5.13 0 6.89 4 6.89 6.72V0zm8.17-2.24c-.48-1.44-1.76-2.88-4.01-2.88-2.4 0-3.52 1.44-4 2.88z"  transform="translate(35.69 34.827)scale(.265)"/>
  <path fill="#231f20" d="M0 0v5.77h-2.88V0c0-1.92 0-4.96-2.73-4.96-1.92 0-3.68 1.44-4.64 2.88v7.85h-2.89V-7.2h2.89v2.56c1.12-1.44 3.2-2.88 5.28-2.88C-1.76-7.52 0-5.6 0 0"  transform="translate(42.64 34.87)scale(.265)"/>
  <path fill="#231f20" d="M0 0v12.97c0 3.2-1.76 5.6-6.41 5.6-4.64 0-6.57-2.24-6.57-2.24l1.77-1.92s1.6 1.76 4.8 1.76c2.56 0 3.53-1.6 3.53-3.2v-2.56c-1.29 1.28-3.37 2.72-5.45 2.72-2.88 0-4.81-3.36-4.81-6.73 0-3.36 2.41-6.72 5.77-6.72 1.92 0 3.52 1.12 4.49 2.4V0Zm-2.88 4.64c-.81-1.28-2.09-2.56-3.85-2.56-1.44 0-3.52 1.44-3.52 4.32 0 2.89 1.12 4.33 2.56 4.33 1.92 0 3.68-1.44 4.81-3.05z"  transform="translate(46.625 32.964)scale(.265)"/>
  <path fill="#231f20" d="M0 0v12.97h-2.88v-2.56c-1.13 1.28-3.37 2.72-5.45 2.72-3.05 0-4.81-1.92-4.81-7.53V0h2.89v5.6c0 1.92 0 4.97 2.72 4.97 1.76 0 3.52-1.44 4.65-2.89V0Z"  transform="translate(50.736 32.964)scale(.265)"/>
  <path fill="#231f20" d="M0 0v7.37h-2.89V5.93c-1.28.8-3.36 1.6-5.28 1.6-3.69 0-4.97-1.92-4.97-3.84 0-1.93 1.44-3.85 4.97-3.85 1.92 0 4 .64 5.28 1.6V0c0-2.4-.32-3.52-3.36-3.52s-5.45 1.44-5.45 1.44L-12.98-4s3.05-1.92 6.41-1.92C-1.44-5.92 0-3.52 0 0m-2.89 3.37c-1.12-.81-2.72-1.61-4.48-1.61-2.08 0-2.89.8-2.89 1.93 0 .96 1.29 1.92 2.89 1.92 1.76 0 3.36-.8 4.48-1.6z"  transform="translate(54.763 34.446)scale(.265)"/>
  <path fill="#231f20" d="M0 0c0 2.24-2.41 3.84-5.93 3.84-3.53 0-6.73-1.6-6.73-1.6L-11.7 0s3.37 1.44 5.61 1.44 3.52-.48 3.52-1.6c0-.97-.96-1.61-4.32-1.61-3.37 0-4.97-1.12-4.97-3.52 0-2.88 2.4-4.32 5.93-4.32 3.04 0 5.45 1.28 5.45 1.28l-.97 2.08s-2.4-1.12-4.64-1.12-3.37.96-3.37 1.76.32 1.44 4.33 1.44C-1.77-4.17 0-2.41 0 0"  transform="translate(58.579 35.422)scale(.265)"/>
  <path fill="#231f20" d="M0 0c0 2.4-2.25 4.01-5.77 4.01s-6.89-1.77-6.89-1.77l1.12-2.08S-8.33 1.6-6.09 1.6s3.68-.48 3.68-1.6-.96-1.6-4.32-1.6c-3.37 0-5.13-1.12-5.13-3.52 0-3.05 2.57-4.33 6.09-4.33 3.04 0 5.29 1.12 5.29 1.12l-.8 2.25s-2.57-1.28-4.81-1.28-3.36.96-3.36 1.76c0 .96.48 1.6 4.32 1.6C-1.76-4 0-2.24 0 0"  transform="translate(29.29 43.386)scale(.265)"/>
  <path fill="#231f20" d="M0 0c0 2.72-1.77 6.73-6.89 6.73-5.29 0-7.05-4.01-7.05-6.73 0-2.88 1.76-6.73 7.05-6.73C-1.77-6.73 0-2.88 0 0m-2.73 0c0-1.92-1.12-4.48-4.16-4.48-3.21 0-4.33 2.56-4.33 4.48s1.12 4.48 4.33 4.48c3.04 0 4.16-2.56 4.16-4.48"  transform="translate(33.359 42.667)scale(.265)"/>
  <path fill="#231f20" d="M0 0v5.61h-2.89V0c0-1.92 0-4.96-2.72-4.96-1.92 0-3.69 1.44-4.65 2.88v7.69h-2.88V-7.37h2.88v2.57c1.12-1.45 3.21-2.73 5.45-2.73C-1.77-7.53 0-5.6 0 0"  transform="translate(37.386 42.878)scale(.265)"/>
  <path fill="#231f20" d="M0 0c-.96 1.76-2.88 3.21-6.08 3.21-5.13 0-6.89-4.01-6.89-6.73 0-2.88 1.76-6.73 6.89-6.73 3.2 0 5.12 1.45 6.08 3.21l-2.24 1.28C-2.88-7.04-4.16-8-6.08-8c-3.05 0-4.01 2.56-4.01 4.48S-9.13.96-6.08.96c1.92 0 3.2-1.12 3.84-2.4z"  transform="translate(43.36 43.598)scale(.265)"/>
  <use xlink:href="#W"  transform="translate(47.175 42.455)scale(.265)"/>
  <path fill="#231f20" d="M0 0c0 2.4-2.24 4.01-5.77 4.01-3.52 0-6.89-1.77-6.89-1.77l1.13-2.08s3.36 1.44 5.6 1.44c2.25 0 3.53-.48 3.53-1.6s-.96-1.6-4.33-1.6c-3.36 0-4.96-1.12-4.96-3.52 0-3.05 2.4-4.33 5.92-4.33 3.05 0 5.45 1.12 5.45 1.12l-.96 2.25s-2.4-1.28-4.65-1.28c-2.24 0-3.36.96-3.36 1.76 0 .96.32 1.6 4.32 1.6C-1.6-4 0-2.24 0 0"  transform="translate(50.948 43.386)scale(.265)"/>
  <use xlink:href="#W"  transform="translate(54.848 42.455)scale(.265)"/>
  <path fill="#231f20" d="M0 0c0 2.4-2.25 4.01-5.77 4.01-3.53 0-6.89-1.77-6.89-1.77l1.12-2.08S-8.17 1.6-5.93 1.6s3.52-.48 3.52-1.6-.96-1.6-4.32-1.6c-3.37 0-4.97-1.12-4.97-3.52 0-3.05 2.4-4.33 5.93-4.33 3.04 0 5.45 1.12 5.45 1.12l-.97 2.25s-2.4-1.28-4.64-1.28S-9.3-6.4-9.3-5.6c0 .96.32 1.6 4.17 1.6C-1.61-4 0-2.24 0 0"  transform="translate(58.621 43.386)scale(.265)"/>
  <path fill="#231f20" d="M0 0v7.21h-2.88V5.92c-1.28.8-3.2 1.61-5.29 1.61-3.68 0-4.96-1.93-4.96-4.01 0-1.92 1.44-3.84 4.96-3.84 2.09 0 4.01.8 5.29 1.6V0c0-2.4-.32-3.52-3.36-3.52-3.05 0-5.45 1.44-5.45 1.44L-12.97-4s3.04-1.93 6.57-1.93C-1.44-5.93 0-3.68 0 0m-2.88 3.36C-4 2.4-5.6 1.6-7.37 1.6c-2.08 0-2.88.96-2.88 1.92 0 1.12 1.28 2.08 2.88 2.08 1.77 0 3.37-.8 4.49-1.76z"  transform="translate(64.553 42.455)scale(.265)"/>
  <path fill="#231f20" d="M0 0c0 3.36-2.4 6.73-5.92 6.73-1.93 0-3.37-1.29-4.33-2.57v2.25h-2.88v-17.62h2.88V-4c1.12-1.45 3.2-2.73 5.29-2.73C-2.08-6.73 0-3.36 0 0m-3.04 0c0-2.88-1.12-4.32-2.56-4.32-1.93 0-3.69 1.44-4.65 3.04v3.04c.8 1.28 2.08 2.4 3.69 2.4 1.44 0 3.52-1.44 3.52-4.16"  transform="translate(68.707 42.667)scale(.265)"/>
  <path fill="#231f20" d="M0 0h2.88v2.88H0Zm0 4.64h2.88v12.98H0Z"  transform="translate(69.26 39.7)scale(.265)"/>
  <path fill="#231f20" d="M0 0c.32 1.76 1.76 3.68 4.48 3.84 2.4 0 4.01-2.24 4.01-2.24l2.24 1.28S8.65 6.09 4.16 6.09c-5.13 0-6.89-4.01-6.89-6.73 0-2.88 1.76-6.73 6.89-6.73 5.29 0 7.05 3.85 7.05 6.73V0zm8.17-2.24c-.48-1.44-1.61-2.88-4.01-2.88-2.24 0-3.52 1.44-4 2.88z"  transform="translate(71.295 42.836)scale(.265)"/>
  <path fill="#231f20" d="m0 0-1.61 2.4S-2.57.96-4.81.96c-1.28 0-2.88.96-3.84 2.08v8.33h-2.89V-1.61h2.89V.64c.96-1.13 2.56-2.41 4.32-2.41C-1.61-1.77 0 0 0 0"  transform="translate(77.864 41.354)scale(.265)"/>
  <path fill="#231f20" d="M0 0v5.76c0 1.28 0 2.88.97 2.88.8 0 1.92-.48 1.92-.48l.32 1.6S1.45 11.05.16 11.05c-3.04 0-3.04-2.57-3.04-5.29V0h-2.24v-2.25h2.24v-3.68L0-6.89v4.64h3.69V0Z"  transform="translate(79.346 41.524)scale(.265)"/>
  <path fill="#231f20" d="M0 0v7.21h-2.89V5.92c-1.44.8-3.36 1.61-5.28 1.61-3.69 0-4.97-1.93-4.97-4.01 0-1.92 1.44-3.84 4.97-3.84 1.92 0 3.84.8 5.28 1.6V0c0-2.4-.48-3.52-3.52-3.52-3.05 0-5.29 1.44-5.29 1.44L-12.98-4s2.88-1.93 6.41-1.93C-1.45-5.93 0-3.68 0 0m-2.89 3.36C-4.17 2.4-5.77 1.6-7.53 1.6c-1.93 0-2.73.96-2.73 1.92 0 1.12 1.13 2.08 2.73 2.08 1.76 0 3.36-.8 4.64-1.76z"  transform="translate(84.137 42.455)scale(.265)"/>
  <path fill="#231f20" d="M0 0c0 2.4-2.24 4.01-5.76 4.01-3.53 0-6.89-1.77-6.89-1.77l1.12-2.08s3.2 1.44 5.45 1.44c2.24 0 3.68-.48 3.68-1.6s-.96-1.6-4.32-1.6c-3.37 0-5.13-1.12-5.13-3.52 0-3.05 2.56-4.33 6.09-4.33 3.04 0 5.44 1.12 5.44 1.12l-.96 2.25s-2.56-1.28-4.64-1.28c-2.25 0-3.37.96-3.37 1.76 0 .96.32 1.6 4.17 1.6C-1.76-4 0-2.24 0 0"  transform="translate(87.908 43.386)scale(.265)"/>
</svg>