<svg xmlns="http://www.w3.org/2000/svg" viewBox="0 0 200 322">
<style>
	@keyframes wink {
		0%, 70%, 80%, 100% { opacity: 0; }
		75% { opacity: 1 }
	}

  .wink {    
    animation: wink 2s infinite;
  }

	@keyframes bounce {
		0%, 100% { transform: translateY(0); }
		75% { transform: translateY(5px); }
	}

  .body{
    animation: bounce 3s infinite;
  }

</style>
  <path d="m106.16 256.1-10 2-2 4v60h-2v-59c0-5-2-4-4-5-1 2-3 1-3 4v60h-2v-58c0-5-1-7-7-8" class="legs"/>
  <path fill="none" stroke="#000" stroke-width="3" d="M85.16 320.1h-6m20 0h-7" class="legs"/>  
  <g class="body">
    <path d="m184.16 154.1-9-12c-8-10-13-21-16-34 0-7-1-15-4-22-10-30-50-40-80-32-12 2-22 10-29 20a90 90 0 0 0-17 51l-2 50c0 18 1 40 10 56a40 40 0 0 0 14 15c10 6 20 10 31 11 23 3 54 0 64-23a70 70 0 0 0 6-25l2-24c0-6 0-13 4-17 5-4 13-1 19-2 7 0 10-5 7-12m-45-18c-5 3-12 0-14-5a10 10 0 0 1 8-14c6 0 10 4 11 10 0 3-1 7-5 9" class="torso"/>
    <path fill="#fff2e3" d="M114.16 180.1a1.4 1.4 0 0 0 0 2.1c26.95 33.25-66.5 123.9-52.5 61.95-.7-1.05-1.4-1.05-2.45-1.05-4.2 1.4-11.9 11.2-17.5 8.4-7.7-1.75-2.1-12.95.7-16.8.7-1.4-1.05-2.8-2.1-1.75-2.8 2.45-10.5 7.35-12.95 2.1-2.8-5.95 0-12.6 3.5-17.5a230.3 230.3 0 0 1 19.6-29.75c7-8.05 18.9-18.55 20.65-20.65.7-.7 0-1.4 0-1.4-.7-.35-1.75 0-2.45.7a175 175 0 0 0-35 41.3c-4.9 7.7-12.95 18.55-8.4 28a7 7 0 0 0 3.5 3.5c1.75 1.05 3.5.7 4.9.35 1.4 0 2.8-.7 4.2-1.4-2.8 6.3-4.2 14 3.85 16.1h.35c2.8.7 12.6-3.15 16.45-7-10.15 61.6 86.1-28 57.75-67.2-.7-.7-2.1-.7-2.1 0" class="wings"/>
    <g class="boat">
      <path fill="#f0707d" d="m189.16 38.1-94 30-93-33 94 15Z"/>
      <path fill="#f0707d" stroke="#fff" stroke-miterlimit="10" d="m64.16 57.1 34-57 34 56-37 14Z"/>
      <path fill="#fff" d="m189.16 38.1-94 30 63 30z"/>
      <path fill="#fce3bd" d="m189.16 38.1-94 30 63 30z"/>
      <path fill="#fff" d="m34.16 98.1 61-30-93-33Z"/>
      <path fill="#fce3bd" d="m34.16 98.1 61-30-93-33Z"/>
      <path fill="#dbdbd9" d="M34.16 98.1h124l-63-30Z"/>
      <path fill="#458a70" d="M34.16 98.1h124l-63-30Z"/>
      <path fill="#fce3bd" d="M92.16 68.1s0-56 5.25-66.85c0 0 2.1 54.95 0 66.85l-2.8 1.05Z"/>
    </g>
    <path d="M119.92 112.43h28.52v13.27h-28.52zm0 16.14h28.52v13.26h-28.52z" class="wink" />
  </g>

</svg>