<?xml version="1.0" encoding="UTF-8" standalone="no"?>
<!-- Created with Inkscape (http://www.inkscape.org/) -->

<svg
   width="1200mm"
   height="630mm"
   viewBox="0 0 1200 629.99998"
   version="1.1"
   id="svg1"
   sodipodi:docname="favicon.svg"
   inkscape:version="1.3.2 (091e20e, 2023-11-25, custom)"
   inkscape:export-filename="favicon.png"
   inkscape:export-xdpi="300"
   inkscape:export-ydpi="300"
   xmlns:inkscape="http://www.inkscape.org/namespaces/inkscape"
   xmlns:sodipodi="http://sodipodi.sourceforge.net/DTD/sodipodi-0.dtd"
   xmlns="http://www.w3.org/2000/svg"
   xmlns:svg="http://www.w3.org/2000/svg">
  <sodipodi:namedview
     id="namedview1"
     pagecolor="#ffffff"
     bordercolor="#000000"
     borderopacity="0.25"
     inkscape:showpageshadow="2"
     inkscape:pageopacity="0.0"
     inkscape:pagecheckerboard="0"
     inkscape:deskcolor="#d1d1d1"
     inkscape:document-units="mm"
     inkscape:zoom="0.18189176"
     inkscape:cx="3133.7318"
     inkscape:cy="2245.8411"
     inkscape:window-width="2560"
     inkscape:window-height="1351"
     inkscape:window-x="-9"
     inkscape:window-y="-9"
     inkscape:window-maximized="1"
     inkscape:current-layer="layer1" />
  <defs
     id="defs1">
    <clipPath
       clipPathUnits="userSpaceOnUse"
       id="clipPath1185">
      <path
         d="M 0,0.64 V 1122.5601 H 793.76001 V 0.64 Z"
         clip-rule="evenodd"
         id="path1185" />
    </clipPath>
    <clipPath
       clipPathUnits="userSpaceOnUse"
       id="clipPath1187">
      <path
         d="M 0,0.64 V 1122.5601 H 793.76001 V 0.64 Z"
         transform="translate(-358.45999,-95.739998)"
         clip-rule="evenodd"
         id="path1187" />
    </clipPath>
    <clipPath
       clipPathUnits="userSpaceOnUse"
       id="clipPath1189">
      <path
         d="M 0,0.64 V 1122.5601 H 793.76001 V 0.64 Z"
         transform="translate(-374.98001,-101.67)"
         clip-rule="evenodd"
         id="path1189" />
    </clipPath>
    <clipPath
       clipPathUnits="userSpaceOnUse"
       id="clipPath1191">
      <path
         d="M 0,0.64 V 1122.5601 H 793.76001 V 0.64 Z"
         clip-rule="evenodd"
         id="path1191" />
    </clipPath>
    <clipPath
       clipPathUnits="userSpaceOnUse"
       id="clipPath1193">
      <path
         d="M 0,0.64 V 1122.5601 H 793.76001 V 0.64 Z"
         clip-rule="evenodd"
         id="path1193" />
    </clipPath>
    <clipPath
       clipPathUnits="userSpaceOnUse"
       id="clipPath1195">
      <path
         d="M 0,0.64 V 1122.5601 H 793.76001 V 0.64 Z"
         transform="translate(-353.81,-62.759998)"
         clip-rule="evenodd"
         id="path1195" />
    </clipPath>
    <clipPath
       clipPathUnits="userSpaceOnUse"
       id="clipPath1197">
      <path
         d="M 0,0.64 V 1122.5601 H 793.76001 V 0.64 Z"
         transform="translate(-392.31,-65.639999)"
         clip-rule="evenodd"
         id="path1197" />
    </clipPath>
    <clipPath
       clipPathUnits="userSpaceOnUse"
       id="clipPath1199">
      <path
         d="M 0,0.64 V 1122.5601 H 793.76001 V 0.64 Z"
         transform="translate(-377.07001,-84.209999)"
         clip-rule="evenodd"
         id="path1199" />
    </clipPath>
    <clipPath
       clipPathUnits="userSpaceOnUse"
       id="clipPath1201">
      <path
         d="M 0,0.64 V 1122.5601 H 793.76001 V 0.64 Z"
         transform="translate(-440.44,-82.769997)"
         clip-rule="evenodd"
         id="path1201" />
    </clipPath>
    <clipPath
       clipPathUnits="userSpaceOnUse"
       id="clipPath1203">
      <path
         d="M 0,0.64 V 1122.5601 H 793.76001 V 0.64 Z"
         transform="translate(-421.67001,-101.67)"
         clip-rule="evenodd"
         id="path1203" />
    </clipPath>
    <clipPath
       clipPathUnits="userSpaceOnUse"
       id="clipPath1205">
      <path
         d="M 0,0.64 V 1122.5601 H 793.76001 V 0.64 Z"
         clip-rule="evenodd"
         id="path1205" />
    </clipPath>
    <clipPath
       clipPathUnits="userSpaceOnUse"
       id="clipPath1207">
      <path
         d="M 0,0.64 V 1122.5601 H 793.76001 V 0.64 Z"
         transform="translate(-388.14001,-59.869999)"
         clip-rule="evenodd"
         id="path1207" />
    </clipPath>
    <clipPath
       clipPathUnits="userSpaceOnUse"
       id="clipPath1209">
      <path
         d="M 0,0.64 V 1122.5601 H 793.76001 V 0.64 Z"
         clip-rule="evenodd"
         id="path1209" />
    </clipPath>
    <clipPath
       clipPathUnits="userSpaceOnUse"
       id="clipPath1211">
      <path
         d="M 0,0.64 V 1122.5601 H 793.76001 V 0.64 Z"
         transform="translate(-420.07001,-84.860001)"
         clip-rule="evenodd"
         id="path1211" />
    </clipPath>
    <clipPath
       clipPathUnits="userSpaceOnUse"
       id="clipPath1213">
      <path
         d="M 0,0.64 V 1122.5601 H 793.76001 V 0.64 Z"
         transform="translate(-415.89001,-56.349998)"
         clip-rule="evenodd"
         id="path1213" />
    </clipPath>
    <clipPath
       clipPathUnits="userSpaceOnUse"
       id="clipPath1215">
      <path
         d="M 0,0.64 V 1122.5601 H 793.76001 V 0.64 Z"
         transform="translate(-415.57001,-56.669998)"
         clip-rule="evenodd"
         id="path1215" />
    </clipPath>
    <clipPath
       clipPathUnits="userSpaceOnUse"
       id="clipPath1217">
      <path
         d="M 0,0.64 V 1122.5601 H 793.76001 V 0.64 Z"
         transform="translate(-419.57999,-72.68)"
         clip-rule="evenodd"
         id="path1217" />
    </clipPath>
    <clipPath
       clipPathUnits="userSpaceOnUse"
       id="clipPath1219">
      <path
         d="M 0,0.64 V 1122.5601 H 793.76001 V 0.64 Z"
         transform="translate(-440.60001,-79.089996)"
         clip-rule="evenodd"
         id="path1219" />
    </clipPath>
    <clipPath
       clipPathUnits="userSpaceOnUse"
       id="clipPath1221">
      <path
         d="M 0,0.64 V 1122.5601 H 793.76001 V 0.64 Z"
         transform="translate(-423.60001,-80.529999)"
         clip-rule="evenodd"
         id="path1221" />
    </clipPath>
    <clipPath
       clipPathUnits="userSpaceOnUse"
       id="clipPath1223">
      <path
         d="M 0,0.64 V 1122.5601 H 793.76001 V 0.64 Z"
         clip-rule="evenodd"
         id="path1223" />
    </clipPath>
    <clipPath
       clipPathUnits="userSpaceOnUse"
       id="clipPath1225">
      <path
         d="M 0,0.64 V 1122.5601 H 793.76001 V 0.64 Z"
         clip-rule="evenodd"
         id="path1225" />
    </clipPath>
    <clipPath
       clipPathUnits="userSpaceOnUse"
       id="clipPath1227">
      <path
         d="M 0,0.64 V 1122.5601 H 793.76001 V 0.64 Z"
         transform="translate(-440.60001,-79.25)"
         clip-rule="evenodd"
         id="path1227" />
    </clipPath>
    <clipPath
       clipPathUnits="userSpaceOnUse"
       id="clipPath1229">
      <path
         d="M 0,0.64 V 1122.5601 H 793.76001 V 0.64 Z"
         transform="translate(-383.97,-47.700001)"
         clip-rule="evenodd"
         id="path1229" />
    </clipPath>
    <clipPath
       clipPathUnits="userSpaceOnUse"
       id="clipPath1231">
      <path
         d="M 0,0.64 V 1122.5601 H 793.76001 V 0.64 Z"
         transform="translate(-379.95999,-31.049999)"
         clip-rule="evenodd"
         id="path1231" />
    </clipPath>
    <clipPath
       clipPathUnits="userSpaceOnUse"
       id="clipPath1233">
      <path
         d="M 0,0.64 V 1122.5601 H 793.76001 V 0.64 Z"
         transform="translate(-386.54001,-35.209999)"
         clip-rule="evenodd"
         id="path1233" />
    </clipPath>
    <clipPath
       clipPathUnits="userSpaceOnUse"
       id="clipPath1235">
      <path
         d="M 0,0.64 V 1122.5601 H 793.76001 V 0.64 Z"
         transform="translate(-419.91,-52.189999)"
         clip-rule="evenodd"
         id="path1235" />
    </clipPath>
    <clipPath
       clipPathUnits="userSpaceOnUse"
       id="clipPath1237">
      <path
         d="M 0,0.64 V 1122.5601 H 793.76001 V 0.64 Z"
         transform="translate(-424.07999,-35.369999)"
         clip-rule="evenodd"
         id="path1237" />
    </clipPath>
    <clipPath
       clipPathUnits="userSpaceOnUse"
       id="clipPath1239">
      <path
         d="M 0,0.64 V 1122.5601 H 793.76001 V 0.64 Z"
         transform="translate(-417.5,-39.700001)"
         clip-rule="evenodd"
         id="path1239" />
    </clipPath>
    <clipPath
       clipPathUnits="userSpaceOnUse"
       id="clipPath71">
      <path
         d="M 0.16,0.64 V 1122.5601 H 793.76001 V 0.64 Z"
         clip-rule="evenodd"
         id="path71" />
    </clipPath>
    <clipPath
       clipPathUnits="userSpaceOnUse"
       id="clipPath73">
      <path
         d="M 0.16,0.64 V 1122.5601 H 793.76001 V 0.64 Z"
         transform="translate(-289.32001,-853.69001)"
         clip-rule="evenodd"
         id="path73" />
    </clipPath>
    <clipPath
       clipPathUnits="userSpaceOnUse"
       id="clipPath75">
      <path
         d="M 0.16,0.64 V 1122.5601 H 793.76001 V 0.64 Z"
         transform="translate(-335.62,-870.03003)"
         clip-rule="evenodd"
         id="path75" />
    </clipPath>
    <clipPath
       clipPathUnits="userSpaceOnUse"
       id="clipPath77">
      <path
         d="M 0.16,0.64 V 1122.5601 H 793.76001 V 0.64 Z"
         clip-rule="evenodd"
         id="path77" />
    </clipPath>
    <clipPath
       clipPathUnits="userSpaceOnUse"
       id="clipPath79">
      <path
         d="M 0.16,0.64 V 1122.5601 H 793.76001 V 0.64 Z"
         clip-rule="evenodd"
         id="path79" />
    </clipPath>
    <clipPath
       clipPathUnits="userSpaceOnUse"
       id="clipPath83">
      <path
         d="M 0.16,0.64 V 1122.5601 H 793.76001 V 0.64 Z"
         transform="translate(-382.88,-769.94001)"
         clip-rule="evenodd"
         id="path83" />
    </clipPath>
    <clipPath
       clipPathUnits="userSpaceOnUse"
       id="clipPath85">
      <path
         d="M 0.16,0.64 V 1122.5601 H 793.76001 V 0.64 Z"
         transform="translate(-341.07001,-821.51001)"
         clip-rule="evenodd"
         id="path85" />
    </clipPath>
    <clipPath
       clipPathUnits="userSpaceOnUse"
       id="clipPath87">
      <path
         d="M 0.16,0.64 V 1122.5601 H 793.76001 V 0.64 Z"
         transform="translate(-517.13,-817.82001)"
         clip-rule="evenodd"
         id="path87" />
    </clipPath>
    <clipPath
       clipPathUnits="userSpaceOnUse"
       id="clipPath89">
      <path
         d="M 0.16,0.64 V 1122.5601 H 793.76001 V 0.64 Z"
         transform="translate(-464.89999,-870.03003)"
         clip-rule="evenodd"
         id="path89" />
    </clipPath>
    <clipPath
       clipPathUnits="userSpaceOnUse"
       id="clipPath91">
      <path
         d="M 0.16,0.64 V 1122.5601 H 793.76001 V 0.64 Z"
         clip-rule="evenodd"
         id="path91" />
    </clipPath>
    <clipPath
       clipPathUnits="userSpaceOnUse"
       id="clipPath93">
      <path
         d="M 0.16,0.64 V 1122.5601 H 793.76001 V 0.64 Z"
         transform="translate(-371.66,-753.77002)"
         clip-rule="evenodd"
         id="path93" />
    </clipPath>
    <clipPath
       clipPathUnits="userSpaceOnUse"
       id="clipPath95">
      <path
         d="M 0.16,0.64 V 1122.5601 H 793.76001 V 0.64 Z"
         clip-rule="evenodd"
         id="path95" />
    </clipPath>
    <clipPath
       clipPathUnits="userSpaceOnUse"
       id="clipPath97">
      <path
         d="M 0.16,0.64 V 1122.5601 H 793.76001 V 0.64 Z"
         transform="translate(-460.73999,-823.43)"
         clip-rule="evenodd"
         id="path97" />
    </clipPath>
    <clipPath
       clipPathUnits="userSpaceOnUse"
       id="clipPath99">
      <path
         d="M 0.16,0.64 V 1122.5601 H 793.76001 V 0.64 Z"
         transform="translate(-449.20001,-744)"
         clip-rule="evenodd"
         id="path99" />
    </clipPath>
    <clipPath
       clipPathUnits="userSpaceOnUse"
       id="clipPath101">
      <path
         d="M 0.16,0.64 V 1122.5601 H 793.76001 V 0.64 Z"
         transform="translate(-448.07999,-744.79999)"
         clip-rule="evenodd"
         id="path101" />
    </clipPath>
    <clipPath
       clipPathUnits="userSpaceOnUse"
       id="clipPath103">
      <path
         d="M 0.16,0.64 V 1122.5601 H 793.76001 V 0.64 Z"
         transform="translate(-459.13,-789.47998)"
         clip-rule="evenodd"
         id="path103" />
    </clipPath>
    <clipPath
       clipPathUnits="userSpaceOnUse"
       id="clipPath105">
      <path
         d="M 0.16,0.64 V 1122.5601 H 793.76001 V 0.64 Z"
         transform="translate(-517.77002,-807.25)"
         clip-rule="evenodd"
         id="path105" />
    </clipPath>
    <clipPath
       clipPathUnits="userSpaceOnUse"
       id="clipPath107">
      <path
         d="M 0.16,0.64 V 1122.5601 H 793.76001 V 0.64 Z"
         transform="translate(-470.51001,-811.41999)"
         clip-rule="evenodd"
         id="path107" />
    </clipPath>
    <clipPath
       clipPathUnits="userSpaceOnUse"
       id="clipPath109">
      <path
         d="M 0.16,0.64 V 1122.5601 H 793.76001 V 0.64 Z"
         clip-rule="evenodd"
         id="path109" />
    </clipPath>
    <clipPath
       clipPathUnits="userSpaceOnUse"
       id="clipPath111">
      <path
         d="M 0.16,0.64 V 1122.5601 H 793.76001 V 0.64 Z"
         clip-rule="evenodd"
         id="path111" />
    </clipPath>
    <clipPath
       clipPathUnits="userSpaceOnUse"
       id="clipPath113">
      <path
         d="M 0.16,0.64 V 1122.5601 H 793.76001 V 0.64 Z"
         transform="translate(-517.60999,-807.72998)"
         clip-rule="evenodd"
         id="path113" />
    </clipPath>
    <clipPath
       clipPathUnits="userSpaceOnUse"
       id="clipPath81">
      <path
         d="M 0.16,0.64 V 1122.5601 H 793.76001 V 0.64 Z"
         transform="translate(-276.35001,-761.77002)"
         clip-rule="evenodd"
         id="path81" />
    </clipPath>
  </defs>
  <g
     inkscape:label="Layer 1"
     inkscape:groupmode="layer"
     id="layer1"
     transform="translate(-56.78937,-41.485718)">
    <rect
       style="fill:#f6a2b0;fill-opacity:1;stroke-width:4.6012;stroke-miterlimit:3.4"
       id="rect1"
       width="1200"
       height="630"
       x="56.275082"
       y="41.614288" />
    <path
       id="path70"
       d="m 382.88,770.26001 c 0.47999,-0.16003 0.79999,0.15997 0.79999,0.64001 l -3.03998,60.52997 -25.96002,14.73999"
       style="fill:none;stroke:#f0707d;stroke-width:0.801;stroke-linecap:butt;stroke-linejoin:miter;stroke-miterlimit:10;stroke-dasharray:none;stroke-opacity:1"
       clip-path="url(#clipPath71)"
       transform="matrix(2.9669565,0,0,2.9669565,-521.37123,-2036.615)" />
    <path
       id="path72"
       d="m 0,0 c 2.24,4.01 5.77,7.21 9.45,9.61 5.93,3.85 12.660001,6.73 19.71,7.529999 C 43.740002,18.74 63.279999,16.66 70.010002,2.09 c 2.400002,-4.97 3.360001,-10.57 4,-16.02 0.809998,-4.959999 1.129997,-10.25 1.290001,-15.369999 0.159996,-3.84 -0.32,-8.330002 2.559998,-10.89 3.199997,-2.720001 7.849998,-0.960003 11.849998,-1.440002 4.809998,-0.32 6.730003,-3.369999 4.489998,-7.689999 -1.439995,-2.880001 -3.689995,-5.279998 -5.769997,-8.010002 -4.959999,-6.399998 -8.489998,-13.61 -9.769996,-21.779999 -0.960007,-4.639999 -1.280007,-9.760002 -2.720002,-14.25 C 69.529999,-113.06 43.740002,-118.66 24.51,-114.02 c -7.370001,1.77 -13.61,6.89 -18.1,12.98 -7.53,9.760001 -10.41,21.129996 -11.05,33.139998 -0.81,10.730004 -1.13,21.300004 -1.29,31.870003 v 0.16 C -6.09,-24.34 -5.28,-10.08 0,0 Z m 57.669998,-73.019997 v 0 c 3.210003,-0.160003 6.25,2.559998 6.57,5.759995 0.32,2.410004 -0.799999,4.810001 -2.879997,6.090004 -3.369999,2.079998 -7.690003,0.32 -9.290001,-3.040001 -1.930001,-4.169998 1.119999,-8.809998 5.599998,-8.809998 z"
       style="fill:#231f20;fill-opacity:1;fill-rule:nonzero;stroke:none"
       transform="matrix(2.9669565,0,0,2.9669565,337.02863,496.24597)"
       clip-path="url(#clipPath73)" />
    <path
       id="path74"
       d="m 0,0 c -2.4,0.32 -3.85,0.64 -6.41,1.12 -0.48,1.28 -1.28,1.28 -1.28,2.4 0,12.65 0.32,26.109999 0.32,38.599999 h -1.12 c -0.16,-12.66 -0.32,-25.15 -0.64,-37.799999 -0.16,-2.88 -1.12,-2.72 -1.92,-3.36 -1.13,1.12 -2.25,0.96 -2.25,2.72 0,12.65 0.16,25.779999 0.32,38.439999 H -14.1 C -14.26,29.790001 -14.26,17.450001 -14.26,5.28 c 0.16,-3.36 -0.8,-4.8 -4.48,-5.6 z"
       style="fill:#231f20;fill-opacity:1;fill-rule:nonzero;stroke:none"
       transform="matrix(2.9669565,0,0,2.9669565,474.39874,544.72615)"
       clip-path="url(#clipPath75)" />
    <path
       id="path76"
       d="m 322.64001,911.66998 h -4.32 m 13.13,0 H 327.13"
       style="fill:none;stroke:#231f20;stroke-width:0.801;stroke-linecap:butt;stroke-linejoin:miter;stroke-miterlimit:4;stroke-dasharray:none;stroke-opacity:1"
       clip-path="url(#clipPath77)"
       transform="matrix(2.9669565,0,0,2.9669565,-521.37123,-2036.615)" />
    <path
       id="path78"
       d="M 354.67999,846.33002 H 354.84 Z m 0,0 H 354.84 Z"
       style="fill:none;stroke:#f0707d;stroke-width:0.801;stroke-linecap:butt;stroke-linejoin:miter;stroke-miterlimit:10;stroke-dasharray:none;stroke-opacity:1"
       clip-path="url(#clipPath79)"
       transform="matrix(2.9669565,0,0,2.9669565,-521.37123,-2036.615)" />
    <path
       id="path80"
       d="M 0,0 52.060001,-42.110001 C 54.299999,-43.880001 57.029999,-45.16 59.75,-45.48 l 2.400002,-0.479999 C 66,-46.599998 69.839996,-44.84 72.089996,-41.630001 L 107.49,8.17 81.220001,14.9 Z"
       style="fill:#f0707d;fill-opacity:1;fill-rule:nonzero;stroke:none"
       transform="matrix(2.9669565,0,0,2.9669565,298.54727,223.52344)"
       clip-path="url(#clipPath81)" />
    <path
       id="path82"
       d="m 0,0 h 0.16 v 0 0 z m -28.200001,76.230003 h 0.16 z M -105.41,-7.69 -25.790001,6.89 -28.68,76.230003 -111.5,52.049999 -107.18,-6.41 c 0.16,-0.8 0.97,-1.44 1.77,-1.28 z"
       style="fill:none;stroke:#f0707d;stroke-width:0.801;stroke-linecap:butt;stroke-linejoin:miter;stroke-miterlimit:10;stroke-dasharray:none;stroke-opacity:1"
       transform="matrix(2.9669565,0,0,2.9669565,614.61711,247.76342)"
       clip-path="url(#clipPath83)" />
    <path
       id="path84"
       d="m 0,0 -0.16,0.16 c -0.32,0.32 -0.16,0.8 0,1.12 17.619999,21.62 -42.779999,80.069998 -33.650001,40.190001 -0.32,-0.639999 -0.8,-0.800003 -1.439999,-0.639999 0,0 0,0 -0.16,-0.160004 0,0.160004 0,0.160004 0,0.160004 -2.720001,0.799999 -7.529999,7.209999 -11.049999,5.449997 0,0 0,0 0,0 C -51.59,45.16 -47.900002,37.950001 -46.139999,35.23 c 0.479999,-0.8 -0.64,-1.599999 -1.279999,-1.119999 -1.93,1.599998 -6.730004,4.959999 -8.490002,1.439998 0,0 0,0 0,0 -1.77,-3.849998 0.32,-8.009998 2.079998,-11.529999 1.280003,-2.079999 2.560002,-4.329999 3.84,-6.569999 C -47.259998,13.13 -44.220001,8.96 -40.849998,4.96 -36.529999,-0.32 -28.84,-7.05 -27.719999,-8.33 c 0.479999,-0.64 0.16,-1.12 0.16,-1.12 -0.640002,-0.16 -1.120001,0.16 -1.600001,0.48 -5.130001,3.84 -9.61,8.65 -13.779999,13.61 -3.36,4.16 -6.409999,8.49 -9.130001,13.13 -3.2,5.13 -8.330002,12.170001 -5.45,18.419999 0.490001,0.960003 1.29,1.920002 2.409999,2.240001 0.959999,0.48 2.080002,0.48 3.040001,0.16 0.959999,-0.16 1.919998,-0.639999 2.720002,-0.959999 -1.760003,4 -2.720002,9.289997 2.569999,10.41 0,0 0.16,0 0.32,0 1.759998,0.479999 7.849998,-1.920002 10.57,-4.330002 C -42.299999,83.110001 19.700001,25.139999 1.28,0 0.96,-0.48 0.32,-0.48 0,0 Z"
       style="fill:#ede8de;fill-opacity:1;fill-rule:nonzero;stroke:none"
       transform="matrix(2.9669565,0,0,2.9669565,490.56866,400.76932)"
       clip-path="url(#clipPath85)" />
    <path
       id="path86"
       d="M 0,0 V -0.16 C -0.16,-10.73 -0.48,-21.299999 -1.28,-32.029999 -1.93,-44.040001 -4.81,-55.41 -12.34,-65.169998 c -4.48,-6.090004 -10.57,-11.209999 -18.100001,-12.980004 -19.229997,-4.639999 -45.019998,0.96 -51.430002,20.66 -1.439995,4.490002 -1.759994,9.610001 -2.719993,14.25 -1.280007,8.170002 -4.810006,15.380001 -9.770005,21.780003 C -96.279999,-18.73 -98.690002,-16.33 -100.13,-13.45 c -2.24,4.32 -0.16,7.37 4.490001,7.69 4,0.48 8.650001,-1.28 11.849998,1.44 2.889999,2.56 2.400002,7.05 2.57,10.89 0.319999,5.12 0.480003,10.41 1.279999,15.370001 0.639999,5.449998 1.760002,11.050001 4,16.019998 6.730003,14.57 26.270004,16.650002 40.850002,15.049999 7.049999,-0.799999 13.780001,-3.679996 19.71,-7.529998 3.84,-2.399998 7.21,-5.599999 9.45,-9.610001 C -0.48,25.790001 0.16,11.53 0,0 Z"
       style="fill:#231f20;fill-opacity:1;fill-rule:nonzero;stroke:none"
       transform="matrix(2.9669565,0,0,2.9669565,1012.931,389.82129)"
       clip-path="url(#clipPath87)" />
    <path
       id="path88"
       d="m 0,0 c 2.4,0.32 3.85,0.64 6.41,1.12 0.48,1.28 1.28,1.28 1.28,2.4 0,12.65 -0.32,26.109999 -0.32,38.599999 h 1.12 c 0.16,-12.66 0.32,-25.15 0.64,-37.799999 0.16,-2.88 1.12,-2.72 1.93,-3.36 1.12,1.12 2.24,0.96 2.24,2.72 0,12.65 -0.16,25.779999 -0.16,38.439999 h 1.12 c 0,-12.329998 0,-24.669998 0,-36.839999 0,-3.36 0.8,-4.8 4.48,-5.6 z"
       style="fill:#231f20;fill-opacity:1;fill-rule:nonzero;stroke:none"
       transform="matrix(2.9669565,0,0,2.9669565,857.96685,544.72615)"
       clip-path="url(#clipPath89)" />
    <path
       id="path90"
       d="m 478.04001,911.66998 h 4.16 m -13.13,0 h 4.32"
       style="fill:none;stroke:#231f20;stroke-width:0.801;stroke-linecap:butt;stroke-linejoin:miter;stroke-miterlimit:4;stroke-dasharray:none;stroke-opacity:1"
       clip-path="url(#clipPath91)"
       transform="matrix(2.9669565,0,0,2.9669565,-521.37123,-2036.615)" />
    <path
       id="path92"
       d="m 0,0 h -14.25 v -21.139999 c 0,-1.600001 1.28,-2.890002 2.88,-2.890002 h 8.01 C -1.44,-24.030001 0,-22.42 0,-20.5 Z"
       style="fill:#f0707d;fill-opacity:1;fill-rule:nonzero;stroke:none"
       transform="matrix(2.9669565,0,0,2.9669565,581.32781,199.78775)"
       clip-path="url(#clipPath93)" />
    <path
       id="path94"
       d="m 380.64001,831.42999 -25.96002,14.73999"
       style="fill:none;stroke:#f0707d;stroke-width:0.801;stroke-linecap:butt;stroke-linejoin:miter;stroke-miterlimit:10;stroke-dasharray:none;stroke-opacity:1"
       clip-path="url(#clipPath95)"
       transform="matrix(2.9669565,0,0,2.9669565,-521.37123,-2036.615)" />
    <path
       id="path96"
       d="M 0,0 0.16,0.16 C 0.32,0.48 0.32,0.96 0,1.28 -17.469999,22.9 42.93,81.349998 33.799999,41.470001 c 0.32,-0.639999 0.799999,-0.800003 1.440003,-0.639999 0,0 0,0 0,-0.160004 0.16,0.160004 0.16,0.160004 0.16,0.160004 2.719997,0.799999 7.529998,7.209999 11.049999,5.449997 0,0 0,0 0,0 C 51.580002,45.16 47.740002,37.790001 46.130001,35.23 45.650002,34.43 46.77,33.630001 47.419998,34.110001 49.34,35.709999 54.139999,39.07 55.91,35.549999 c 0,0 0,0 0,0 1.759998,-3.84 -0.32,-8.009998 -2.09,-11.529999 -1.279999,-2.239999 -2.560002,-4.319999 -4,-6.569999 C 47.259998,13.13 44.209999,8.97 40.849998,4.96 36.52,-0.32 28.83,-7.21 27.709999,-8.33 c -0.479999,-0.64 -0.16,-1.12 -0.16,-1.12 0.640002,-0.16 1.120001,0.16 1.600001,0.48 5.129999,3.84 9.609998,8.65 13.62,13.61 3.360001,4.17 6.41,8.49 9.290001,13.13 C 55.27,22.9 60.389999,29.940001 57.509998,36.189999 57.029999,37.150002 56.23,38.110001 55.110001,38.43 54.139999,38.91 53.02,38.75 52.060001,38.59 51.099998,38.43 50.139999,37.950001 49.34,37.470001 c 1.759998,4.16 2.720001,9.449997 -2.57,10.57 -0.159999,0 -0.159999,0 -0.319999,0 -1.760002,0.479999 -7.850003,-1.920002 -10.57,-4.32 C 42.290001,83.110001 -19.709999,25.139999 -1.29,0 -0.97,-0.48 -0.32,-0.48 0,0 Z"
       style="fill:#ede8de;fill-opacity:1;fill-rule:nonzero;stroke:none"
       transform="matrix(2.9669565,0,0,2.9669565,845.62426,406.46588)"
       clip-path="url(#clipPath97)" />
    <path
       id="path98"
       d="M 0,0 -15.7,4 -18.26,4.8 -19.700001,40.509998 -33.639999,59.73 c -1.920002,2.400001 -1.279999,5.930004 1.279998,7.530002 L -22.75,73.5 l 0.639999,14.580002 c 0.16,1.439995 0.970002,2.879997 2.090001,3.839996 3.2,2.400002 6.89,3.840004 10.73,4 L 28.200001,98.959999 30.92,9.45 C 30.92,8.32 30.120001,7.52 29,7.52 L -14.74,6.56 -3.04,2.08 Z"
       style="fill:#f0707d;fill-opacity:1;fill-rule:nonzero;stroke:none"
       transform="matrix(2.9669565,0,0,2.9669565,811.3856,170.80046)"
       clip-path="url(#clipPath99)" />
    <path
       id="path100"
       d="M 0,0 -14.58,4.48 -13.46,6.4 32.040001,7.36 29.32,97.839996 33.639999,96.559998 36.369999,5.28 H 33 V 3.68 H -5.29 Z"
       style="fill:#ffffff;fill-opacity:1;fill-rule:nonzero;stroke:none"
       transform="matrix(2.9669565,0,0,2.9669565,808.06265,173.17406)"
       clip-path="url(#clipPath101)" />
    <path
       id="path102"
       d="m 0,0 c -1.44,3.36 -5.92,5.12 -9.29,3.04 -2.08,-1.28 -3.2,-3.68 -2.88,-6.09 0.32,-3.2 3.36,-5.92 6.57,-5.76 v 0 c 4.48,0 7.53,4.64 5.6,8.81 z"
       style="fill:#231f20;fill-opacity:1;fill-rule:nonzero;stroke:none"
       transform="matrix(2.9669565,0,0,2.9669565,840.84745,305.73765)"
       clip-path="url(#clipPath103)" />
    <path
       id="path104"
       d="M 0,0 C 0,0 -0.16,0.16 -0.32,0.16 -0.48,0.16 -0.48,0 -0.48,0 c 0,-0.16 0,-0.32 0.16,-0.32 C -0.16,-0.32 0,-0.16 0,0 Z"
       style="fill:none;stroke:#ede8de;stroke-width:0.801;stroke-linecap:round;stroke-linejoin:miter;stroke-miterlimit:10;stroke-dasharray:none;stroke-opacity:1"
       transform="matrix(2.9669565,0,0,2.9669565,1014.8299,358.46051)"
       clip-path="url(#clipPath105)" />
    <path
       id="path106"
       d="M 0,0 C 0,0.64 -0.48,1.12 -1.12,1.12 -1.76,1.12 -2.4,0.64 -2.4,0 c 0,-0.64 0.64,-1.28 1.28,-1.28 C -0.48,-1.28 0,-0.64 0,0 Z"
       style="fill:#231f20;fill-opacity:1;fill-rule:nonzero;stroke:none"
       transform="matrix(2.9669565,0,0,2.9669565,874.61154,370.83269)"
       clip-path="url(#clipPath107)" />
    <path
       id="path108"
       d="m 437.03,750.23999 h 45.01001 L 479.16,842.15997 M 437.98999,751.03998 H 483 l -2.88,91.92004"
       style="fill:none;stroke:#231f20;stroke-width:0.32;stroke-linecap:round;stroke-linejoin:miter;stroke-miterlimit:10;stroke-dasharray:none;stroke-opacity:1"
       clip-path="url(#clipPath109)"
       transform="matrix(2.9669565,0,0,2.9669565,-521.37123,-2036.615)" />
    <path
       id="path110"
       d="m 477.88,842.15997 2.88001,-92.87994 h -44.69 L 446.16,746.23999"
       style="fill:none;stroke:#231f20;stroke-width:0.32;stroke-linecap:round;stroke-linejoin:bevel;stroke-miterlimit:10;stroke-dasharray:none;stroke-opacity:1"
       clip-path="url(#clipPath111)"
       transform="matrix(2.9669565,0,0,2.9669565,-521.37123,-2036.615)" />
    <path
       id="path112"
       d="M 0,0 C 7.05,-5.92 7.69,3.69 1.28,0.64 1.92,1.45 3.04,2.09 3.52,3.69 3.68,4.65 3.84,5.77 2.72,5.77 -0.32,5.45 0.32,0.16 0,0 -3.69,3.85 -51.59,6.41 -48.220001,3.37"
       style="fill:none;stroke:#ede8de;stroke-width:0.801;stroke-linecap:round;stroke-linejoin:miter;stroke-miterlimit:10;stroke-dasharray:none;stroke-opacity:1"
       transform="matrix(2.9669565,0,0,2.9669565,1014.355,359.88466)"
       clip-path="url(#clipPath113)" />
  </g>
</svg>
